<svg width="56" height="56" viewBox="0 0 56 56" fill="none" xmlns="http://www.w3.org/2000/svg">
<path d="M0 8C0 3.58172 3.58172 0 8 0H48C52.4183 0 56 3.58172 56 8V56H8C3.58172 56 0 52.4183 0 48V8Z" fill="#FF2551"/>
<g clip-path="url(#clip0_3514_4619)">
<path d="M20.274 18.4102L16.349 18.4292L16.3299 14.5041" stroke="#FFFFFF" stroke-width="2" stroke-linecap="round" stroke-linejoin="round"/>
<path d="M16.33 24.7005C17.4419 26.6222 19.5198 27.915 21.8996 27.915C25.451 27.915 28.33 25.0361 28.33 21.4847C28.33 17.9334 25.451 15.0544 21.8996 15.0544C20.3342 15.0544 18.8994 15.6138 17.7842 16.5436" stroke="#FFFFFF" stroke-width="2" stroke-linecap="round" stroke-linejoin="round"/>
<path d="M33.8828 34.4962C33.5018 34.0976 33.1593 33.6639 32.8597 33.201C32.3928 32.4761 32.032 31.688 31.7883 30.8609C31.6233 30.9116 31.4825 31.021 31.3927 31.1684C31.3029 31.3158 31.2701 31.491 31.3007 31.6609L31.7409 34.0971C31.8027 34.2891 31.8251 34.4915 31.8069 34.6924C31.7887 34.8932 31.7302 35.0883 31.635 35.2661C31.5114 35.4691 31.3426 35.6408 31.1418 35.7679C30.941 35.895 30.7136 35.9741 30.4772 35.9989C30.0913 35.9683 29.7299 35.7977 29.461 35.5192C29.4073 35.4637 29.2247 35.4803 29.1035 35.57C28.9824 35.6596 28.9928 35.798 28.925 35.9595C28.8237 36.1662 28.6599 36.3357 28.4567 36.4439C28.0874 36.6675 27.6467 36.7422 27.2243 36.6528C27.0482 36.6194 26.8781 36.5597 26.7198 36.4757C26.6636 36.4474 26.6098 36.4147 26.5588 36.3777C26.5084 36.3409 26.4507 36.3153 26.3896 36.3026C26.3285 36.29 26.2653 36.2906 26.2044 36.3044C26.1436 36.3182 26.0863 36.3449 26.0367 36.3827C25.987 36.4205 25.9459 36.4685 25.9164 36.5235C25.8829 36.581 25.8518 36.6293 25.8257 36.666C25.5414 37.0396 25.1278 37.2935 24.6659 37.3778C24.6392 37.3785 24.6102 37.3792 24.5811 37.3775C24.2852 37.3598 23.9992 37.2643 23.7519 37.1008C23.6973 36.9663 23.2195 35.8408 21.9962 35.5202C20.626 35.1587 19.5594 36.1277 19.439 36.2441C19.128 36.5399 18.8918 36.9055 18.75 37.3106C18.6081 37.7157 18.5647 38.1488 18.6232 38.574L18.5992 38.5492L17.8482 39.3366C18.3883 39.6417 18.9064 39.9843 19.3986 40.362C20.0177 40.8361 20.5932 41.3645 21.1184 41.9409C24.3747 42.4117 27.6972 42.0495 30.7755 40.888L30.7885 40.8754C31.0286 40.7821 31.2456 40.6381 31.4248 40.4531C31.604 40.2681 31.7411 40.0466 31.8267 39.8037C32.1471 38.8969 32.8096 38.1514 33.6724 37.7265C34.5352 37.3016 35.53 37.231 36.4442 37.5297L36.4631 37.5115C36.5518 37.4362 36.6208 37.3403 36.664 37.2323C36.7072 37.1242 36.7232 37.0072 36.7108 36.8915C36.6983 36.7758 36.6577 36.6649 36.5925 36.5685C36.5274 36.4721 36.4396 36.3932 36.3368 36.3385C35.4239 35.8622 34.595 35.2399 33.8828 34.4962ZM19.9888 39.5382C18.8213 38.5332 19.2363 36.4811 21.1677 36.218C21.2144 36.2122 21.2618 36.2134 21.3082 36.2215C23.2232 36.5749 23.5408 38.6455 22.3282 39.5934C21.991 39.8536 21.5746 39.9901 21.1488 39.98C20.7229 39.97 20.3134 39.814 19.9888 39.5382Z" fill="#FFFFFF"/>
<path d="M40.7415 24.88C38.4985 29.1599 34.6168 30.8553 33.2737 31.3538C33.5946 31.6912 34.0209 31.909 34.4823 31.9714C34.9437 32.0338 35.4126 31.937 35.8115 31.697C36.0846 31.5321 36.3602 31.3517 36.6384 31.156C38.6002 29.7578 40.2005 27.9123 41.3069 25.7724C41.0819 27.0754 40.6307 28.3291 39.9739 29.4767C39.616 30.0966 37.4685 33.823 34.6802 33.7288L34.5758 33.7223C35.4177 34.6103 36.4471 35.2994 37.589 35.7392C39.4068 34.0646 40.8426 32.0182 41.7988 29.7391C43.7768 24.9912 43.0493 20.6081 42.4922 18.4859C42.4835 18.4611 42.4664 18.4401 42.4439 18.4265C42.4214 18.4129 42.3949 18.4076 42.3689 18.4114C42.3429 18.4152 42.319 18.4279 42.3014 18.4474C42.2837 18.4669 42.2734 18.4918 42.2721 18.5181C42.2889 20.7319 41.7634 22.9161 40.7415 24.88Z" fill="#FFFFFF"/>
</g>
<defs>
<clipPath id="clip0_3514_4619">
<rect width="32" height="32" fill="white" transform="translate(12 12)"/>
</clipPath>
</defs>
</svg>
