<svg width="460" height="28" viewBox="0 0 460 28" fill="none" xmlns="http://www.w3.org/2000/svg">
<rect width="460" height="28" fill="url(#paint0_linear_26190_26636)"/>
<path d="M12.1523 12.953C12.0229 12.6979 11.8664 12.4515 11.6831 12.2503C11.5547 12.1039 11.4174 11.9666 11.2982 11.8294C11.0416 11.5549 10.7403 11.3435 10.4301 11.141C9.71819 10.6626 8.92685 10.4102 8.07351 10.3113C7.55615 10.261 7.0395 10.2832 6.53287 10.4053C6.43337 10.4315 6.34303 10.4669 6.23438 10.484C6.32437 10.4123 6.41436 10.3407 6.49537 10.278C6.81059 10.0543 7.14448 9.88522 7.50601 9.76175C8.46381 9.40824 9.43304 9.29968 10.432 9.45438C11.2221 9.57986 11.9594 9.86806 12.6345 10.2917C12.7166 10.3378 12.7896 10.3929 12.8535 10.4389C12.9083 10.4757 12.9449 10.5123 13.0175 10.513C13.0356 10.5132 13.0539 10.5315 13.0631 10.5406C13.1819 10.6415 13.3189 10.7426 13.4469 10.8526C13.4559 10.8437 13.4739 10.8257 13.4829 10.8167C13.5096 10.7716 13.5457 10.7538 13.6093 10.7635C13.6637 10.764 13.7002 10.7825 13.7368 10.8192C13.7917 10.8741 13.8558 10.9382 13.9108 10.9931C13.9657 11.0481 14.0025 11.1028 14.0213 11.1755C14.04 11.2301 14.0226 11.3025 14.0593 11.3573C14.0685 11.3664 14.0505 11.3844 14.0416 11.3934C14.1053 11.4212 14.1241 11.4939 14.0704 11.5659C14.1426 11.5304 14.1431 11.5848 14.1798 11.6214C14.2257 11.6853 14.135 11.6844 14.1264 11.7297C14.1445 11.7299 14.1535 11.7209 14.1717 11.7211C14.2078 11.7033 14.2259 11.7035 14.2535 11.7491C14.2812 11.7947 14.2724 11.8218 14.2365 11.8577C14.2275 11.8667 14.2187 11.8938 14.2097 11.9028L14.2188 11.9119C14.2278 11.903 14.246 11.9031 14.2549 11.8942C14.2909 11.8582 14.3273 11.8767 14.3458 11.9132C14.3734 11.9588 14.3736 11.9769 14.3285 12.0037C14.3196 12.0127 14.3106 12.0216 14.3016 12.0306C14.2926 12.0396 14.2928 12.0577 14.2928 12.0577C14.3019 12.0669 14.3109 12.0579 14.3201 12.0671C14.3201 12.0671 14.3291 12.0581 14.3472 12.0583C14.4374 12.0047 14.4374 12.0047 14.4928 12.1141C14.4659 12.141 14.4298 12.1588 14.4028 12.1858L14.412 12.1949C14.4481 12.1771 14.4842 12.1593 14.5203 12.1415C14.5388 12.178 14.5662 12.2055 14.5756 12.2328C14.5757 12.2509 14.5307 12.2777 14.5037 12.3046C14.5037 12.3046 14.5129 12.3138 14.5039 12.3227C14.522 12.3229 14.54 12.305 14.5581 12.3051C14.5853 12.2963 14.6032 12.2784 14.6212 12.2604C14.6486 12.2879 14.6671 12.3243 14.6946 12.3518C14.6677 12.3787 14.6316 12.3965 14.6046 12.4235C14.6321 12.4509 14.6321 12.4509 14.7492 12.3704C14.7767 12.3979 14.7951 12.4344 14.8226 12.4618C14.7957 12.4888 14.7687 12.5157 14.7326 12.5335C14.7418 12.5427 14.7418 12.5427 14.7509 12.5518C14.796 12.525 14.823 12.4981 14.868 12.4713C14.8955 12.4988 14.9048 12.5261 14.9323 12.5536C14.9054 12.5805 14.8874 12.5985 14.8694 12.6164C14.8694 12.6164 14.8786 12.6256 14.8696 12.6346C14.8878 12.6347 14.9059 12.6349 14.9149 12.6259C14.9961 12.5814 14.9961 12.5814 15.0603 12.6636C15.0513 12.6726 15.0334 12.6906 15.0336 12.7087C15.0336 12.7087 15.0336 12.7087 15.0427 12.7178C15.0607 12.6999 15.0788 12.7001 15.0968 12.6821C15.1419 12.6553 15.2056 12.6831 15.2151 12.7286C15.2153 12.7467 15.2063 12.7557 15.1975 12.7828C15.1975 12.7828 15.1975 12.7828 15.2066 12.792C15.2516 12.7471 15.288 12.7655 15.3156 12.8112C15.334 12.8295 15.3704 12.848 15.3977 12.8573C15.425 12.8666 15.4523 12.8759 15.4886 12.8763C15.5611 12.877 15.6249 12.9048 15.6618 12.9777C15.671 12.9869 15.6801 12.996 15.6893 13.0052C15.7347 13.0147 15.7441 13.042 15.7354 13.0872C15.8173 13.1152 15.8724 13.1883 15.8548 13.2425C15.9001 13.2339 15.9365 13.2524 15.9189 13.3066L15.928 13.3158C15.9645 13.3343 15.9828 13.3526 15.956 13.3977C16.0015 13.4072 16.0379 13.4257 16.0203 13.4799C16.0839 13.4896 16.0932 13.5169 16.0756 13.5711C16.121 13.5806 16.1483 13.5899 16.1488 13.6444C16.1488 13.6444 16.149 13.6625 16.158 13.6535C16.2034 13.663 16.2038 13.6993 16.2041 13.7356C16.2587 13.7542 16.277 13.7725 16.2594 13.8268C16.323 13.8365 16.3413 13.8548 16.3237 13.909C16.3783 13.9277 16.4429 14.0462 16.4342 14.0914C16.4434 14.1006 16.4615 14.1008 16.4615 14.1008C16.4892 14.1464 16.517 14.2101 16.5446 14.2557C16.5631 14.2922 16.5906 14.3196 16.6091 14.3561C16.6184 14.3834 16.6277 14.4107 16.6461 14.429C16.6552 14.4381 16.6735 14.4564 16.6829 14.4837C16.7015 14.5383 16.7202 14.5929 16.7478 14.6385C16.7663 14.675 16.7939 14.7206 16.8124 14.757C16.8401 14.8026 16.8496 14.8481 16.8772 14.8937C16.8959 14.9483 16.9327 15.003 16.9513 15.0576C16.9978 15.1759 17.0533 15.2853 17.0906 15.3945C17.1188 15.4945 17.1561 15.6036 17.1932 15.6947C17.1934 15.7128 17.2026 15.722 17.2027 15.7401C17.1853 15.8125 17.2131 15.8762 17.2681 15.9312C17.2955 15.9586 17.314 15.9951 17.3325 16.0315C17.3601 16.0771 17.3607 16.1316 17.3158 16.1765C17.2888 16.2034 17.2892 16.2397 17.3346 16.2492C17.4165 16.2772 17.4626 16.3592 17.4814 16.432C17.4908 16.4593 17.4548 16.4952 17.4371 16.5313C17.4282 16.5584 17.4193 16.5674 17.4013 16.5853C17.4286 16.5947 17.4378 16.6038 17.465 16.6132C17.5832 16.6415 17.6568 16.751 17.6216 16.8595C17.6217 16.8776 17.6038 16.8956 17.5948 16.9046C17.5407 16.9403 17.5411 16.9766 17.5957 16.9953C17.6503 17.0139 17.6869 17.0506 17.7237 17.1053C17.7513 17.1509 17.7427 17.1962 17.7069 17.2502C17.6622 17.3133 17.6624 17.3314 17.7261 17.3592C17.8265 17.4237 17.8543 17.4874 17.8284 17.6232C17.802 17.7046 17.7756 17.7859 17.7491 17.8673C17.7315 17.9215 17.6863 17.9301 17.6317 17.9115C17.641 17.9388 17.6504 17.9661 17.6597 17.9934C17.6692 18.0388 17.6787 18.0842 17.6609 18.1203C17.5989 18.2739 17.5369 18.4274 17.4749 18.581C17.3509 18.8881 17.2996 19.2141 17.2484 19.54C17.2315 19.6668 17.1862 19.6754 17.0768 19.62C16.9856 19.5647 16.8853 19.5003 16.7941 19.445C16.7757 19.4267 16.7576 19.4265 16.7213 19.4261C16.5489 19.4154 16.3857 19.4138 16.2223 19.3941C16.1224 19.3841 16.0222 19.3378 15.9221 19.2915C15.64 19.189 15.4475 18.9786 15.2818 18.7231C15.153 18.5224 15.0963 18.2861 15.103 18.0413C15.1016 17.8962 15.1546 17.7516 15.1713 17.6067C15.1883 17.4799 15.2325 17.3625 15.3131 17.2635C15.3848 17.1735 15.4021 17.083 15.4373 16.9745C15.4725 16.866 15.4533 16.757 15.4433 16.6572C15.4324 16.4667 15.3402 16.3025 15.1938 16.1742C15.1116 16.1099 15.0202 16.0365 14.938 15.9722C14.9105 15.9448 14.8922 15.9265 14.8919 15.8902C14.8913 15.8358 14.8818 15.7903 14.8905 15.7451C14.9333 15.4825 14.8676 15.2552 14.7475 15.0273C14.6921 14.918 14.6187 14.8266 14.5361 14.7261C14.426 14.598 14.2894 14.5333 14.1348 14.4864C14.0621 14.4676 14.0621 14.4676 14.0703 14.3861C14.0874 14.2774 14.1045 14.1688 14.1035 14.0599C14.1012 13.8241 13.9995 13.6146 13.8346 13.4498C13.7797 13.3949 13.7068 13.3579 13.6339 13.3209C13.4062 13.219 13.1697 13.1442 12.9074 13.2051C12.7355 13.2488 12.5819 13.3108 12.447 13.4274C12.375 13.4811 12.3296 13.4716 12.2746 13.4167C12.1919 13.298 12.1091 13.1793 12.0896 13.034C12.0984 13.0069 12.0981 12.9706 12.1523 12.953ZM16.95 18.6848C16.9767 18.6397 17.0394 18.5587 17.084 18.4775C17.1999 18.27 17.2157 18.0344 17.1591 17.7981C17.1307 17.68 17.0842 17.5616 16.9929 17.4882C16.8008 17.3141 16.5914 17.2304 16.3375 17.228C16.1108 17.2349 15.912 17.3055 15.741 17.4399C15.4892 17.6551 15.374 17.9351 15.3953 18.2618C15.396 18.3343 15.4148 18.407 15.4518 18.4799C15.5719 18.7078 15.7548 18.8728 16.0003 18.9386C16.3368 19.0416 16.6442 18.9539 16.95 18.6848Z" fill="#F41795"/>
<path d="M35.6172 8.46875V17H34.1523V9.64062H30.3613V17H28.8965V8.46875H35.6172ZM36.9766 13.9004V13.7656C36.9766 13.3086 37.043 12.8848 37.1758 12.4941C37.3086 12.0996 37.5 11.7578 37.75 11.4688C38.0039 11.1758 38.3125 10.9492 38.6758 10.7891C39.043 10.625 39.457 10.543 39.918 10.543C40.3828 10.543 40.7969 10.625 41.1602 10.7891C41.5273 10.9492 41.8379 11.1758 42.0918 11.4688C42.3457 11.7578 42.5391 12.0996 42.6719 12.4941C42.8047 12.8848 42.8711 13.3086 42.8711 13.7656V13.9004C42.8711 14.3574 42.8047 14.7812 42.6719 15.1719C42.5391 15.5625 42.3457 15.9043 42.0918 16.1973C41.8379 16.4863 41.5293 16.7129 41.166 16.877C40.8027 17.0371 40.3906 17.1172 39.9297 17.1172C39.4648 17.1172 39.0488 17.0371 38.6816 16.877C38.3184 16.7129 38.0098 16.4863 37.7559 16.1973C37.502 15.9043 37.3086 15.5625 37.1758 15.1719C37.043 14.7812 36.9766 14.3574 36.9766 13.9004ZM38.3887 13.7656V13.9004C38.3887 14.1855 38.418 14.4551 38.4766 14.709C38.5352 14.9629 38.627 15.1855 38.752 15.377C38.877 15.5684 39.0371 15.7188 39.2324 15.8281C39.4277 15.9375 39.6602 15.9922 39.9297 15.9922C40.1914 15.9922 40.418 15.9375 40.6094 15.8281C40.8047 15.7188 40.9648 15.5684 41.0898 15.377C41.2148 15.1855 41.3066 14.9629 41.3652 14.709C41.4277 14.4551 41.459 14.1855 41.459 13.9004V13.7656C41.459 13.4844 41.4277 13.2188 41.3652 12.9688C41.3066 12.7148 41.2129 12.4902 41.084 12.2949C40.959 12.0996 40.7988 11.9473 40.6035 11.8379C40.4121 11.7246 40.1836 11.668 39.918 11.668C39.6523 11.668 39.4219 11.7246 39.2266 11.8379C39.0352 11.9473 38.877 12.0996 38.752 12.2949C38.627 12.4902 38.5352 12.7148 38.4766 12.9688C38.418 13.2188 38.3887 13.4844 38.3887 13.7656ZM45.5781 10.6602V17H44.166V10.6602H45.5781ZM49.7148 10.6602L46.8613 14.4746H45.25L45.0625 13.1973H46.2402L47.9512 10.6602H49.7148ZM48.0625 17L46.1523 14.2344L47.2656 13.4316L49.9199 17H48.0625ZM52.5273 16.3086L54.25 10.6602H55.7617L53.2188 17.9668C53.1602 18.123 53.084 18.293 52.9902 18.4766C52.8965 18.6602 52.7734 18.834 52.6211 18.998C52.4727 19.166 52.2871 19.3008 52.0645 19.4023C51.8418 19.5078 51.5723 19.5605 51.2559 19.5605C51.1309 19.5605 51.0098 19.5488 50.8926 19.5254C50.7793 19.5059 50.6719 19.4844 50.5703 19.4609L50.5645 18.3828C50.6035 18.3867 50.6504 18.3906 50.7051 18.3945C50.7637 18.3984 50.8105 18.4004 50.8457 18.4004C51.0801 18.4004 51.2754 18.3711 51.4316 18.3125C51.5879 18.2578 51.7148 18.168 51.8125 18.043C51.9141 17.918 52 17.75 52.0703 17.5391L52.5273 16.3086ZM51.5547 10.6602L53.0605 15.4062L53.3125 16.8945L52.334 17.1465L50.0312 10.6602H51.5547ZM60.8242 10.6602V11.7852H57.6953V10.6602H60.8242ZM58.0293 10.6602V17H56.6172V10.6602H58.0293ZM61.9316 10.6602V17H60.5137V10.6602H61.9316ZM67 15.7285V12.7051C67 12.4785 66.959 12.2832 66.877 12.1191C66.7949 11.9551 66.6699 11.8281 66.502 11.7383C66.3379 11.6484 66.1309 11.6035 65.8809 11.6035C65.6504 11.6035 65.4512 11.6426 65.2832 11.7207C65.1152 11.7988 64.9844 11.9043 64.8906 12.0371C64.7969 12.1699 64.75 12.3203 64.75 12.4883H63.3438C63.3438 12.2383 63.4043 11.9961 63.5254 11.7617C63.6465 11.5273 63.8223 11.3184 64.0527 11.1348C64.2832 10.9512 64.5586 10.8066 64.8789 10.7012C65.1992 10.5957 65.5586 10.543 65.957 10.543C66.4336 10.543 66.8555 10.623 67.2227 10.7832C67.5938 10.9434 67.8848 11.1855 68.0957 11.5098C68.3105 11.8301 68.418 12.2324 68.418 12.7168V15.5352C68.418 15.8242 68.4375 16.084 68.4766 16.3145C68.5195 16.541 68.5801 16.7383 68.6582 16.9062V17H67.2109C67.1445 16.8477 67.0918 16.6543 67.0527 16.4199C67.0176 16.1816 67 15.9512 67 15.7285ZM67.2051 13.1445L67.2168 14.0176H66.2031C65.9414 14.0176 65.7109 14.043 65.5117 14.0938C65.3125 14.1406 65.1465 14.2109 65.0137 14.3047C64.8809 14.3984 64.7812 14.5117 64.7148 14.6445C64.6484 14.7773 64.6152 14.9277 64.6152 15.0957C64.6152 15.2637 64.6543 15.418 64.7324 15.5586C64.8105 15.6953 64.9238 15.8027 65.0723 15.8809C65.2246 15.959 65.4082 15.998 65.623 15.998C65.9121 15.998 66.1641 15.9395 66.3789 15.8223C66.5977 15.7012 66.7695 15.5547 66.8945 15.3828C67.0195 15.207 67.0859 15.041 67.0938 14.8848L67.5508 15.5117C67.5039 15.6719 67.4238 15.8438 67.3105 16.0273C67.1973 16.2109 67.0488 16.3867 66.8652 16.5547C66.6855 16.7188 66.4688 16.8535 66.2148 16.959C65.9648 17.0645 65.6758 17.1172 65.3477 17.1172C64.9336 17.1172 64.5645 17.0352 64.2402 16.8711C63.916 16.7031 63.6621 16.4785 63.4785 16.1973C63.2949 15.9121 63.2031 15.5898 63.2031 15.2305C63.2031 14.8945 63.2656 14.5977 63.3906 14.3398C63.5195 14.0781 63.707 13.8594 63.9531 13.6836C64.2031 13.5078 64.5078 13.375 64.8672 13.2852C65.2266 13.1914 65.6367 13.1445 66.0977 13.1445H67.2051ZM71.3535 14.9375L73.8438 10.6602H75.2559V17H73.8438V12.7168L71.3535 17H69.9414V10.6602H71.3535V14.9375ZM73.4688 8.22266H74.5176C74.5176 8.54688 74.4395 8.83398 74.2832 9.08398C74.1309 9.33008 73.9121 9.52344 73.627 9.66406C73.3457 9.80469 73.0098 9.875 72.6191 9.875C72.0293 9.875 71.5625 9.72266 71.2188 9.41797C70.8789 9.10938 70.709 8.71094 70.709 8.22266H71.7578C71.7578 8.44141 71.8223 8.63477 71.9512 8.80273C72.084 8.9668 72.3066 9.04883 72.6191 9.04883C72.9277 9.04883 73.1465 8.9668 73.2754 8.80273C73.4043 8.63477 73.4688 8.44141 73.4688 8.22266ZM82.3281 15.9922C82.5586 15.9922 82.7656 15.9473 82.9492 15.8574C83.1367 15.7637 83.2871 15.6348 83.4004 15.4707C83.5176 15.3066 83.582 15.1172 83.5938 14.9023H84.9238C84.916 15.3125 84.7949 15.6855 84.5605 16.0215C84.3262 16.3574 84.0156 16.625 83.6289 16.8242C83.2422 17.0195 82.8145 17.1172 82.3457 17.1172C81.8613 17.1172 81.4395 17.0352 81.0801 16.8711C80.7207 16.7031 80.4219 16.4727 80.1836 16.1797C79.9453 15.8867 79.7656 15.5488 79.6445 15.166C79.5273 14.7832 79.4688 14.373 79.4688 13.9355V13.7305C79.4688 13.293 79.5273 12.8828 79.6445 12.5C79.7656 12.1133 79.9453 11.7734 80.1836 11.4805C80.4219 11.1875 80.7207 10.959 81.0801 10.7949C81.4395 10.627 81.8594 10.543 82.3398 10.543C82.8477 10.543 83.293 10.6445 83.6758 10.8477C84.0586 11.0469 84.3594 11.3262 84.5781 11.6855C84.8008 12.041 84.916 12.4551 84.9238 12.9277H83.5938C83.582 12.6934 83.5234 12.4824 83.418 12.2949C83.3164 12.1035 83.1719 11.9512 82.9844 11.8379C82.8008 11.7246 82.5801 11.668 82.3223 11.668C82.0371 11.668 81.8008 11.7266 81.6133 11.8438C81.4258 11.957 81.2793 12.1133 81.1738 12.3125C81.0684 12.5078 80.9922 12.7285 80.9453 12.9746C80.9023 13.2168 80.8809 13.4688 80.8809 13.7305V13.9355C80.8809 14.1973 80.9023 14.4512 80.9453 14.6973C80.9883 14.9434 81.0625 15.1641 81.168 15.3594C81.2773 15.5508 81.4258 15.7051 81.6133 15.8223C81.8008 15.9355 82.0391 15.9922 82.3281 15.9922ZM87.5312 10.6602V17H86.1191V10.6602H87.5312ZM91.668 10.6602L88.8145 14.4746H87.2031L87.0156 13.1973H88.1934L89.9043 10.6602H91.668ZM90.0156 17L88.1055 14.2344L89.2188 13.4316L91.873 17H90.0156ZM94.0996 14.9375L96.5898 10.6602H98.002V17H96.5898V12.7168L94.0996 17H92.6875V10.6602H94.0996V14.9375ZM103.826 13.3086V14.4219H100.545V13.3086H103.826ZM100.955 10.6602V17H99.543V10.6602H100.955ZM104.846 10.6602V17H103.434V10.6602H104.846ZM113.107 15.2891L114.994 10.6602H116.219L113.588 17H112.627L110.002 10.6602H111.227L113.107 15.2891ZM110.863 10.6602V17H109.451V10.6602H110.863ZM115.352 17V10.6602H116.77V17H115.352ZM121.146 17.1172C120.678 17.1172 120.254 17.041 119.875 16.8887C119.5 16.7324 119.18 16.5156 118.914 16.2383C118.652 15.9609 118.451 15.6348 118.311 15.2598C118.17 14.8848 118.1 14.4805 118.1 14.0469V13.8125C118.1 13.3164 118.172 12.8672 118.316 12.4648C118.461 12.0625 118.662 11.7188 118.92 11.4336C119.178 11.1445 119.482 10.9238 119.834 10.7715C120.186 10.6191 120.566 10.543 120.977 10.543C121.43 10.543 121.826 10.6191 122.166 10.7715C122.506 10.9238 122.787 11.1387 123.01 11.416C123.236 11.6895 123.404 12.0156 123.514 12.3945C123.627 12.7734 123.684 13.1914 123.684 13.6484V14.252H118.785V13.2383H122.289V13.127C122.281 12.873 122.23 12.6348 122.137 12.4121C122.047 12.1895 121.908 12.0098 121.721 11.873C121.533 11.7363 121.283 11.668 120.971 11.668C120.736 11.668 120.527 11.7188 120.344 11.8203C120.164 11.918 120.014 12.0605 119.893 12.248C119.771 12.4355 119.678 12.6621 119.611 12.9277C119.549 13.1895 119.518 13.4844 119.518 13.8125V14.0469C119.518 14.3242 119.555 14.582 119.629 14.8203C119.707 15.0547 119.82 15.2598 119.969 15.4355C120.117 15.6113 120.297 15.75 120.508 15.8516C120.719 15.9492 120.959 15.998 121.229 15.998C121.568 15.998 121.871 15.9297 122.137 15.793C122.402 15.6562 122.633 15.4629 122.828 15.2129L123.572 15.9336C123.436 16.1328 123.258 16.3242 123.039 16.5078C122.82 16.6875 122.553 16.834 122.236 16.9473C121.924 17.0605 121.561 17.1172 121.146 17.1172ZM129.877 10.6602V17H128.465V10.6602H129.877ZM129.279 13.4668V14.5859C129.107 14.6602 128.914 14.7285 128.699 14.791C128.488 14.8496 128.266 14.8984 128.031 14.9375C127.797 14.9727 127.561 14.9902 127.322 14.9902C126.764 14.9902 126.281 14.9043 125.875 14.7324C125.473 14.5605 125.162 14.2969 124.943 13.9414C124.729 13.582 124.621 13.127 124.621 12.5762V10.6543H126.027V12.5762C126.027 12.8926 126.074 13.1445 126.168 13.332C126.266 13.5195 126.41 13.6543 126.602 13.7363C126.793 13.8184 127.033 13.8594 127.322 13.8594C127.564 13.8594 127.793 13.8438 128.008 13.8125C128.223 13.7773 128.436 13.7305 128.646 13.6719C128.857 13.6133 129.068 13.5449 129.279 13.4668ZM134.324 10.6602V17H132.906V10.6602H134.324ZM136.404 10.6602V11.7734H130.861V10.6602H136.404ZM138.396 12.6758H140.266C140.812 12.6758 141.277 12.7676 141.66 12.9512C142.043 13.1348 142.334 13.3906 142.533 13.7188C142.736 14.043 142.838 14.4141 142.838 14.832C142.838 15.1406 142.781 15.4277 142.668 15.6934C142.555 15.9551 142.387 16.1836 142.164 16.3789C141.945 16.5742 141.676 16.7266 141.355 16.8359C141.039 16.9453 140.676 17 140.266 17H137.459V10.6602H138.877V15.8809H140.266C140.547 15.8809 140.771 15.832 140.939 15.7344C141.107 15.6367 141.229 15.5098 141.303 15.3535C141.381 15.1973 141.42 15.0312 141.42 14.8555C141.42 14.6758 141.381 14.5059 141.303 14.3457C141.229 14.1855 141.107 14.0547 140.939 13.9531C140.771 13.8516 140.547 13.8008 140.266 13.8008H138.396V12.6758ZM145.334 10.6602V17H143.922V10.6602H145.334Z" fill="white"/>
<path d="M150.465 8.46875H151.777L154.244 15.0488L156.705 8.46875H158.018L154.76 17H153.717L150.465 8.46875ZM149.867 8.46875H151.115L151.332 14.1641V17H149.867V8.46875ZM157.367 8.46875H158.621V17H157.15V14.1641L157.367 8.46875ZM165.822 8.46875V9.64062H161.861V17H160.396V8.46875H165.822ZM172.684 12.0312V13.1973H168.154V12.0312H172.684ZM168.518 8.46875V17H167.047V8.46875H168.518ZM173.814 8.46875V17H172.35V8.46875H173.814ZM182.369 12.5V12.9688C182.369 13.6133 182.285 14.1914 182.117 14.7031C181.949 15.2148 181.709 15.6504 181.396 16.0098C181.088 16.3691 180.717 16.6445 180.283 16.8359C179.85 17.0234 179.369 17.1172 178.842 17.1172C178.318 17.1172 177.84 17.0234 177.406 16.8359C176.977 16.6445 176.604 16.3691 176.287 16.0098C175.971 15.6504 175.725 15.2148 175.549 14.7031C175.377 14.1914 175.291 13.6133 175.291 12.9688V12.5C175.291 11.8555 175.377 11.2793 175.549 10.7715C175.721 10.2598 175.963 9.82422 176.275 9.46484C176.592 9.10156 176.965 8.82617 177.395 8.63867C177.828 8.44727 178.307 8.35156 178.83 8.35156C179.357 8.35156 179.838 8.44727 180.271 8.63867C180.705 8.82617 181.078 9.10156 181.391 9.46484C181.703 9.82422 181.943 10.2598 182.111 10.7715C182.283 11.2793 182.369 11.8555 182.369 12.5ZM180.898 12.9688V12.4883C180.898 12.0117 180.852 11.5918 180.758 11.2285C180.668 10.8613 180.533 10.5547 180.354 10.3086C180.178 10.0586 179.961 9.87109 179.703 9.74609C179.445 9.61719 179.154 9.55273 178.83 9.55273C178.506 9.55273 178.217 9.61719 177.963 9.74609C177.709 9.87109 177.492 10.0586 177.312 10.3086C177.137 10.5547 177.002 10.8613 176.908 11.2285C176.814 11.5918 176.768 12.0117 176.768 12.4883V12.9688C176.768 13.4453 176.814 13.8672 176.908 14.2344C177.002 14.6016 177.139 14.9121 177.318 15.166C177.502 15.416 177.721 15.6055 177.975 15.7344C178.229 15.8594 178.518 15.9219 178.842 15.9219C179.17 15.9219 179.461 15.8594 179.715 15.7344C179.969 15.6055 180.184 15.416 180.359 15.166C180.535 14.9121 180.668 14.6016 180.758 14.2344C180.852 13.8672 180.898 13.4453 180.898 12.9688ZM187.039 13.1445H184.865L184.854 12.0723H186.752C187.072 12.0723 187.344 12.0254 187.566 11.9316C187.793 11.834 187.965 11.6953 188.082 11.5156C188.199 11.332 188.258 11.1113 188.258 10.8535C188.258 10.5684 188.203 10.3359 188.094 10.1562C187.984 9.97656 187.816 9.8457 187.59 9.76367C187.367 9.68164 187.082 9.64062 186.734 9.64062H185.311V17H183.84V8.46875H186.734C187.203 8.46875 187.621 8.51367 187.988 8.60352C188.359 8.69336 188.674 8.83398 188.932 9.02539C189.193 9.21289 189.391 9.45117 189.523 9.74023C189.66 10.0293 189.729 10.373 189.729 10.7715C189.729 11.123 189.645 11.4453 189.477 11.7383C189.309 12.0273 189.061 12.2637 188.732 12.4473C188.404 12.6309 187.996 12.7402 187.508 12.7754L187.039 13.1445ZM186.975 17H184.402L185.064 15.834H186.975C187.307 15.834 187.584 15.7793 187.807 15.6699C188.029 15.5566 188.195 15.4023 188.305 15.207C188.418 15.0078 188.475 14.7754 188.475 14.5098C188.475 14.2324 188.426 13.9922 188.328 13.7891C188.23 13.582 188.076 13.4238 187.865 13.3145C187.654 13.2012 187.379 13.1445 187.039 13.1445H185.387L185.398 12.0723H187.549L187.883 12.4766C188.352 12.4922 188.736 12.5957 189.037 12.7871C189.342 12.9785 189.568 13.2266 189.717 13.5312C189.865 13.8359 189.939 14.1641 189.939 14.5156C189.939 15.0586 189.82 15.5137 189.582 15.8809C189.348 16.248 189.01 16.5273 188.568 16.7188C188.127 16.9062 187.596 17 186.975 17ZM197.006 15.834V17H192.477V15.834H197.006ZM192.893 8.46875V17H191.422V8.46875H192.893ZM196.414 12.0312V13.1797H192.477V12.0312H196.414ZM196.977 8.46875V9.64062H192.477V8.46875H196.977ZM203.844 12.0312V13.1973H199.314V12.0312H203.844ZM199.678 8.46875V17H198.207V8.46875H199.678ZM204.975 8.46875V17H203.51V8.46875H204.975ZM212.363 12.0312V13.1973H207.834V12.0312H212.363ZM208.197 8.46875V17H206.727V8.46875H208.197ZM213.494 8.46875V17H212.029V8.46875H213.494ZM222.049 12.5V12.9688C222.049 13.6133 221.965 14.1914 221.797 14.7031C221.629 15.2148 221.389 15.6504 221.076 16.0098C220.768 16.3691 220.396 16.6445 219.963 16.8359C219.529 17.0234 219.049 17.1172 218.521 17.1172C217.998 17.1172 217.52 17.0234 217.086 16.8359C216.656 16.6445 216.283 16.3691 215.967 16.0098C215.65 15.6504 215.404 15.2148 215.229 14.7031C215.057 14.1914 214.971 13.6133 214.971 12.9688V12.5C214.971 11.8555 215.057 11.2793 215.229 10.7715C215.4 10.2598 215.643 9.82422 215.955 9.46484C216.271 9.10156 216.645 8.82617 217.074 8.63867C217.508 8.44727 217.986 8.35156 218.51 8.35156C219.037 8.35156 219.518 8.44727 219.951 8.63867C220.385 8.82617 220.758 9.10156 221.07 9.46484C221.383 9.82422 221.623 10.2598 221.791 10.7715C221.963 11.2793 222.049 11.8555 222.049 12.5ZM220.578 12.9688V12.4883C220.578 12.0117 220.531 11.5918 220.438 11.2285C220.348 10.8613 220.213 10.5547 220.033 10.3086C219.857 10.0586 219.641 9.87109 219.383 9.74609C219.125 9.61719 218.834 9.55273 218.51 9.55273C218.186 9.55273 217.896 9.61719 217.643 9.74609C217.389 9.87109 217.172 10.0586 216.992 10.3086C216.816 10.5547 216.682 10.8613 216.588 11.2285C216.494 11.5918 216.447 12.0117 216.447 12.4883V12.9688C216.447 13.4453 216.494 13.8672 216.588 14.2344C216.682 14.6016 216.818 14.9121 216.998 15.166C217.182 15.416 217.4 15.6055 217.654 15.7344C217.908 15.8594 218.197 15.9219 218.521 15.9219C218.85 15.9219 219.141 15.8594 219.395 15.7344C219.648 15.6055 219.863 15.416 220.039 15.166C220.215 14.9121 220.348 14.6016 220.438 14.2344C220.531 13.8672 220.578 13.4453 220.578 12.9688ZM225.008 8.46875L224.867 14.4863H223.66L223.514 8.46875H225.008ZM223.473 16.332C223.473 16.1172 223.543 15.9375 223.684 15.793C223.828 15.6445 224.027 15.5703 224.281 15.5703C224.531 15.5703 224.729 15.6445 224.873 15.793C225.018 15.9375 225.09 16.1172 225.09 16.332C225.09 16.5391 225.018 16.7168 224.873 16.8652C224.729 17.0098 224.531 17.082 224.281 17.082C224.027 17.082 223.828 17.0098 223.684 16.8652C223.543 16.7168 223.473 16.5391 223.473 16.332Z" fill="url(#paint1_linear_26190_26636)"/>
<path d="M242.152 12.953C242.023 12.6979 241.866 12.4515 241.683 12.2503C241.555 12.1039 241.417 11.9666 241.298 11.8294C241.042 11.5549 240.74 11.3435 240.43 11.141C239.718 10.6626 238.927 10.4102 238.074 10.3113C237.556 10.261 237.039 10.2832 236.533 10.4053C236.433 10.4315 236.343 10.4669 236.234 10.484C236.324 10.4123 236.414 10.3407 236.495 10.278C236.811 10.0543 237.144 9.88522 237.506 9.76175C238.464 9.40824 239.433 9.29968 240.432 9.45438C241.222 9.57986 241.959 9.86806 242.634 10.2917C242.717 10.3378 242.79 10.3929 242.854 10.4389C242.908 10.4757 242.945 10.5123 243.017 10.513C243.036 10.5132 243.054 10.5315 243.063 10.5406C243.182 10.6415 243.319 10.7426 243.447 10.8526C243.456 10.8437 243.474 10.8257 243.483 10.8167C243.51 10.7716 243.546 10.7538 243.609 10.7635C243.664 10.764 243.7 10.7825 243.737 10.8192C243.792 10.8741 243.856 10.9382 243.911 10.9931C243.966 11.0481 244.002 11.1028 244.021 11.1755C244.04 11.2301 244.023 11.3025 244.059 11.3573C244.069 11.3664 244.051 11.3844 244.042 11.3934C244.105 11.4212 244.124 11.4939 244.07 11.5659C244.143 11.5304 244.143 11.5848 244.18 11.6214C244.226 11.6853 244.135 11.6844 244.126 11.7297C244.145 11.7299 244.154 11.7209 244.172 11.7211C244.208 11.7033 244.226 11.7035 244.254 11.7491C244.281 11.7947 244.272 11.8218 244.236 11.8577C244.227 11.8667 244.219 11.8938 244.21 11.9028L244.219 11.9119C244.228 11.903 244.246 11.9031 244.255 11.8942C244.291 11.8582 244.327 11.8767 244.346 11.9132C244.373 11.9588 244.374 11.9769 244.329 12.0037C244.32 12.0127 244.311 12.0216 244.302 12.0306C244.293 12.0396 244.293 12.0577 244.293 12.0577C244.302 12.0669 244.311 12.0579 244.32 12.0671C244.32 12.0671 244.329 12.0581 244.347 12.0583C244.437 12.0047 244.437 12.0047 244.493 12.1141C244.466 12.141 244.43 12.1588 244.403 12.1858L244.412 12.1949C244.448 12.1771 244.484 12.1593 244.52 12.1415C244.539 12.178 244.566 12.2055 244.576 12.2328C244.576 12.2509 244.531 12.2777 244.504 12.3046C244.504 12.3046 244.513 12.3138 244.504 12.3227C244.522 12.3229 244.54 12.305 244.558 12.3051C244.585 12.2963 244.603 12.2784 244.621 12.2604C244.649 12.2879 244.667 12.3243 244.695 12.3518C244.668 12.3787 244.632 12.3965 244.605 12.4235C244.632 12.4509 244.632 12.4509 244.749 12.3704C244.777 12.3979 244.795 12.4344 244.823 12.4618C244.796 12.4888 244.769 12.5157 244.733 12.5335C244.742 12.5427 244.742 12.5427 244.751 12.5518C244.796 12.525 244.823 12.4981 244.868 12.4713C244.896 12.4988 244.905 12.5261 244.932 12.5536C244.905 12.5805 244.887 12.5985 244.869 12.6164C244.869 12.6164 244.879 12.6256 244.87 12.6346C244.888 12.6347 244.906 12.6349 244.915 12.6259C244.996 12.5814 244.996 12.5814 245.06 12.6636C245.051 12.6726 245.033 12.6906 245.034 12.7087C245.034 12.7087 245.034 12.7087 245.043 12.7178C245.061 12.6999 245.079 12.7001 245.097 12.6821C245.142 12.6553 245.206 12.6831 245.215 12.7286C245.215 12.7467 245.206 12.7557 245.197 12.7828C245.197 12.7828 245.197 12.7828 245.207 12.792C245.252 12.7471 245.288 12.7655 245.316 12.8112C245.334 12.8295 245.37 12.848 245.398 12.8573C245.425 12.8666 245.452 12.8759 245.489 12.8763C245.561 12.877 245.625 12.9048 245.662 12.9777C245.671 12.9869 245.68 12.996 245.689 13.0052C245.735 13.0147 245.744 13.042 245.735 13.0872C245.817 13.1152 245.872 13.1883 245.855 13.2425C245.9 13.2339 245.937 13.2524 245.919 13.3066L245.928 13.3158C245.964 13.3343 245.983 13.3526 245.956 13.3977C246.001 13.4072 246.038 13.4257 246.02 13.4799C246.084 13.4896 246.093 13.5169 246.076 13.5711C246.121 13.5806 246.148 13.5899 246.149 13.6444C246.149 13.6444 246.149 13.6625 246.158 13.6535C246.203 13.663 246.204 13.6993 246.204 13.7356C246.259 13.7542 246.277 13.7725 246.259 13.8268C246.323 13.8365 246.341 13.8548 246.324 13.909C246.378 13.9277 246.443 14.0462 246.434 14.0914C246.443 14.1006 246.462 14.1008 246.462 14.1008C246.489 14.1464 246.517 14.2101 246.545 14.2557C246.563 14.2922 246.591 14.3196 246.609 14.3561C246.618 14.3834 246.628 14.4107 246.646 14.429C246.655 14.4381 246.674 14.4564 246.683 14.4837C246.702 14.5383 246.72 14.5929 246.748 14.6385C246.766 14.675 246.794 14.7206 246.812 14.757C246.84 14.8026 246.85 14.8481 246.877 14.8937C246.896 14.9483 246.933 15.003 246.951 15.0576C246.998 15.1759 247.053 15.2853 247.091 15.3945C247.119 15.4945 247.156 15.6036 247.193 15.6947C247.193 15.7128 247.203 15.722 247.203 15.7401C247.185 15.8125 247.213 15.8762 247.268 15.9312C247.296 15.9586 247.314 15.9951 247.333 16.0315C247.36 16.0771 247.361 16.1316 247.316 16.1765C247.289 16.2034 247.289 16.2397 247.335 16.2492C247.416 16.2772 247.463 16.3592 247.481 16.432C247.491 16.4593 247.455 16.4952 247.437 16.5313C247.428 16.5584 247.419 16.5674 247.401 16.5853C247.429 16.5947 247.438 16.6038 247.465 16.6132C247.583 16.6415 247.657 16.751 247.622 16.8595C247.622 16.8776 247.604 16.8956 247.595 16.9046C247.541 16.9403 247.541 16.9766 247.596 16.9953C247.65 17.0139 247.687 17.0506 247.724 17.1053C247.751 17.1509 247.743 17.1962 247.707 17.2502C247.662 17.3133 247.662 17.3314 247.726 17.3592C247.826 17.4237 247.854 17.4874 247.828 17.6232C247.802 17.7046 247.776 17.7859 247.749 17.8673C247.732 17.9215 247.686 17.9301 247.632 17.9115C247.641 17.9388 247.65 17.9661 247.66 17.9934C247.669 18.0388 247.679 18.0842 247.661 18.1203C247.599 18.2739 247.537 18.4274 247.475 18.581C247.351 18.8881 247.3 19.2141 247.248 19.54C247.231 19.6668 247.186 19.6754 247.077 19.62C246.986 19.5647 246.885 19.5003 246.794 19.445C246.776 19.4267 246.758 19.4265 246.721 19.4261C246.549 19.4154 246.386 19.4138 246.222 19.3941C246.122 19.3841 246.022 19.3378 245.922 19.2915C245.64 19.189 245.448 18.9786 245.282 18.7231C245.153 18.5224 245.096 18.2861 245.103 18.0413C245.102 17.8962 245.155 17.7516 245.171 17.6067C245.188 17.4799 245.232 17.3625 245.313 17.2635C245.385 17.1735 245.402 17.083 245.437 16.9745C245.473 16.866 245.453 16.757 245.443 16.6572C245.432 16.4667 245.34 16.3025 245.194 16.1742C245.112 16.1099 245.02 16.0365 244.938 15.9722C244.911 15.9448 244.892 15.9265 244.892 15.8902C244.891 15.8358 244.882 15.7903 244.89 15.7451C244.933 15.4825 244.868 15.2552 244.748 15.0273C244.692 14.918 244.619 14.8266 244.536 14.7261C244.426 14.598 244.289 14.5333 244.135 14.4864C244.062 14.4676 244.062 14.4676 244.07 14.3861C244.087 14.2774 244.105 14.1688 244.103 14.0599C244.101 13.8241 243.999 13.6146 243.835 13.4498C243.78 13.3949 243.707 13.3579 243.634 13.3209C243.406 13.219 243.17 13.1442 242.907 13.2051C242.735 13.2488 242.582 13.3108 242.447 13.4274C242.375 13.4811 242.33 13.4716 242.275 13.4167C242.192 13.298 242.109 13.1793 242.09 13.034C242.098 13.0069 242.098 12.9706 242.152 12.953ZM246.95 18.6848C246.977 18.6397 247.039 18.5587 247.084 18.4775C247.2 18.27 247.216 18.0344 247.159 17.7981C247.131 17.68 247.084 17.5616 246.993 17.4882C246.801 17.3141 246.591 17.2304 246.337 17.228C246.111 17.2349 245.912 17.3055 245.741 17.4399C245.489 17.6551 245.374 17.9351 245.395 18.2618C245.396 18.3343 245.415 18.407 245.452 18.4799C245.572 18.7078 245.755 18.8728 246 18.9386C246.337 19.0416 246.644 18.9539 246.95 18.6848Z" fill="#F41795"/>
<path d="M265.617 8.46875V17H264.152V9.64062H260.361V17H258.896V8.46875H265.617ZM266.977 13.9004V13.7656C266.977 13.3086 267.043 12.8848 267.176 12.4941C267.309 12.0996 267.5 11.7578 267.75 11.4688C268.004 11.1758 268.312 10.9492 268.676 10.7891C269.043 10.625 269.457 10.543 269.918 10.543C270.383 10.543 270.797 10.625 271.16 10.7891C271.527 10.9492 271.838 11.1758 272.092 11.4688C272.346 11.7578 272.539 12.0996 272.672 12.4941C272.805 12.8848 272.871 13.3086 272.871 13.7656V13.9004C272.871 14.3574 272.805 14.7812 272.672 15.1719C272.539 15.5625 272.346 15.9043 272.092 16.1973C271.838 16.4863 271.529 16.7129 271.166 16.877C270.803 17.0371 270.391 17.1172 269.93 17.1172C269.465 17.1172 269.049 17.0371 268.682 16.877C268.318 16.7129 268.01 16.4863 267.756 16.1973C267.502 15.9043 267.309 15.5625 267.176 15.1719C267.043 14.7812 266.977 14.3574 266.977 13.9004ZM268.389 13.7656V13.9004C268.389 14.1855 268.418 14.4551 268.477 14.709C268.535 14.9629 268.627 15.1855 268.752 15.377C268.877 15.5684 269.037 15.7188 269.232 15.8281C269.428 15.9375 269.66 15.9922 269.93 15.9922C270.191 15.9922 270.418 15.9375 270.609 15.8281C270.805 15.7188 270.965 15.5684 271.09 15.377C271.215 15.1855 271.307 14.9629 271.365 14.709C271.428 14.4551 271.459 14.1855 271.459 13.9004V13.7656C271.459 13.4844 271.428 13.2188 271.365 12.9688C271.307 12.7148 271.213 12.4902 271.084 12.2949C270.959 12.0996 270.799 11.9473 270.604 11.8379C270.412 11.7246 270.184 11.668 269.918 11.668C269.652 11.668 269.422 11.7246 269.227 11.8379C269.035 11.9473 268.877 12.0996 268.752 12.2949C268.627 12.4902 268.535 12.7148 268.477 12.9688C268.418 13.2188 268.389 13.4844 268.389 13.7656ZM275.578 10.6602V17H274.166V10.6602H275.578ZM279.715 10.6602L276.861 14.4746H275.25L275.062 13.1973H276.24L277.951 10.6602H279.715ZM278.062 17L276.152 14.2344L277.266 13.4316L279.92 17H278.062ZM282.527 16.3086L284.25 10.6602H285.762L283.219 17.9668C283.16 18.123 283.084 18.293 282.99 18.4766C282.896 18.6602 282.773 18.834 282.621 18.998C282.473 19.166 282.287 19.3008 282.064 19.4023C281.842 19.5078 281.572 19.5605 281.256 19.5605C281.131 19.5605 281.01 19.5488 280.893 19.5254C280.779 19.5059 280.672 19.4844 280.57 19.4609L280.564 18.3828C280.604 18.3867 280.65 18.3906 280.705 18.3945C280.764 18.3984 280.811 18.4004 280.846 18.4004C281.08 18.4004 281.275 18.3711 281.432 18.3125C281.588 18.2578 281.715 18.168 281.812 18.043C281.914 17.918 282 17.75 282.07 17.5391L282.527 16.3086ZM281.555 10.6602L283.061 15.4062L283.312 16.8945L282.334 17.1465L280.031 10.6602H281.555ZM290.824 10.6602V11.7852H287.695V10.6602H290.824ZM288.029 10.6602V17H286.617V10.6602H288.029ZM291.932 10.6602V17H290.514V10.6602H291.932ZM297 15.7285V12.7051C297 12.4785 296.959 12.2832 296.877 12.1191C296.795 11.9551 296.67 11.8281 296.502 11.7383C296.338 11.6484 296.131 11.6035 295.881 11.6035C295.65 11.6035 295.451 11.6426 295.283 11.7207C295.115 11.7988 294.984 11.9043 294.891 12.0371C294.797 12.1699 294.75 12.3203 294.75 12.4883H293.344C293.344 12.2383 293.404 11.9961 293.525 11.7617C293.646 11.5273 293.822 11.3184 294.053 11.1348C294.283 10.9512 294.559 10.8066 294.879 10.7012C295.199 10.5957 295.559 10.543 295.957 10.543C296.434 10.543 296.855 10.623 297.223 10.7832C297.594 10.9434 297.885 11.1855 298.096 11.5098C298.311 11.8301 298.418 12.2324 298.418 12.7168V15.5352C298.418 15.8242 298.438 16.084 298.477 16.3145C298.52 16.541 298.58 16.7383 298.658 16.9062V17H297.211C297.145 16.8477 297.092 16.6543 297.053 16.4199C297.018 16.1816 297 15.9512 297 15.7285ZM297.205 13.1445L297.217 14.0176H296.203C295.941 14.0176 295.711 14.043 295.512 14.0938C295.312 14.1406 295.146 14.2109 295.014 14.3047C294.881 14.3984 294.781 14.5117 294.715 14.6445C294.648 14.7773 294.615 14.9277 294.615 15.0957C294.615 15.2637 294.654 15.418 294.732 15.5586C294.811 15.6953 294.924 15.8027 295.072 15.8809C295.225 15.959 295.408 15.998 295.623 15.998C295.912 15.998 296.164 15.9395 296.379 15.8223C296.598 15.7012 296.77 15.5547 296.895 15.3828C297.02 15.207 297.086 15.041 297.094 14.8848L297.551 15.5117C297.504 15.6719 297.424 15.8438 297.311 16.0273C297.197 16.2109 297.049 16.3867 296.865 16.5547C296.686 16.7188 296.469 16.8535 296.215 16.959C295.965 17.0645 295.676 17.1172 295.348 17.1172C294.934 17.1172 294.564 17.0352 294.24 16.8711C293.916 16.7031 293.662 16.4785 293.479 16.1973C293.295 15.9121 293.203 15.5898 293.203 15.2305C293.203 14.8945 293.266 14.5977 293.391 14.3398C293.52 14.0781 293.707 13.8594 293.953 13.6836C294.203 13.5078 294.508 13.375 294.867 13.2852C295.227 13.1914 295.637 13.1445 296.098 13.1445H297.205ZM301.354 14.9375L303.844 10.6602H305.256V17H303.844V12.7168L301.354 17H299.941V10.6602H301.354V14.9375ZM303.469 8.22266H304.518C304.518 8.54688 304.439 8.83398 304.283 9.08398C304.131 9.33008 303.912 9.52344 303.627 9.66406C303.346 9.80469 303.01 9.875 302.619 9.875C302.029 9.875 301.562 9.72266 301.219 9.41797C300.879 9.10938 300.709 8.71094 300.709 8.22266H301.758C301.758 8.44141 301.822 8.63477 301.951 8.80273C302.084 8.9668 302.307 9.04883 302.619 9.04883C302.928 9.04883 303.146 8.9668 303.275 8.80273C303.404 8.63477 303.469 8.44141 303.469 8.22266ZM312.328 15.9922C312.559 15.9922 312.766 15.9473 312.949 15.8574C313.137 15.7637 313.287 15.6348 313.4 15.4707C313.518 15.3066 313.582 15.1172 313.594 14.9023H314.924C314.916 15.3125 314.795 15.6855 314.561 16.0215C314.326 16.3574 314.016 16.625 313.629 16.8242C313.242 17.0195 312.814 17.1172 312.346 17.1172C311.861 17.1172 311.439 17.0352 311.08 16.8711C310.721 16.7031 310.422 16.4727 310.184 16.1797C309.945 15.8867 309.766 15.5488 309.645 15.166C309.527 14.7832 309.469 14.373 309.469 13.9355V13.7305C309.469 13.293 309.527 12.8828 309.645 12.5C309.766 12.1133 309.945 11.7734 310.184 11.4805C310.422 11.1875 310.721 10.959 311.08 10.7949C311.439 10.627 311.859 10.543 312.34 10.543C312.848 10.543 313.293 10.6445 313.676 10.8477C314.059 11.0469 314.359 11.3262 314.578 11.6855C314.801 12.041 314.916 12.4551 314.924 12.9277H313.594C313.582 12.6934 313.523 12.4824 313.418 12.2949C313.316 12.1035 313.172 11.9512 312.984 11.8379C312.801 11.7246 312.58 11.668 312.322 11.668C312.037 11.668 311.801 11.7266 311.613 11.8438C311.426 11.957 311.279 12.1133 311.174 12.3125C311.068 12.5078 310.992 12.7285 310.945 12.9746C310.902 13.2168 310.881 13.4688 310.881 13.7305V13.9355C310.881 14.1973 310.902 14.4512 310.945 14.6973C310.988 14.9434 311.062 15.1641 311.168 15.3594C311.277 15.5508 311.426 15.7051 311.613 15.8223C311.801 15.9355 312.039 15.9922 312.328 15.9922ZM317.531 10.6602V17H316.119V10.6602H317.531ZM321.668 10.6602L318.814 14.4746H317.203L317.016 13.1973H318.193L319.904 10.6602H321.668ZM320.016 17L318.105 14.2344L319.219 13.4316L321.873 17H320.016ZM324.1 14.9375L326.59 10.6602H328.002V17H326.59V12.7168L324.1 17H322.688V10.6602H324.1V14.9375ZM333.826 13.3086V14.4219H330.545V13.3086H333.826ZM330.955 10.6602V17H329.543V10.6602H330.955ZM334.846 10.6602V17H333.434V10.6602H334.846ZM343.107 15.2891L344.994 10.6602H346.219L343.588 17H342.627L340.002 10.6602H341.227L343.107 15.2891ZM340.863 10.6602V17H339.451V10.6602H340.863ZM345.352 17V10.6602H346.77V17H345.352ZM351.146 17.1172C350.678 17.1172 350.254 17.041 349.875 16.8887C349.5 16.7324 349.18 16.5156 348.914 16.2383C348.652 15.9609 348.451 15.6348 348.311 15.2598C348.17 14.8848 348.1 14.4805 348.1 14.0469V13.8125C348.1 13.3164 348.172 12.8672 348.316 12.4648C348.461 12.0625 348.662 11.7188 348.92 11.4336C349.178 11.1445 349.482 10.9238 349.834 10.7715C350.186 10.6191 350.566 10.543 350.977 10.543C351.43 10.543 351.826 10.6191 352.166 10.7715C352.506 10.9238 352.787 11.1387 353.01 11.416C353.236 11.6895 353.404 12.0156 353.514 12.3945C353.627 12.7734 353.684 13.1914 353.684 13.6484V14.252H348.785V13.2383H352.289V13.127C352.281 12.873 352.23 12.6348 352.137 12.4121C352.047 12.1895 351.908 12.0098 351.721 11.873C351.533 11.7363 351.283 11.668 350.971 11.668C350.736 11.668 350.527 11.7188 350.344 11.8203C350.164 11.918 350.014 12.0605 349.893 12.248C349.771 12.4355 349.678 12.6621 349.611 12.9277C349.549 13.1895 349.518 13.4844 349.518 13.8125V14.0469C349.518 14.3242 349.555 14.582 349.629 14.8203C349.707 15.0547 349.82 15.2598 349.969 15.4355C350.117 15.6113 350.297 15.75 350.508 15.8516C350.719 15.9492 350.959 15.998 351.229 15.998C351.568 15.998 351.871 15.9297 352.137 15.793C352.402 15.6562 352.633 15.4629 352.828 15.2129L353.572 15.9336C353.436 16.1328 353.258 16.3242 353.039 16.5078C352.82 16.6875 352.553 16.834 352.236 16.9473C351.924 17.0605 351.561 17.1172 351.146 17.1172ZM359.877 10.6602V17H358.465V10.6602H359.877ZM359.279 13.4668V14.5859C359.107 14.6602 358.914 14.7285 358.699 14.791C358.488 14.8496 358.266 14.8984 358.031 14.9375C357.797 14.9727 357.561 14.9902 357.322 14.9902C356.764 14.9902 356.281 14.9043 355.875 14.7324C355.473 14.5605 355.162 14.2969 354.943 13.9414C354.729 13.582 354.621 13.127 354.621 12.5762V10.6543H356.027V12.5762C356.027 12.8926 356.074 13.1445 356.168 13.332C356.266 13.5195 356.41 13.6543 356.602 13.7363C356.793 13.8184 357.033 13.8594 357.322 13.8594C357.564 13.8594 357.793 13.8438 358.008 13.8125C358.223 13.7773 358.436 13.7305 358.646 13.6719C358.857 13.6133 359.068 13.5449 359.279 13.4668ZM364.324 10.6602V17H362.906V10.6602H364.324ZM366.404 10.6602V11.7734H360.861V10.6602H366.404ZM368.396 12.6758H370.266C370.812 12.6758 371.277 12.7676 371.66 12.9512C372.043 13.1348 372.334 13.3906 372.533 13.7188C372.736 14.043 372.838 14.4141 372.838 14.832C372.838 15.1406 372.781 15.4277 372.668 15.6934C372.555 15.9551 372.387 16.1836 372.164 16.3789C371.945 16.5742 371.676 16.7266 371.355 16.8359C371.039 16.9453 370.676 17 370.266 17H367.459V10.6602H368.877V15.8809H370.266C370.547 15.8809 370.771 15.832 370.939 15.7344C371.107 15.6367 371.229 15.5098 371.303 15.3535C371.381 15.1973 371.42 15.0312 371.42 14.8555C371.42 14.6758 371.381 14.5059 371.303 14.3457C371.229 14.1855 371.107 14.0547 370.939 13.9531C370.771 13.8516 370.547 13.8008 370.266 13.8008H368.396V12.6758ZM375.334 10.6602V17H373.922V10.6602H375.334Z" fill="white"/>
<path d="M380.465 8.46875H381.777L384.244 15.0488L386.705 8.46875H388.018L384.76 17H383.717L380.465 8.46875ZM379.867 8.46875H381.115L381.332 14.1641V17H379.867V8.46875ZM387.367 8.46875H388.621V17H387.15V14.1641L387.367 8.46875ZM395.822 8.46875V9.64062H391.861V17H390.396V8.46875H395.822ZM402.684 12.0312V13.1973H398.154V12.0312H402.684ZM398.518 8.46875V17H397.047V8.46875H398.518ZM403.814 8.46875V17H402.35V8.46875H403.814ZM412.369 12.5V12.9688C412.369 13.6133 412.285 14.1914 412.117 14.7031C411.949 15.2148 411.709 15.6504 411.396 16.0098C411.088 16.3691 410.717 16.6445 410.283 16.8359C409.85 17.0234 409.369 17.1172 408.842 17.1172C408.318 17.1172 407.84 17.0234 407.406 16.8359C406.977 16.6445 406.604 16.3691 406.287 16.0098C405.971 15.6504 405.725 15.2148 405.549 14.7031C405.377 14.1914 405.291 13.6133 405.291 12.9688V12.5C405.291 11.8555 405.377 11.2793 405.549 10.7715C405.721 10.2598 405.963 9.82422 406.275 9.46484C406.592 9.10156 406.965 8.82617 407.395 8.63867C407.828 8.44727 408.307 8.35156 408.83 8.35156C409.357 8.35156 409.838 8.44727 410.271 8.63867C410.705 8.82617 411.078 9.10156 411.391 9.46484C411.703 9.82422 411.943 10.2598 412.111 10.7715C412.283 11.2793 412.369 11.8555 412.369 12.5ZM410.898 12.9688V12.4883C410.898 12.0117 410.852 11.5918 410.758 11.2285C410.668 10.8613 410.533 10.5547 410.354 10.3086C410.178 10.0586 409.961 9.87109 409.703 9.74609C409.445 9.61719 409.154 9.55273 408.83 9.55273C408.506 9.55273 408.217 9.61719 407.963 9.74609C407.709 9.87109 407.492 10.0586 407.312 10.3086C407.137 10.5547 407.002 10.8613 406.908 11.2285C406.814 11.5918 406.768 12.0117 406.768 12.4883V12.9688C406.768 13.4453 406.814 13.8672 406.908 14.2344C407.002 14.6016 407.139 14.9121 407.318 15.166C407.502 15.416 407.721 15.6055 407.975 15.7344C408.229 15.8594 408.518 15.9219 408.842 15.9219C409.17 15.9219 409.461 15.8594 409.715 15.7344C409.969 15.6055 410.184 15.416 410.359 15.166C410.535 14.9121 410.668 14.6016 410.758 14.2344C410.852 13.8672 410.898 13.4453 410.898 12.9688ZM417.039 13.1445H414.865L414.854 12.0723H416.752C417.072 12.0723 417.344 12.0254 417.566 11.9316C417.793 11.834 417.965 11.6953 418.082 11.5156C418.199 11.332 418.258 11.1113 418.258 10.8535C418.258 10.5684 418.203 10.3359 418.094 10.1562C417.984 9.97656 417.816 9.8457 417.59 9.76367C417.367 9.68164 417.082 9.64062 416.734 9.64062H415.311V17H413.84V8.46875H416.734C417.203 8.46875 417.621 8.51367 417.988 8.60352C418.359 8.69336 418.674 8.83398 418.932 9.02539C419.193 9.21289 419.391 9.45117 419.523 9.74023C419.66 10.0293 419.729 10.373 419.729 10.7715C419.729 11.123 419.645 11.4453 419.477 11.7383C419.309 12.0273 419.061 12.2637 418.732 12.4473C418.404 12.6309 417.996 12.7402 417.508 12.7754L417.039 13.1445ZM416.975 17H414.402L415.064 15.834H416.975C417.307 15.834 417.584 15.7793 417.807 15.6699C418.029 15.5566 418.195 15.4023 418.305 15.207C418.418 15.0078 418.475 14.7754 418.475 14.5098C418.475 14.2324 418.426 13.9922 418.328 13.7891C418.23 13.582 418.076 13.4238 417.865 13.3145C417.654 13.2012 417.379 13.1445 417.039 13.1445H415.387L415.398 12.0723H417.549L417.883 12.4766C418.352 12.4922 418.736 12.5957 419.037 12.7871C419.342 12.9785 419.568 13.2266 419.717 13.5312C419.865 13.8359 419.939 14.1641 419.939 14.5156C419.939 15.0586 419.82 15.5137 419.582 15.8809C419.348 16.248 419.01 16.5273 418.568 16.7188C418.127 16.9062 417.596 17 416.975 17ZM427.006 15.834V17H422.477V15.834H427.006ZM422.893 8.46875V17H421.422V8.46875H422.893ZM426.414 12.0312V13.1797H422.477V12.0312H426.414ZM426.977 8.46875V9.64062H422.477V8.46875H426.977ZM433.844 12.0312V13.1973H429.314V12.0312H433.844ZM429.678 8.46875V17H428.207V8.46875H429.678ZM434.975 8.46875V17H433.51V8.46875H434.975ZM442.363 12.0312V13.1973H437.834V12.0312H442.363ZM438.197 8.46875V17H436.727V8.46875H438.197ZM443.494 8.46875V17H442.029V8.46875H443.494ZM452.049 12.5V12.9688C452.049 13.6133 451.965 14.1914 451.797 14.7031C451.629 15.2148 451.389 15.6504 451.076 16.0098C450.768 16.3691 450.396 16.6445 449.963 16.8359C449.529 17.0234 449.049 17.1172 448.521 17.1172C447.998 17.1172 447.52 17.0234 447.086 16.8359C446.656 16.6445 446.283 16.3691 445.967 16.0098C445.65 15.6504 445.404 15.2148 445.229 14.7031C445.057 14.1914 444.971 13.6133 444.971 12.9688V12.5C444.971 11.8555 445.057 11.2793 445.229 10.7715C445.4 10.2598 445.643 9.82422 445.955 9.46484C446.271 9.10156 446.645 8.82617 447.074 8.63867C447.508 8.44727 447.986 8.35156 448.51 8.35156C449.037 8.35156 449.518 8.44727 449.951 8.63867C450.385 8.82617 450.758 9.10156 451.07 9.46484C451.383 9.82422 451.623 10.2598 451.791 10.7715C451.963 11.2793 452.049 11.8555 452.049 12.5ZM450.578 12.9688V12.4883C450.578 12.0117 450.531 11.5918 450.438 11.2285C450.348 10.8613 450.213 10.5547 450.033 10.3086C449.857 10.0586 449.641 9.87109 449.383 9.74609C449.125 9.61719 448.834 9.55273 448.51 9.55273C448.186 9.55273 447.896 9.61719 447.643 9.74609C447.389 9.87109 447.172 10.0586 446.992 10.3086C446.816 10.5547 446.682 10.8613 446.588 11.2285C446.494 11.5918 446.447 12.0117 446.447 12.4883V12.9688C446.447 13.4453 446.494 13.8672 446.588 14.2344C446.682 14.6016 446.818 14.9121 446.998 15.166C447.182 15.416 447.4 15.6055 447.654 15.7344C447.908 15.8594 448.197 15.9219 448.521 15.9219C448.85 15.9219 449.141 15.8594 449.395 15.7344C449.648 15.6055 449.863 15.416 450.039 15.166C450.215 14.9121 450.348 14.6016 450.438 14.2344C450.531 13.8672 450.578 13.4453 450.578 12.9688ZM455.008 8.46875L454.867 14.4863H453.66L453.514 8.46875H455.008ZM453.473 16.332C453.473 16.1172 453.543 15.9375 453.684 15.793C453.828 15.6445 454.027 15.5703 454.281 15.5703C454.531 15.5703 454.729 15.6445 454.873 15.793C455.018 15.9375 455.09 16.1172 455.09 16.332C455.09 16.5391 455.018 16.7168 454.873 16.8652C454.729 17.0098 454.531 17.082 454.281 17.082C454.027 17.082 453.828 17.0098 453.684 16.8652C453.543 16.7168 453.473 16.5391 453.473 16.332Z" fill="url(#paint2_linear_26190_26636)"/>
<defs>
<linearGradient id="paint0_linear_26190_26636" x1="230" y1="0" x2="230" y2="28" gradientUnits="userSpaceOnUse">
<stop stop-color="#07051A"/>
<stop offset="1" stop-color="#020B34"/>
</linearGradient>
<linearGradient id="paint1_linear_26190_26636" x1="149" y1="13" x2="225.595" y2="23.0792" gradientUnits="userSpaceOnUse">
<stop stop-color="#F7FF01"/>
<stop offset="1" stop-color="#F89251"/>
</linearGradient>
<linearGradient id="paint2_linear_26190_26636" x1="379" y1="13" x2="455.595" y2="23.0792" gradientUnits="userSpaceOnUse">
<stop stop-color="#F7FF01"/>
<stop offset="1" stop-color="#F89251"/>
</linearGradient>
</defs>
</svg>
