<svg width="460" height="28" viewBox="0 0 460 28" fill="none" xmlns="http://www.w3.org/2000/svg">
<rect width="460" height="28" fill="url(#paint0_linear_26190_26681)"/>
<path d="M23.1523 12.953C23.0229 12.6979 22.8664 12.4515 22.6831 12.2503C22.5547 12.1039 22.4174 11.9666 22.2982 11.8294C22.0416 11.5549 21.7403 11.3435 21.4301 11.141C20.7182 10.6626 19.9268 10.4102 19.0735 10.3113C18.5562 10.261 18.0395 10.2832 17.5329 10.4053C17.4334 10.4315 17.343 10.4669 17.2344 10.484C17.3244 10.4123 17.4144 10.3407 17.4954 10.278C17.8106 10.0543 18.1445 9.88522 18.506 9.76175C19.4638 9.40824 20.433 9.29968 21.432 9.45438C22.2221 9.57986 22.9594 9.86806 23.6345 10.2917C23.7166 10.3378 23.7896 10.3929 23.8535 10.4389C23.9083 10.4757 23.9449 10.5123 24.0175 10.513C24.0356 10.5132 24.0539 10.5315 24.0631 10.5406C24.1819 10.6415 24.3189 10.7426 24.4469 10.8526C24.4559 10.8437 24.4739 10.8257 24.4829 10.8167C24.5096 10.7716 24.5457 10.7538 24.6093 10.7635C24.6637 10.764 24.7002 10.7825 24.7368 10.8192C24.7917 10.8741 24.8558 10.9382 24.9108 10.9931C24.9657 11.0481 25.0025 11.1028 25.0213 11.1755C25.04 11.2301 25.0226 11.3025 25.0593 11.3573C25.0685 11.3664 25.0505 11.3844 25.0416 11.3934C25.1053 11.4212 25.1241 11.4939 25.0704 11.5659C25.1426 11.5304 25.1431 11.5848 25.1798 11.6214C25.2257 11.6853 25.135 11.6844 25.1264 11.7297C25.1445 11.7299 25.1535 11.7209 25.1717 11.7211C25.2078 11.7033 25.2259 11.7035 25.2535 11.7491C25.2812 11.7947 25.2724 11.8218 25.2365 11.8577C25.2275 11.8667 25.2187 11.8938 25.2097 11.9028L25.2188 11.9119C25.2278 11.903 25.246 11.9031 25.2549 11.8942C25.2909 11.8582 25.3273 11.8767 25.3458 11.9132C25.3734 11.9588 25.3736 11.9769 25.3285 12.0037C25.3196 12.0127 25.3106 12.0216 25.3016 12.0306C25.2926 12.0396 25.2928 12.0577 25.2928 12.0577C25.3019 12.0669 25.3109 12.0579 25.3201 12.0671C25.3201 12.0671 25.3291 12.0581 25.3472 12.0583C25.4374 12.0047 25.4374 12.0047 25.4928 12.1141C25.4659 12.141 25.4298 12.1588 25.4028 12.1858L25.412 12.1949C25.4481 12.1771 25.4842 12.1593 25.5203 12.1415C25.5388 12.178 25.5662 12.2055 25.5756 12.2328C25.5757 12.2509 25.5307 12.2777 25.5037 12.3046C25.5037 12.3046 25.5129 12.3138 25.5039 12.3227C25.522 12.3229 25.54 12.305 25.5581 12.3051C25.5853 12.2963 25.6032 12.2784 25.6212 12.2604C25.6486 12.2879 25.6671 12.3243 25.6946 12.3518C25.6677 12.3787 25.6316 12.3965 25.6046 12.4235C25.6321 12.4509 25.6321 12.4509 25.7492 12.3704C25.7767 12.3979 25.7951 12.4344 25.8226 12.4618C25.7957 12.4888 25.7687 12.5157 25.7326 12.5335C25.7418 12.5427 25.7418 12.5427 25.7509 12.5518C25.796 12.525 25.823 12.4981 25.868 12.4713C25.8955 12.4988 25.9048 12.5261 25.9323 12.5536C25.9054 12.5805 25.8874 12.5985 25.8694 12.6164C25.8694 12.6164 25.8786 12.6256 25.8696 12.6346C25.8878 12.6347 25.9059 12.6349 25.9149 12.6259C25.9961 12.5814 25.9961 12.5814 26.0603 12.6636C26.0513 12.6726 26.0334 12.6906 26.0336 12.7087C26.0336 12.7087 26.0336 12.7087 26.0427 12.7178C26.0607 12.6999 26.0788 12.7001 26.0968 12.6821C26.1419 12.6553 26.2056 12.6831 26.2151 12.7286C26.2153 12.7467 26.2063 12.7557 26.1975 12.7828C26.1975 12.7828 26.1975 12.7828 26.2066 12.792C26.2516 12.7471 26.288 12.7655 26.3156 12.8112C26.334 12.8295 26.3704 12.848 26.3977 12.8573C26.425 12.8666 26.4523 12.8759 26.4886 12.8763C26.5611 12.877 26.6249 12.9048 26.6618 12.9777C26.671 12.9869 26.6801 12.996 26.6893 13.0052C26.7347 13.0147 26.7441 13.042 26.7354 13.0872C26.8173 13.1152 26.8724 13.1883 26.8548 13.2425C26.9001 13.2339 26.9365 13.2524 26.9189 13.3066L26.928 13.3158C26.9645 13.3343 26.9828 13.3526 26.956 13.3977C27.0015 13.4072 27.0379 13.4257 27.0203 13.4799C27.0839 13.4896 27.0932 13.5169 27.0756 13.5711C27.121 13.5806 27.1483 13.5899 27.1488 13.6444C27.1488 13.6444 27.149 13.6625 27.158 13.6535C27.2034 13.663 27.2038 13.6993 27.2041 13.7356C27.2587 13.7542 27.277 13.7725 27.2594 13.8268C27.323 13.8365 27.3413 13.8548 27.3237 13.909C27.3783 13.9277 27.4429 14.0462 27.4342 14.0914C27.4434 14.1006 27.4615 14.1008 27.4615 14.1008C27.4892 14.1464 27.517 14.2101 27.5446 14.2557C27.5631 14.2922 27.5906 14.3196 27.6091 14.3561C27.6184 14.3834 27.6277 14.4107 27.6461 14.429C27.6552 14.4381 27.6735 14.4564 27.6829 14.4837C27.7015 14.5383 27.7202 14.5929 27.7478 14.6385C27.7663 14.675 27.7939 14.7206 27.8124 14.757C27.8401 14.8026 27.8496 14.8481 27.8772 14.8937C27.8959 14.9483 27.9327 15.003 27.9513 15.0576C27.9978 15.1759 28.0533 15.2853 28.0906 15.3945C28.1188 15.4945 28.1561 15.6036 28.1932 15.6947C28.1934 15.7128 28.2026 15.722 28.2027 15.7401C28.1853 15.8125 28.2131 15.8762 28.2681 15.9312C28.2955 15.9586 28.314 15.9951 28.3325 16.0315C28.3601 16.0771 28.3607 16.1316 28.3158 16.1765C28.2888 16.2034 28.2892 16.2397 28.3346 16.2492C28.4165 16.2772 28.4626 16.3592 28.4814 16.432C28.4908 16.4593 28.4548 16.4952 28.4371 16.5313C28.4282 16.5584 28.4193 16.5674 28.4013 16.5853C28.4286 16.5947 28.4378 16.6038 28.465 16.6132C28.5832 16.6415 28.6568 16.751 28.6216 16.8595C28.6217 16.8776 28.6038 16.8956 28.5948 16.9046C28.5407 16.9403 28.5411 16.9766 28.5957 16.9953C28.6503 17.0139 28.6869 17.0506 28.7237 17.1053C28.7513 17.1509 28.7427 17.1962 28.7069 17.2502C28.6622 17.3133 28.6624 17.3314 28.7261 17.3592C28.8265 17.4237 28.8543 17.4874 28.8284 17.6232C28.802 17.7046 28.7756 17.7859 28.7491 17.8673C28.7315 17.9215 28.6863 17.9301 28.6317 17.9115C28.641 17.9388 28.6504 17.9661 28.6597 17.9934C28.6692 18.0388 28.6787 18.0842 28.6609 18.1203C28.5989 18.2739 28.5369 18.4274 28.4749 18.581C28.3509 18.8881 28.2996 19.2141 28.2484 19.54C28.2315 19.6668 28.1862 19.6754 28.0768 19.62C27.9856 19.5647 27.8853 19.5003 27.7941 19.445C27.7757 19.4267 27.7576 19.4265 27.7213 19.4261C27.5489 19.4154 27.3857 19.4138 27.2223 19.3941C27.1224 19.3841 27.0222 19.3378 26.9221 19.2915C26.64 19.189 26.4475 18.9786 26.2818 18.7231C26.153 18.5224 26.0963 18.2861 26.103 18.0413C26.1016 17.8962 26.1546 17.7516 26.1713 17.6067C26.1883 17.4799 26.2325 17.3625 26.3131 17.2635C26.3848 17.1735 26.4021 17.083 26.4373 16.9745C26.4725 16.866 26.4533 16.757 26.4433 16.6572C26.4324 16.4667 26.3402 16.3025 26.1938 16.1742C26.1116 16.1099 26.0202 16.0365 25.938 15.9722C25.9105 15.9448 25.8922 15.9265 25.8919 15.8902C25.8913 15.8358 25.8818 15.7903 25.8905 15.7451C25.9333 15.4825 25.8676 15.2552 25.7475 15.0273C25.6921 14.918 25.6187 14.8266 25.5361 14.7261C25.426 14.598 25.2894 14.5333 25.1348 14.4864C25.0621 14.4676 25.0621 14.4676 25.0703 14.3861C25.0874 14.2774 25.1045 14.1688 25.1035 14.0599C25.1012 13.8241 24.9995 13.6146 24.8346 13.4498C24.7797 13.3949 24.7068 13.3579 24.6339 13.3209C24.4062 13.219 24.1697 13.1442 23.9074 13.2051C23.7355 13.2488 23.5819 13.3108 23.447 13.4274C23.375 13.4811 23.3296 13.4716 23.2746 13.4167C23.1919 13.298 23.1091 13.1793 23.0896 13.034C23.0984 13.0069 23.0981 12.9706 23.1523 12.953ZM27.95 18.6848C27.9767 18.6397 28.0394 18.5587 28.084 18.4775C28.1999 18.27 28.2157 18.0344 28.1591 17.7981C28.1307 17.68 28.0842 17.5616 27.9929 17.4882C27.8008 17.3141 27.5914 17.2304 27.3375 17.228C27.1108 17.2349 26.912 17.3055 26.741 17.4399C26.4892 17.6551 26.374 17.9351 26.3953 18.2618C26.396 18.3343 26.4148 18.407 26.4518 18.4799C26.5719 18.7078 26.7548 18.8728 27.0003 18.9386C27.3368 19.0416 27.6442 18.9539 27.95 18.6848Z" fill="#F41795"/>
<path d="M63.0664 14.1445H60.8926L60.8809 13.0723H62.7793C63.0996 13.0723 63.3711 13.0254 63.5938 12.9316C63.8203 12.834 63.9922 12.6953 64.1094 12.5156C64.2266 12.332 64.2852 12.1113 64.2852 11.8535C64.2852 11.5684 64.2305 11.3359 64.1211 11.1562C64.0117 10.9766 63.8438 10.8457 63.6172 10.7637C63.3945 10.6816 63.1094 10.6406 62.7617 10.6406H61.3379V18H59.8672V9.46875H62.7617C63.2305 9.46875 63.6484 9.51367 64.0156 9.60352C64.3867 9.69336 64.7012 9.83398 64.959 10.0254C65.2207 10.2129 65.418 10.4512 65.5508 10.7402C65.6875 11.0293 65.7559 11.373 65.7559 11.7715C65.7559 12.123 65.6719 12.4453 65.5039 12.7383C65.3359 13.0273 65.0879 13.2637 64.7598 13.4473C64.4316 13.6309 64.0234 13.7402 63.5352 13.7754L63.0664 14.1445ZM63.002 18H60.4297L61.0918 16.834H63.002C63.334 16.834 63.6113 16.7793 63.834 16.6699C64.0566 16.5566 64.2227 16.4023 64.332 16.207C64.4453 16.0078 64.502 15.7754 64.502 15.5098C64.502 15.2324 64.4531 14.9922 64.3555 14.7891C64.2578 14.582 64.1035 14.4238 63.8926 14.3145C63.6816 14.2012 63.4062 14.1445 63.0664 14.1445H61.4141L61.4258 13.0723H63.5762L63.9102 13.4766C64.3789 13.4922 64.7637 13.5957 65.0645 13.7871C65.3691 13.9785 65.5957 14.2266 65.7441 14.5312C65.8926 14.8359 65.9668 15.1641 65.9668 15.5156C65.9668 16.0586 65.8477 16.5137 65.6094 16.8809C65.375 17.248 65.0371 17.5273 64.5957 17.7188C64.1543 17.9062 63.623 18 63.002 18ZM71.123 16.5059V11.6602H72.541V18H71.2051L71.123 16.5059ZM71.3223 15.1875L71.7969 15.1758C71.7969 15.6016 71.75 15.9941 71.6562 16.3535C71.5625 16.709 71.418 17.0195 71.2227 17.2852C71.0273 17.5469 70.7773 17.752 70.4727 17.9004C70.168 18.0449 69.8027 18.1172 69.377 18.1172C69.0684 18.1172 68.7852 18.0723 68.5273 17.9824C68.2695 17.8926 68.0469 17.7539 67.8594 17.5664C67.6758 17.3789 67.5332 17.1348 67.4316 16.834C67.3301 16.5332 67.2793 16.1738 67.2793 15.7559V11.6602H68.6914V15.7676C68.6914 15.998 68.7188 16.1914 68.7734 16.3477C68.8281 16.5 68.9023 16.623 68.9961 16.7168C69.0898 16.8105 69.1992 16.877 69.3242 16.916C69.4492 16.9551 69.582 16.9746 69.7227 16.9746C70.125 16.9746 70.4414 16.8965 70.6719 16.7402C70.9062 16.5801 71.0723 16.3652 71.1699 16.0957C71.2715 15.8262 71.3223 15.5234 71.3223 15.1875ZM75.8281 17.3086L77.5508 11.6602H79.0625L76.5195 18.9668C76.4609 19.123 76.3848 19.293 76.291 19.4766C76.1973 19.6602 76.0742 19.834 75.9219 19.998C75.7734 20.166 75.5879 20.3008 75.3652 20.4023C75.1426 20.5078 74.873 20.5605 74.5566 20.5605C74.4316 20.5605 74.3105 20.5488 74.1934 20.5254C74.0801 20.5059 73.9727 20.4844 73.8711 20.4609L73.8652 19.3828C73.9043 19.3867 73.9512 19.3906 74.0059 19.3945C74.0645 19.3984 74.1113 19.4004 74.1465 19.4004C74.3809 19.4004 74.5762 19.3711 74.7324 19.3125C74.8887 19.2578 75.0156 19.168 75.1133 19.043C75.2148 18.918 75.3008 18.75 75.3711 18.5391L75.8281 17.3086ZM74.8555 11.6602L76.3613 16.4062L76.6133 17.8945L75.6348 18.1465L73.332 11.6602H74.8555ZM86.7266 16.6875V9H88.1445V18H86.8613L86.7266 16.6875ZM82.6016 14.9004V14.7773C82.6016 14.2969 82.6582 13.8594 82.7715 13.4648C82.8848 13.0664 83.0488 12.7246 83.2637 12.4395C83.4785 12.1504 83.7402 11.9297 84.0488 11.7773C84.3574 11.6211 84.7051 11.543 85.0918 11.543C85.4746 11.543 85.8105 11.6172 86.0996 11.7656C86.3887 11.9141 86.6348 12.127 86.8379 12.4043C87.041 12.6777 87.2031 13.0059 87.3242 13.3887C87.4453 13.7676 87.5312 14.1895 87.582 14.6543V15.0469C87.5312 15.5 87.4453 15.9141 87.3242 16.2891C87.2031 16.6641 87.041 16.9883 86.8379 17.2617C86.6348 17.5352 86.3867 17.7461 86.0938 17.8945C85.8047 18.043 85.4668 18.1172 85.0801 18.1172C84.6973 18.1172 84.3516 18.0371 84.043 17.877C83.7383 17.7168 83.4785 17.4922 83.2637 17.2031C83.0488 16.9141 82.8848 16.5742 82.7715 16.1836C82.6582 15.7891 82.6016 15.3613 82.6016 14.9004ZM84.0137 14.7773V14.9004C84.0137 15.1895 84.0391 15.459 84.0898 15.709C84.1445 15.959 84.2285 16.1797 84.3418 16.3711C84.4551 16.5586 84.6016 16.707 84.7812 16.8164C84.9648 16.9219 85.1836 16.9746 85.4375 16.9746C85.7578 16.9746 86.0215 16.9043 86.2285 16.7637C86.4355 16.623 86.5977 16.4336 86.7148 16.1953C86.8359 15.9531 86.918 15.6836 86.9609 15.3867V14.3262C86.9375 14.0957 86.8887 13.8809 86.8145 13.6816C86.7441 13.4824 86.6484 13.3086 86.5273 13.1602C86.4062 13.0078 86.2559 12.8906 86.0762 12.8086C85.9004 12.7227 85.6914 12.6797 85.4492 12.6797C85.1914 12.6797 84.9727 12.7344 84.793 12.8438C84.6133 12.9531 84.4648 13.1035 84.3477 13.2949C84.2344 13.4863 84.1504 13.709 84.0957 13.9629C84.041 14.2168 84.0137 14.4883 84.0137 14.7773ZM91.0391 12.8672V18H89.627V11.6602H90.9746L91.0391 12.8672ZM92.9785 11.6191L92.9668 12.9316C92.8809 12.916 92.7871 12.9043 92.6855 12.8965C92.5879 12.8887 92.4902 12.8848 92.3926 12.8848C92.1504 12.8848 91.9375 12.9199 91.7539 12.9902C91.5703 13.0566 91.416 13.1543 91.291 13.2832C91.1699 13.4082 91.0762 13.5605 91.0098 13.7402C90.9434 13.9199 90.9043 14.1211 90.8926 14.3438L90.5703 14.3672C90.5703 13.9688 90.6094 13.5996 90.6875 13.2598C90.7656 12.9199 90.8828 12.6211 91.0391 12.3633C91.1992 12.1055 91.3984 11.9043 91.6367 11.7598C91.8789 11.6152 92.1582 11.543 92.4746 11.543C92.5605 11.543 92.6523 11.5508 92.75 11.5664C92.8516 11.582 92.9277 11.5996 92.9785 11.6191ZM96.541 18.1172C96.0723 18.1172 95.6484 18.041 95.2695 17.8887C94.8945 17.7324 94.5742 17.5156 94.3086 17.2383C94.0469 16.9609 93.8457 16.6348 93.7051 16.2598C93.5645 15.8848 93.4941 15.4805 93.4941 15.0469V14.8125C93.4941 14.3164 93.5664 13.8672 93.7109 13.4648C93.8555 13.0625 94.0566 12.7188 94.3145 12.4336C94.5723 12.1445 94.877 11.9238 95.2285 11.7715C95.5801 11.6191 95.9609 11.543 96.3711 11.543C96.8242 11.543 97.2207 11.6191 97.5605 11.7715C97.9004 11.9238 98.1816 12.1387 98.4043 12.416C98.6309 12.6895 98.7988 13.0156 98.9082 13.3945C99.0215 13.7734 99.0781 14.1914 99.0781 14.6484V15.252H94.1797V14.2383H97.6836V14.127C97.6758 13.873 97.625 13.6348 97.5312 13.4121C97.4414 13.1895 97.3027 13.0098 97.1152 12.873C96.9277 12.7363 96.6777 12.668 96.3652 12.668C96.1309 12.668 95.9219 12.7188 95.7383 12.8203C95.5586 12.918 95.4082 13.0605 95.2871 13.248C95.166 13.4355 95.0723 13.6621 95.0059 13.9277C94.9434 14.1895 94.9121 14.4844 94.9121 14.8125V15.0469C94.9121 15.3242 94.9492 15.582 95.0234 15.8203C95.1016 16.0547 95.2148 16.2598 95.3633 16.4355C95.5117 16.6113 95.6914 16.75 95.9023 16.8516C96.1133 16.9492 96.3535 16.998 96.623 16.998C96.9629 16.998 97.2656 16.9297 97.5312 16.793C97.7969 16.6562 98.0273 16.4629 98.2227 16.2129L98.9668 16.9336C98.8301 17.1328 98.6523 17.3242 98.4336 17.5078C98.2148 17.6875 97.9473 17.834 97.6309 17.9473C97.3184 18.0605 96.9551 18.1172 96.541 18.1172ZM103.754 16.7285V13.7051C103.754 13.4785 103.713 13.2832 103.631 13.1191C103.549 12.9551 103.424 12.8281 103.256 12.7383C103.092 12.6484 102.885 12.6035 102.635 12.6035C102.404 12.6035 102.205 12.6426 102.037 12.7207C101.869 12.7988 101.738 12.9043 101.645 13.0371C101.551 13.1699 101.504 13.3203 101.504 13.4883H100.098C100.098 13.2383 100.158 12.9961 100.279 12.7617C100.4 12.5273 100.576 12.3184 100.807 12.1348C101.037 11.9512 101.312 11.8066 101.633 11.7012C101.953 11.5957 102.312 11.543 102.711 11.543C103.188 11.543 103.609 11.623 103.977 11.7832C104.348 11.9434 104.639 12.1855 104.85 12.5098C105.064 12.8301 105.172 13.2324 105.172 13.7168V16.5352C105.172 16.8242 105.191 17.084 105.23 17.3145C105.273 17.541 105.334 17.7383 105.412 17.9062V18H103.965C103.898 17.8477 103.846 17.6543 103.807 17.4199C103.771 17.1816 103.754 16.9512 103.754 16.7285ZM103.959 14.1445L103.971 15.0176H102.957C102.695 15.0176 102.465 15.043 102.266 15.0938C102.066 15.1406 101.9 15.2109 101.768 15.3047C101.635 15.3984 101.535 15.5117 101.469 15.6445C101.402 15.7773 101.369 15.9277 101.369 16.0957C101.369 16.2637 101.408 16.418 101.486 16.5586C101.564 16.6953 101.678 16.8027 101.826 16.8809C101.979 16.959 102.162 16.998 102.377 16.998C102.666 16.998 102.918 16.9395 103.133 16.8223C103.352 16.7012 103.523 16.5547 103.648 16.3828C103.773 16.207 103.84 16.041 103.848 15.8848L104.305 16.5117C104.258 16.6719 104.178 16.8438 104.064 17.0273C103.951 17.2109 103.803 17.3867 103.619 17.5547C103.439 17.7188 103.223 17.8535 102.969 17.959C102.719 18.0645 102.43 18.1172 102.102 18.1172C101.688 18.1172 101.318 18.0352 100.994 17.8711C100.67 17.7031 100.416 17.4785 100.232 17.1973C100.049 16.9121 99.957 16.5898 99.957 16.2305C99.957 15.8945 100.02 15.5977 100.145 15.3398C100.273 15.0781 100.461 14.8594 100.707 14.6836C100.957 14.5078 101.262 14.375 101.621 14.2852C101.98 14.1914 102.391 14.1445 102.852 14.1445H103.959ZM108.061 12.9492V18H106.648V11.6602H107.979L108.061 12.9492ZM107.832 14.5957L107.352 14.5898C107.352 14.1523 107.406 13.748 107.516 13.377C107.625 13.0059 107.785 12.6836 107.996 12.4102C108.207 12.1328 108.469 11.9199 108.781 11.7715C109.098 11.6191 109.463 11.543 109.877 11.543C110.166 11.543 110.43 11.5859 110.668 11.6719C110.91 11.7539 111.119 11.8848 111.295 12.0645C111.475 12.2441 111.611 12.4746 111.705 12.7559C111.803 13.0371 111.852 13.377 111.852 13.7754V18H110.439V13.8984C110.439 13.5898 110.393 13.3477 110.299 13.1719C110.209 12.9961 110.078 12.8711 109.906 12.7969C109.738 12.7188 109.537 12.6797 109.303 12.6797C109.037 12.6797 108.811 12.7305 108.623 12.832C108.439 12.9336 108.289 13.0723 108.172 13.248C108.055 13.4238 107.969 13.627 107.914 13.8574C107.859 14.0879 107.832 14.334 107.832 14.5957ZM111.764 14.2207L111.102 14.3672C111.102 13.9844 111.154 13.623 111.26 13.2832C111.369 12.9395 111.527 12.6387 111.734 12.3809C111.945 12.1191 112.205 11.9141 112.514 11.7656C112.822 11.6172 113.176 11.543 113.574 11.543C113.898 11.543 114.188 11.5879 114.441 11.6777C114.699 11.7637 114.918 11.9004 115.098 12.0879C115.277 12.2754 115.414 12.5195 115.508 12.8203C115.602 13.1172 115.648 13.4766 115.648 13.8984V18H114.23V13.8926C114.23 13.5723 114.184 13.3242 114.09 13.1484C114 12.9727 113.871 12.8516 113.703 12.7852C113.535 12.7148 113.334 12.6797 113.1 12.6797C112.881 12.6797 112.688 12.7207 112.52 12.8027C112.355 12.8809 112.217 12.9922 112.104 13.1367C111.99 13.2773 111.904 13.4395 111.846 13.623C111.791 13.8066 111.764 14.0059 111.764 14.2207ZM123.646 16.2832C123.646 16.1426 123.611 16.0156 123.541 15.9023C123.471 15.7852 123.336 15.6797 123.137 15.5859C122.941 15.4922 122.652 15.4062 122.27 15.3281C121.934 15.2539 121.625 15.166 121.344 15.0645C121.066 14.959 120.828 14.832 120.629 14.6836C120.43 14.5352 120.275 14.3594 120.166 14.1562C120.057 13.9531 120.002 13.7188 120.002 13.4531C120.002 13.1953 120.059 12.9512 120.172 12.7207C120.285 12.4902 120.447 12.2871 120.658 12.1113C120.869 11.9355 121.125 11.7969 121.426 11.6953C121.73 11.5938 122.07 11.543 122.445 11.543C122.977 11.543 123.432 11.6328 123.811 11.8125C124.193 11.9883 124.486 12.2285 124.689 12.5332C124.893 12.834 124.994 13.1738 124.994 13.5527H123.582C123.582 13.3848 123.539 13.2285 123.453 13.084C123.371 12.9355 123.246 12.8164 123.078 12.7266C122.91 12.6328 122.699 12.5859 122.445 12.5859C122.203 12.5859 122.002 12.625 121.842 12.7031C121.686 12.7773 121.568 12.875 121.49 12.9961C121.416 13.1172 121.379 13.25 121.379 13.3945C121.379 13.5 121.398 13.5957 121.438 13.6816C121.48 13.7637 121.551 13.8398 121.648 13.9102C121.746 13.9766 121.879 14.0391 122.047 14.0977C122.219 14.1562 122.434 14.2129 122.691 14.2676C123.176 14.3691 123.592 14.5 123.939 14.6602C124.291 14.8164 124.561 15.0195 124.748 15.2695C124.936 15.5156 125.029 15.8281 125.029 16.207C125.029 16.4883 124.969 16.7461 124.848 16.9805C124.73 17.2109 124.559 17.4121 124.332 17.584C124.105 17.752 123.834 17.8828 123.518 17.9766C123.205 18.0703 122.854 18.1172 122.463 18.1172C121.889 18.1172 121.402 18.0156 121.004 17.8125C120.605 17.6055 120.303 17.3418 120.096 17.0215C119.893 16.6973 119.791 16.3613 119.791 16.0137H121.156C121.172 16.2754 121.244 16.4844 121.373 16.6406C121.506 16.793 121.67 16.9043 121.865 16.9746C122.064 17.041 122.27 17.0742 122.48 17.0742C122.734 17.0742 122.947 17.041 123.119 16.9746C123.291 16.9043 123.422 16.8105 123.512 16.6934C123.602 16.5723 123.646 16.4355 123.646 16.2832ZM127.689 9V18H126.271V9H127.689ZM131.627 11.6602L128.867 14.7188L127.355 16.2656L126.986 15.0703L128.129 13.6582L129.922 11.6602H131.627ZM130.227 18L128.17 15.0234L129.061 14.0332L131.861 18H130.227ZM134.035 11.6602V18H132.617V11.6602H134.035ZM132.523 9.99609C132.523 9.78125 132.594 9.60352 132.734 9.46289C132.879 9.31836 133.078 9.24609 133.332 9.24609C133.582 9.24609 133.779 9.31836 133.924 9.46289C134.068 9.60352 134.141 9.78125 134.141 9.99609C134.141 10.207 134.068 10.3828 133.924 10.5234C133.779 10.6641 133.582 10.7344 133.332 10.7344C133.078 10.7344 132.879 10.6641 132.734 10.5234C132.594 10.3828 132.523 10.207 132.523 9.99609ZM136.982 13.0137V18H135.57V11.6602H136.9L136.982 13.0137ZM136.73 14.5957L136.273 14.5898C136.277 14.1406 136.34 13.7285 136.461 13.3535C136.586 12.9785 136.758 12.6562 136.977 12.3867C137.199 12.1172 137.465 11.9102 137.773 11.7656C138.082 11.6172 138.426 11.543 138.805 11.543C139.109 11.543 139.385 11.5859 139.631 11.6719C139.881 11.7539 140.094 11.8887 140.27 12.0762C140.449 12.2637 140.586 12.5078 140.68 12.8086C140.773 13.1055 140.82 13.4707 140.82 13.9043V18H139.402V13.8984C139.402 13.5938 139.357 13.3535 139.268 13.1777C139.182 12.998 139.055 12.8711 138.887 12.7969C138.723 12.7188 138.518 12.6797 138.271 12.6797C138.029 12.6797 137.812 12.7305 137.621 12.832C137.43 12.9336 137.268 13.0723 137.135 13.248C137.006 13.4238 136.906 13.627 136.836 13.8574C136.766 14.0879 136.73 14.334 136.73 14.5957ZM145.818 16.2832C145.818 16.1426 145.783 16.0156 145.713 15.9023C145.643 15.7852 145.508 15.6797 145.309 15.5859C145.113 15.4922 144.824 15.4062 144.441 15.3281C144.105 15.2539 143.797 15.166 143.516 15.0645C143.238 14.959 143 14.832 142.801 14.6836C142.602 14.5352 142.447 14.3594 142.338 14.1562C142.229 13.9531 142.174 13.7188 142.174 13.4531C142.174 13.1953 142.23 12.9512 142.344 12.7207C142.457 12.4902 142.619 12.2871 142.83 12.1113C143.041 11.9355 143.297 11.7969 143.598 11.6953C143.902 11.5938 144.242 11.543 144.617 11.543C145.148 11.543 145.604 11.6328 145.982 11.8125C146.365 11.9883 146.658 12.2285 146.861 12.5332C147.064 12.834 147.166 13.1738 147.166 13.5527H145.754C145.754 13.3848 145.711 13.2285 145.625 13.084C145.543 12.9355 145.418 12.8164 145.25 12.7266C145.082 12.6328 144.871 12.5859 144.617 12.5859C144.375 12.5859 144.174 12.625 144.014 12.7031C143.857 12.7773 143.74 12.875 143.662 12.9961C143.588 13.1172 143.551 13.25 143.551 13.3945C143.551 13.5 143.57 13.5957 143.609 13.6816C143.652 13.7637 143.723 13.8398 143.82 13.9102C143.918 13.9766 144.051 14.0391 144.219 14.0977C144.391 14.1562 144.605 14.2129 144.863 14.2676C145.348 14.3691 145.764 14.5 146.111 14.6602C146.463 14.8164 146.732 15.0195 146.92 15.2695C147.107 15.5156 147.201 15.8281 147.201 16.207C147.201 16.4883 147.141 16.7461 147.02 16.9805C146.902 17.2109 146.73 17.4121 146.504 17.584C146.277 17.752 146.006 17.8828 145.689 17.9766C145.377 18.0703 145.025 18.1172 144.635 18.1172C144.061 18.1172 143.574 18.0156 143.176 17.8125C142.777 17.6055 142.475 17.3418 142.268 17.0215C142.064 16.6973 141.963 16.3613 141.963 16.0137H143.328C143.344 16.2754 143.416 16.4844 143.545 16.6406C143.678 16.793 143.842 16.9043 144.037 16.9746C144.236 17.041 144.441 17.0742 144.652 17.0742C144.906 17.0742 145.119 17.041 145.291 16.9746C145.463 16.9043 145.594 16.8105 145.684 16.6934C145.773 16.5723 145.818 16.4355 145.818 16.2832Z" fill="white"/>
<path d="M152.438 9.46875V18H150.967V9.46875H152.438ZM161.033 9.46875V18H159.562L155.736 11.8887V18H154.266V9.46875H155.736L159.574 15.5918V9.46875H161.033ZM167.273 15.8027C167.273 15.627 167.246 15.4707 167.191 15.334C167.141 15.1973 167.049 15.0723 166.916 14.959C166.783 14.8457 166.596 14.7363 166.354 14.6309C166.115 14.5215 165.811 14.4102 165.439 14.2969C165.033 14.1719 164.658 14.0332 164.314 13.8809C163.975 13.7246 163.678 13.5449 163.424 13.3418C163.17 13.1348 162.973 12.8984 162.832 12.6328C162.691 12.3633 162.621 12.0527 162.621 11.7012C162.621 11.3535 162.693 11.0371 162.838 10.752C162.986 10.4668 163.195 10.2207 163.465 10.0137C163.738 9.80273 164.061 9.64062 164.432 9.52734C164.803 9.41016 165.213 9.35156 165.662 9.35156C166.295 9.35156 166.84 9.46875 167.297 9.70312C167.758 9.9375 168.111 10.252 168.357 10.6465C168.607 11.041 168.732 11.4766 168.732 11.9531H167.273C167.273 11.6719 167.213 11.4238 167.092 11.209C166.975 10.9902 166.795 10.8184 166.553 10.6934C166.314 10.5684 166.012 10.5059 165.645 10.5059C165.297 10.5059 165.008 10.5586 164.777 10.6641C164.547 10.7695 164.375 10.9121 164.262 11.0918C164.148 11.2715 164.092 11.4746 164.092 11.7012C164.092 11.8613 164.129 12.0078 164.203 12.1406C164.277 12.2695 164.391 12.3906 164.543 12.5039C164.695 12.6133 164.887 12.7168 165.117 12.8145C165.348 12.9121 165.619 13.0059 165.932 13.0957C166.404 13.2363 166.816 13.3926 167.168 13.5645C167.52 13.7324 167.812 13.9238 168.047 14.1387C168.281 14.3535 168.457 14.5977 168.574 14.8711C168.691 15.1406 168.75 15.4473 168.75 15.791C168.75 16.1504 168.678 16.4746 168.533 16.7637C168.389 17.0488 168.182 17.293 167.912 17.4961C167.646 17.6953 167.326 17.8496 166.951 17.959C166.58 18.0645 166.166 18.1172 165.709 18.1172C165.299 18.1172 164.895 18.0625 164.496 17.9531C164.102 17.8438 163.742 17.6777 163.418 17.4551C163.094 17.2285 162.836 16.9473 162.645 16.6113C162.453 16.2715 162.357 15.875 162.357 15.4219H163.828C163.828 15.6992 163.875 15.9355 163.969 16.1309C164.066 16.3262 164.201 16.4863 164.373 16.6113C164.545 16.7324 164.744 16.8223 164.971 16.8809C165.201 16.9395 165.447 16.9688 165.709 16.9688C166.053 16.9688 166.34 16.9199 166.57 16.8223C166.805 16.7246 166.98 16.5879 167.098 16.4121C167.215 16.2363 167.273 16.0332 167.273 15.8027ZM173.561 9.46875V18H172.102V9.46875H173.561ZM176.238 9.46875V10.6406H169.447V9.46875H176.238ZM180.123 10.6055L177.574 18H176.033L179.244 9.46875H180.229L180.123 10.6055ZM182.256 18L179.701 10.6055L179.59 9.46875H180.58L183.803 18H182.256ZM182.133 14.8359V16.002H177.492V14.8359H182.133ZM191.525 9.46875V18H190.055L186.229 11.8887V18H184.758V9.46875H186.229L190.066 15.5918V9.46875H191.525ZM196.611 9.46875V18H195.152V9.46875H196.611ZM199.289 9.46875V10.6406H192.498V9.46875H199.289ZM205.758 16.834V18H201.475V16.834H205.758ZM201.885 9.46875V18H200.414V9.46875H201.885ZM206.221 9.46875L208.201 13.541L210.182 9.46875H211.811L208.939 14.8594V18H207.457V14.8594L204.586 9.46875H206.221ZM214.23 9.46875L214.09 15.4863H212.883L212.736 9.46875H214.23ZM212.695 17.332C212.695 17.1172 212.766 16.9375 212.906 16.793C213.051 16.6445 213.25 16.5703 213.504 16.5703C213.754 16.5703 213.951 16.6445 214.096 16.793C214.24 16.9375 214.312 17.1172 214.312 17.332C214.312 17.5391 214.24 17.7168 214.096 17.8652C213.951 18.0098 213.754 18.082 213.504 18.082C213.25 18.082 213.051 18.0098 212.906 17.8652C212.766 17.7168 212.695 17.5391 212.695 17.332Z" fill="url(#paint1_linear_26190_26681)"/>
<path d="M252.152 12.953C252.023 12.6979 251.866 12.4515 251.683 12.2503C251.555 12.1039 251.417 11.9666 251.298 11.8294C251.042 11.5549 250.74 11.3435 250.43 11.141C249.718 10.6626 248.927 10.4102 248.074 10.3113C247.556 10.261 247.039 10.2832 246.533 10.4053C246.433 10.4315 246.343 10.4669 246.234 10.484C246.324 10.4123 246.414 10.3407 246.495 10.278C246.811 10.0543 247.144 9.88522 247.506 9.76175C248.464 9.40824 249.433 9.29968 250.432 9.45438C251.222 9.57986 251.959 9.86806 252.634 10.2917C252.717 10.3378 252.79 10.3929 252.854 10.4389C252.908 10.4757 252.945 10.5123 253.017 10.513C253.036 10.5132 253.054 10.5315 253.063 10.5406C253.182 10.6415 253.319 10.7426 253.447 10.8526C253.456 10.8437 253.474 10.8257 253.483 10.8167C253.51 10.7716 253.546 10.7538 253.609 10.7635C253.664 10.764 253.7 10.7825 253.737 10.8192C253.792 10.8741 253.856 10.9382 253.911 10.9931C253.966 11.0481 254.002 11.1028 254.021 11.1755C254.04 11.2301 254.023 11.3025 254.059 11.3573C254.069 11.3664 254.051 11.3844 254.042 11.3934C254.105 11.4212 254.124 11.4939 254.07 11.5659C254.143 11.5304 254.143 11.5848 254.18 11.6214C254.226 11.6853 254.135 11.6844 254.126 11.7297C254.145 11.7299 254.154 11.7209 254.172 11.7211C254.208 11.7033 254.226 11.7035 254.254 11.7491C254.281 11.7947 254.272 11.8218 254.236 11.8577C254.227 11.8667 254.219 11.8938 254.21 11.9028L254.219 11.9119C254.228 11.903 254.246 11.9031 254.255 11.8942C254.291 11.8582 254.327 11.8767 254.346 11.9132C254.373 11.9588 254.374 11.9769 254.329 12.0037C254.32 12.0127 254.311 12.0216 254.302 12.0306C254.293 12.0396 254.293 12.0577 254.293 12.0577C254.302 12.0669 254.311 12.0579 254.32 12.0671C254.32 12.0671 254.329 12.0581 254.347 12.0583C254.437 12.0047 254.437 12.0047 254.493 12.1141C254.466 12.141 254.43 12.1588 254.403 12.1858L254.412 12.1949C254.448 12.1771 254.484 12.1593 254.52 12.1415C254.539 12.178 254.566 12.2055 254.576 12.2328C254.576 12.2509 254.531 12.2777 254.504 12.3046C254.504 12.3046 254.513 12.3138 254.504 12.3227C254.522 12.3229 254.54 12.305 254.558 12.3051C254.585 12.2963 254.603 12.2784 254.621 12.2604C254.649 12.2879 254.667 12.3243 254.695 12.3518C254.668 12.3787 254.632 12.3965 254.605 12.4235C254.632 12.4509 254.632 12.4509 254.749 12.3704C254.777 12.3979 254.795 12.4344 254.823 12.4618C254.796 12.4888 254.769 12.5157 254.733 12.5335C254.742 12.5427 254.742 12.5427 254.751 12.5518C254.796 12.525 254.823 12.4981 254.868 12.4713C254.896 12.4988 254.905 12.5261 254.932 12.5536C254.905 12.5805 254.887 12.5985 254.869 12.6164C254.869 12.6164 254.879 12.6256 254.87 12.6346C254.888 12.6347 254.906 12.6349 254.915 12.6259C254.996 12.5814 254.996 12.5814 255.06 12.6636C255.051 12.6726 255.033 12.6906 255.034 12.7087C255.034 12.7087 255.034 12.7087 255.043 12.7178C255.061 12.6999 255.079 12.7001 255.097 12.6821C255.142 12.6553 255.206 12.6831 255.215 12.7286C255.215 12.7467 255.206 12.7557 255.197 12.7828C255.197 12.7828 255.197 12.7828 255.207 12.792C255.252 12.7471 255.288 12.7655 255.316 12.8112C255.334 12.8295 255.37 12.848 255.398 12.8573C255.425 12.8666 255.452 12.8759 255.489 12.8763C255.561 12.877 255.625 12.9048 255.662 12.9777C255.671 12.9869 255.68 12.996 255.689 13.0052C255.735 13.0147 255.744 13.042 255.735 13.0872C255.817 13.1152 255.872 13.1883 255.855 13.2425C255.9 13.2339 255.937 13.2524 255.919 13.3066L255.928 13.3158C255.964 13.3343 255.983 13.3526 255.956 13.3977C256.001 13.4072 256.038 13.4257 256.02 13.4799C256.084 13.4896 256.093 13.5169 256.076 13.5711C256.121 13.5806 256.148 13.5899 256.149 13.6444C256.149 13.6444 256.149 13.6625 256.158 13.6535C256.203 13.663 256.204 13.6993 256.204 13.7356C256.259 13.7542 256.277 13.7725 256.259 13.8268C256.323 13.8365 256.341 13.8548 256.324 13.909C256.378 13.9277 256.443 14.0462 256.434 14.0914C256.443 14.1006 256.462 14.1008 256.462 14.1008C256.489 14.1464 256.517 14.2101 256.545 14.2557C256.563 14.2922 256.591 14.3196 256.609 14.3561C256.618 14.3834 256.628 14.4107 256.646 14.429C256.655 14.4381 256.674 14.4564 256.683 14.4837C256.702 14.5383 256.72 14.5929 256.748 14.6385C256.766 14.675 256.794 14.7206 256.812 14.757C256.84 14.8026 256.85 14.8481 256.877 14.8937C256.896 14.9483 256.933 15.003 256.951 15.0576C256.998 15.1759 257.053 15.2853 257.091 15.3945C257.119 15.4945 257.156 15.6036 257.193 15.6947C257.193 15.7128 257.203 15.722 257.203 15.7401C257.185 15.8125 257.213 15.8762 257.268 15.9312C257.296 15.9586 257.314 15.9951 257.333 16.0315C257.36 16.0771 257.361 16.1316 257.316 16.1765C257.289 16.2034 257.289 16.2397 257.335 16.2492C257.416 16.2772 257.463 16.3592 257.481 16.432C257.491 16.4593 257.455 16.4952 257.437 16.5313C257.428 16.5584 257.419 16.5674 257.401 16.5853C257.429 16.5947 257.438 16.6038 257.465 16.6132C257.583 16.6415 257.657 16.751 257.622 16.8595C257.622 16.8776 257.604 16.8956 257.595 16.9046C257.541 16.9403 257.541 16.9766 257.596 16.9953C257.65 17.0139 257.687 17.0506 257.724 17.1053C257.751 17.1509 257.743 17.1962 257.707 17.2502C257.662 17.3133 257.662 17.3314 257.726 17.3592C257.826 17.4237 257.854 17.4874 257.828 17.6232C257.802 17.7046 257.776 17.7859 257.749 17.8673C257.732 17.9215 257.686 17.9301 257.632 17.9115C257.641 17.9388 257.65 17.9661 257.66 17.9934C257.669 18.0388 257.679 18.0842 257.661 18.1203C257.599 18.2739 257.537 18.4274 257.475 18.581C257.351 18.8881 257.3 19.2141 257.248 19.54C257.231 19.6668 257.186 19.6754 257.077 19.62C256.986 19.5647 256.885 19.5003 256.794 19.445C256.776 19.4267 256.758 19.4265 256.721 19.4261C256.549 19.4154 256.386 19.4138 256.222 19.3941C256.122 19.3841 256.022 19.3378 255.922 19.2915C255.64 19.189 255.448 18.9786 255.282 18.7231C255.153 18.5224 255.096 18.2861 255.103 18.0413C255.102 17.8962 255.155 17.7516 255.171 17.6067C255.188 17.4799 255.232 17.3625 255.313 17.2635C255.385 17.1735 255.402 17.083 255.437 16.9745C255.473 16.866 255.453 16.757 255.443 16.6572C255.432 16.4667 255.34 16.3025 255.194 16.1742C255.112 16.1099 255.02 16.0365 254.938 15.9722C254.911 15.9448 254.892 15.9265 254.892 15.8902C254.891 15.8358 254.882 15.7903 254.89 15.7451C254.933 15.4825 254.868 15.2552 254.748 15.0273C254.692 14.918 254.619 14.8266 254.536 14.7261C254.426 14.598 254.289 14.5333 254.135 14.4864C254.062 14.4676 254.062 14.4676 254.07 14.3861C254.087 14.2774 254.105 14.1688 254.103 14.0599C254.101 13.8241 253.999 13.6146 253.835 13.4498C253.78 13.3949 253.707 13.3579 253.634 13.3209C253.406 13.219 253.17 13.1442 252.907 13.2051C252.735 13.2488 252.582 13.3108 252.447 13.4274C252.375 13.4811 252.33 13.4716 252.275 13.4167C252.192 13.298 252.109 13.1793 252.09 13.034C252.098 13.0069 252.098 12.9706 252.152 12.953ZM256.95 18.6848C256.977 18.6397 257.039 18.5587 257.084 18.4775C257.2 18.27 257.216 18.0344 257.159 17.7981C257.131 17.68 257.084 17.5616 256.993 17.4882C256.801 17.3141 256.591 17.2304 256.337 17.228C256.111 17.2349 255.912 17.3055 255.741 17.4399C255.489 17.6551 255.374 17.9351 255.395 18.2618C255.396 18.3343 255.415 18.407 255.452 18.4799C255.572 18.7078 255.755 18.8728 256 18.9386C256.337 19.0416 256.644 18.9539 256.95 18.6848Z" fill="#F41795"/>
<path d="M292.066 14.1445H289.893L289.881 13.0723H291.779C292.1 13.0723 292.371 13.0254 292.594 12.9316C292.82 12.834 292.992 12.6953 293.109 12.5156C293.227 12.332 293.285 12.1113 293.285 11.8535C293.285 11.5684 293.23 11.3359 293.121 11.1562C293.012 10.9766 292.844 10.8457 292.617 10.7637C292.395 10.6816 292.109 10.6406 291.762 10.6406H290.338V18H288.867V9.46875H291.762C292.23 9.46875 292.648 9.51367 293.016 9.60352C293.387 9.69336 293.701 9.83398 293.959 10.0254C294.221 10.2129 294.418 10.4512 294.551 10.7402C294.688 11.0293 294.756 11.373 294.756 11.7715C294.756 12.123 294.672 12.4453 294.504 12.7383C294.336 13.0273 294.088 13.2637 293.76 13.4473C293.432 13.6309 293.023 13.7402 292.535 13.7754L292.066 14.1445ZM292.002 18H289.43L290.092 16.834H292.002C292.334 16.834 292.611 16.7793 292.834 16.6699C293.057 16.5566 293.223 16.4023 293.332 16.207C293.445 16.0078 293.502 15.7754 293.502 15.5098C293.502 15.2324 293.453 14.9922 293.355 14.7891C293.258 14.582 293.104 14.4238 292.893 14.3145C292.682 14.2012 292.406 14.1445 292.066 14.1445H290.414L290.426 13.0723H292.576L292.91 13.4766C293.379 13.4922 293.764 13.5957 294.064 13.7871C294.369 13.9785 294.596 14.2266 294.744 14.5312C294.893 14.8359 294.967 15.1641 294.967 15.5156C294.967 16.0586 294.848 16.5137 294.609 16.8809C294.375 17.248 294.037 17.5273 293.596 17.7188C293.154 17.9062 292.623 18 292.002 18ZM300.123 16.5059V11.6602H301.541V18H300.205L300.123 16.5059ZM300.322 15.1875L300.797 15.1758C300.797 15.6016 300.75 15.9941 300.656 16.3535C300.562 16.709 300.418 17.0195 300.223 17.2852C300.027 17.5469 299.777 17.752 299.473 17.9004C299.168 18.0449 298.803 18.1172 298.377 18.1172C298.068 18.1172 297.785 18.0723 297.527 17.9824C297.27 17.8926 297.047 17.7539 296.859 17.5664C296.676 17.3789 296.533 17.1348 296.432 16.834C296.33 16.5332 296.279 16.1738 296.279 15.7559V11.6602H297.691V15.7676C297.691 15.998 297.719 16.1914 297.773 16.3477C297.828 16.5 297.902 16.623 297.996 16.7168C298.09 16.8105 298.199 16.877 298.324 16.916C298.449 16.9551 298.582 16.9746 298.723 16.9746C299.125 16.9746 299.441 16.8965 299.672 16.7402C299.906 16.5801 300.072 16.3652 300.17 16.0957C300.271 15.8262 300.322 15.5234 300.322 15.1875ZM304.828 17.3086L306.551 11.6602H308.062L305.52 18.9668C305.461 19.123 305.385 19.293 305.291 19.4766C305.197 19.6602 305.074 19.834 304.922 19.998C304.773 20.166 304.588 20.3008 304.365 20.4023C304.143 20.5078 303.873 20.5605 303.557 20.5605C303.432 20.5605 303.311 20.5488 303.193 20.5254C303.08 20.5059 302.973 20.4844 302.871 20.4609L302.865 19.3828C302.904 19.3867 302.951 19.3906 303.006 19.3945C303.064 19.3984 303.111 19.4004 303.146 19.4004C303.381 19.4004 303.576 19.3711 303.732 19.3125C303.889 19.2578 304.016 19.168 304.113 19.043C304.215 18.918 304.301 18.75 304.371 18.5391L304.828 17.3086ZM303.855 11.6602L305.361 16.4062L305.613 17.8945L304.635 18.1465L302.332 11.6602H303.855ZM315.727 16.6875V9H317.145V18H315.861L315.727 16.6875ZM311.602 14.9004V14.7773C311.602 14.2969 311.658 13.8594 311.771 13.4648C311.885 13.0664 312.049 12.7246 312.264 12.4395C312.479 12.1504 312.74 11.9297 313.049 11.7773C313.357 11.6211 313.705 11.543 314.092 11.543C314.475 11.543 314.811 11.6172 315.1 11.7656C315.389 11.9141 315.635 12.127 315.838 12.4043C316.041 12.6777 316.203 13.0059 316.324 13.3887C316.445 13.7676 316.531 14.1895 316.582 14.6543V15.0469C316.531 15.5 316.445 15.9141 316.324 16.2891C316.203 16.6641 316.041 16.9883 315.838 17.2617C315.635 17.5352 315.387 17.7461 315.094 17.8945C314.805 18.043 314.467 18.1172 314.08 18.1172C313.697 18.1172 313.352 18.0371 313.043 17.877C312.738 17.7168 312.479 17.4922 312.264 17.2031C312.049 16.9141 311.885 16.5742 311.771 16.1836C311.658 15.7891 311.602 15.3613 311.602 14.9004ZM313.014 14.7773V14.9004C313.014 15.1895 313.039 15.459 313.09 15.709C313.145 15.959 313.229 16.1797 313.342 16.3711C313.455 16.5586 313.602 16.707 313.781 16.8164C313.965 16.9219 314.184 16.9746 314.438 16.9746C314.758 16.9746 315.021 16.9043 315.229 16.7637C315.436 16.623 315.598 16.4336 315.715 16.1953C315.836 15.9531 315.918 15.6836 315.961 15.3867V14.3262C315.938 14.0957 315.889 13.8809 315.814 13.6816C315.744 13.4824 315.648 13.3086 315.527 13.1602C315.406 13.0078 315.256 12.8906 315.076 12.8086C314.9 12.7227 314.691 12.6797 314.449 12.6797C314.191 12.6797 313.973 12.7344 313.793 12.8438C313.613 12.9531 313.465 13.1035 313.348 13.2949C313.234 13.4863 313.15 13.709 313.096 13.9629C313.041 14.2168 313.014 14.4883 313.014 14.7773ZM320.039 12.8672V18H318.627V11.6602H319.975L320.039 12.8672ZM321.979 11.6191L321.967 12.9316C321.881 12.916 321.787 12.9043 321.686 12.8965C321.588 12.8887 321.49 12.8848 321.393 12.8848C321.15 12.8848 320.938 12.9199 320.754 12.9902C320.57 13.0566 320.416 13.1543 320.291 13.2832C320.17 13.4082 320.076 13.5605 320.01 13.7402C319.943 13.9199 319.904 14.1211 319.893 14.3438L319.57 14.3672C319.57 13.9688 319.609 13.5996 319.688 13.2598C319.766 12.9199 319.883 12.6211 320.039 12.3633C320.199 12.1055 320.398 11.9043 320.637 11.7598C320.879 11.6152 321.158 11.543 321.475 11.543C321.561 11.543 321.652 11.5508 321.75 11.5664C321.852 11.582 321.928 11.5996 321.979 11.6191ZM325.541 18.1172C325.072 18.1172 324.648 18.041 324.27 17.8887C323.895 17.7324 323.574 17.5156 323.309 17.2383C323.047 16.9609 322.846 16.6348 322.705 16.2598C322.564 15.8848 322.494 15.4805 322.494 15.0469V14.8125C322.494 14.3164 322.566 13.8672 322.711 13.4648C322.855 13.0625 323.057 12.7188 323.314 12.4336C323.572 12.1445 323.877 11.9238 324.229 11.7715C324.58 11.6191 324.961 11.543 325.371 11.543C325.824 11.543 326.221 11.6191 326.561 11.7715C326.9 11.9238 327.182 12.1387 327.404 12.416C327.631 12.6895 327.799 13.0156 327.908 13.3945C328.021 13.7734 328.078 14.1914 328.078 14.6484V15.252H323.18V14.2383H326.684V14.127C326.676 13.873 326.625 13.6348 326.531 13.4121C326.441 13.1895 326.303 13.0098 326.115 12.873C325.928 12.7363 325.678 12.668 325.365 12.668C325.131 12.668 324.922 12.7188 324.738 12.8203C324.559 12.918 324.408 13.0605 324.287 13.248C324.166 13.4355 324.072 13.6621 324.006 13.9277C323.943 14.1895 323.912 14.4844 323.912 14.8125V15.0469C323.912 15.3242 323.949 15.582 324.023 15.8203C324.102 16.0547 324.215 16.2598 324.363 16.4355C324.512 16.6113 324.691 16.75 324.902 16.8516C325.113 16.9492 325.354 16.998 325.623 16.998C325.963 16.998 326.266 16.9297 326.531 16.793C326.797 16.6562 327.027 16.4629 327.223 16.2129L327.967 16.9336C327.83 17.1328 327.652 17.3242 327.434 17.5078C327.215 17.6875 326.947 17.834 326.631 17.9473C326.318 18.0605 325.955 18.1172 325.541 18.1172ZM332.754 16.7285V13.7051C332.754 13.4785 332.713 13.2832 332.631 13.1191C332.549 12.9551 332.424 12.8281 332.256 12.7383C332.092 12.6484 331.885 12.6035 331.635 12.6035C331.404 12.6035 331.205 12.6426 331.037 12.7207C330.869 12.7988 330.738 12.9043 330.645 13.0371C330.551 13.1699 330.504 13.3203 330.504 13.4883H329.098C329.098 13.2383 329.158 12.9961 329.279 12.7617C329.4 12.5273 329.576 12.3184 329.807 12.1348C330.037 11.9512 330.312 11.8066 330.633 11.7012C330.953 11.5957 331.312 11.543 331.711 11.543C332.188 11.543 332.609 11.623 332.977 11.7832C333.348 11.9434 333.639 12.1855 333.85 12.5098C334.064 12.8301 334.172 13.2324 334.172 13.7168V16.5352C334.172 16.8242 334.191 17.084 334.23 17.3145C334.273 17.541 334.334 17.7383 334.412 17.9062V18H332.965C332.898 17.8477 332.846 17.6543 332.807 17.4199C332.771 17.1816 332.754 16.9512 332.754 16.7285ZM332.959 14.1445L332.971 15.0176H331.957C331.695 15.0176 331.465 15.043 331.266 15.0938C331.066 15.1406 330.9 15.2109 330.768 15.3047C330.635 15.3984 330.535 15.5117 330.469 15.6445C330.402 15.7773 330.369 15.9277 330.369 16.0957C330.369 16.2637 330.408 16.418 330.486 16.5586C330.564 16.6953 330.678 16.8027 330.826 16.8809C330.979 16.959 331.162 16.998 331.377 16.998C331.666 16.998 331.918 16.9395 332.133 16.8223C332.352 16.7012 332.523 16.5547 332.648 16.3828C332.773 16.207 332.84 16.041 332.848 15.8848L333.305 16.5117C333.258 16.6719 333.178 16.8438 333.064 17.0273C332.951 17.2109 332.803 17.3867 332.619 17.5547C332.439 17.7188 332.223 17.8535 331.969 17.959C331.719 18.0645 331.43 18.1172 331.102 18.1172C330.688 18.1172 330.318 18.0352 329.994 17.8711C329.67 17.7031 329.416 17.4785 329.232 17.1973C329.049 16.9121 328.957 16.5898 328.957 16.2305C328.957 15.8945 329.02 15.5977 329.145 15.3398C329.273 15.0781 329.461 14.8594 329.707 14.6836C329.957 14.5078 330.262 14.375 330.621 14.2852C330.98 14.1914 331.391 14.1445 331.852 14.1445H332.959ZM337.061 12.9492V18H335.648V11.6602H336.979L337.061 12.9492ZM336.832 14.5957L336.352 14.5898C336.352 14.1523 336.406 13.748 336.516 13.377C336.625 13.0059 336.785 12.6836 336.996 12.4102C337.207 12.1328 337.469 11.9199 337.781 11.7715C338.098 11.6191 338.463 11.543 338.877 11.543C339.166 11.543 339.43 11.5859 339.668 11.6719C339.91 11.7539 340.119 11.8848 340.295 12.0645C340.475 12.2441 340.611 12.4746 340.705 12.7559C340.803 13.0371 340.852 13.377 340.852 13.7754V18H339.439V13.8984C339.439 13.5898 339.393 13.3477 339.299 13.1719C339.209 12.9961 339.078 12.8711 338.906 12.7969C338.738 12.7188 338.537 12.6797 338.303 12.6797C338.037 12.6797 337.811 12.7305 337.623 12.832C337.439 12.9336 337.289 13.0723 337.172 13.248C337.055 13.4238 336.969 13.627 336.914 13.8574C336.859 14.0879 336.832 14.334 336.832 14.5957ZM340.764 14.2207L340.102 14.3672C340.102 13.9844 340.154 13.623 340.26 13.2832C340.369 12.9395 340.527 12.6387 340.734 12.3809C340.945 12.1191 341.205 11.9141 341.514 11.7656C341.822 11.6172 342.176 11.543 342.574 11.543C342.898 11.543 343.188 11.5879 343.441 11.6777C343.699 11.7637 343.918 11.9004 344.098 12.0879C344.277 12.2754 344.414 12.5195 344.508 12.8203C344.602 13.1172 344.648 13.4766 344.648 13.8984V18H343.23V13.8926C343.23 13.5723 343.184 13.3242 343.09 13.1484C343 12.9727 342.871 12.8516 342.703 12.7852C342.535 12.7148 342.334 12.6797 342.1 12.6797C341.881 12.6797 341.688 12.7207 341.52 12.8027C341.355 12.8809 341.217 12.9922 341.104 13.1367C340.99 13.2773 340.904 13.4395 340.846 13.623C340.791 13.8066 340.764 14.0059 340.764 14.2207ZM352.646 16.2832C352.646 16.1426 352.611 16.0156 352.541 15.9023C352.471 15.7852 352.336 15.6797 352.137 15.5859C351.941 15.4922 351.652 15.4062 351.27 15.3281C350.934 15.2539 350.625 15.166 350.344 15.0645C350.066 14.959 349.828 14.832 349.629 14.6836C349.43 14.5352 349.275 14.3594 349.166 14.1562C349.057 13.9531 349.002 13.7188 349.002 13.4531C349.002 13.1953 349.059 12.9512 349.172 12.7207C349.285 12.4902 349.447 12.2871 349.658 12.1113C349.869 11.9355 350.125 11.7969 350.426 11.6953C350.73 11.5938 351.07 11.543 351.445 11.543C351.977 11.543 352.432 11.6328 352.811 11.8125C353.193 11.9883 353.486 12.2285 353.689 12.5332C353.893 12.834 353.994 13.1738 353.994 13.5527H352.582C352.582 13.3848 352.539 13.2285 352.453 13.084C352.371 12.9355 352.246 12.8164 352.078 12.7266C351.91 12.6328 351.699 12.5859 351.445 12.5859C351.203 12.5859 351.002 12.625 350.842 12.7031C350.686 12.7773 350.568 12.875 350.49 12.9961C350.416 13.1172 350.379 13.25 350.379 13.3945C350.379 13.5 350.398 13.5957 350.438 13.6816C350.48 13.7637 350.551 13.8398 350.648 13.9102C350.746 13.9766 350.879 14.0391 351.047 14.0977C351.219 14.1562 351.434 14.2129 351.691 14.2676C352.176 14.3691 352.592 14.5 352.939 14.6602C353.291 14.8164 353.561 15.0195 353.748 15.2695C353.936 15.5156 354.029 15.8281 354.029 16.207C354.029 16.4883 353.969 16.7461 353.848 16.9805C353.73 17.2109 353.559 17.4121 353.332 17.584C353.105 17.752 352.834 17.8828 352.518 17.9766C352.205 18.0703 351.854 18.1172 351.463 18.1172C350.889 18.1172 350.402 18.0156 350.004 17.8125C349.605 17.6055 349.303 17.3418 349.096 17.0215C348.893 16.6973 348.791 16.3613 348.791 16.0137H350.156C350.172 16.2754 350.244 16.4844 350.373 16.6406C350.506 16.793 350.67 16.9043 350.865 16.9746C351.064 17.041 351.27 17.0742 351.48 17.0742C351.734 17.0742 351.947 17.041 352.119 16.9746C352.291 16.9043 352.422 16.8105 352.512 16.6934C352.602 16.5723 352.646 16.4355 352.646 16.2832ZM356.689 9V18H355.271V9H356.689ZM360.627 11.6602L357.867 14.7188L356.355 16.2656L355.986 15.0703L357.129 13.6582L358.922 11.6602H360.627ZM359.227 18L357.17 15.0234L358.061 14.0332L360.861 18H359.227ZM363.035 11.6602V18H361.617V11.6602H363.035ZM361.523 9.99609C361.523 9.78125 361.594 9.60352 361.734 9.46289C361.879 9.31836 362.078 9.24609 362.332 9.24609C362.582 9.24609 362.779 9.31836 362.924 9.46289C363.068 9.60352 363.141 9.78125 363.141 9.99609C363.141 10.207 363.068 10.3828 362.924 10.5234C362.779 10.6641 362.582 10.7344 362.332 10.7344C362.078 10.7344 361.879 10.6641 361.734 10.5234C361.594 10.3828 361.523 10.207 361.523 9.99609ZM365.982 13.0137V18H364.57V11.6602H365.9L365.982 13.0137ZM365.73 14.5957L365.273 14.5898C365.277 14.1406 365.34 13.7285 365.461 13.3535C365.586 12.9785 365.758 12.6562 365.977 12.3867C366.199 12.1172 366.465 11.9102 366.773 11.7656C367.082 11.6172 367.426 11.543 367.805 11.543C368.109 11.543 368.385 11.5859 368.631 11.6719C368.881 11.7539 369.094 11.8887 369.27 12.0762C369.449 12.2637 369.586 12.5078 369.68 12.8086C369.773 13.1055 369.82 13.4707 369.82 13.9043V18H368.402V13.8984C368.402 13.5938 368.357 13.3535 368.268 13.1777C368.182 12.998 368.055 12.8711 367.887 12.7969C367.723 12.7188 367.518 12.6797 367.271 12.6797C367.029 12.6797 366.812 12.7305 366.621 12.832C366.43 12.9336 366.268 13.0723 366.135 13.248C366.006 13.4238 365.906 13.627 365.836 13.8574C365.766 14.0879 365.73 14.334 365.73 14.5957ZM374.818 16.2832C374.818 16.1426 374.783 16.0156 374.713 15.9023C374.643 15.7852 374.508 15.6797 374.309 15.5859C374.113 15.4922 373.824 15.4062 373.441 15.3281C373.105 15.2539 372.797 15.166 372.516 15.0645C372.238 14.959 372 14.832 371.801 14.6836C371.602 14.5352 371.447 14.3594 371.338 14.1562C371.229 13.9531 371.174 13.7188 371.174 13.4531C371.174 13.1953 371.23 12.9512 371.344 12.7207C371.457 12.4902 371.619 12.2871 371.83 12.1113C372.041 11.9355 372.297 11.7969 372.598 11.6953C372.902 11.5938 373.242 11.543 373.617 11.543C374.148 11.543 374.604 11.6328 374.982 11.8125C375.365 11.9883 375.658 12.2285 375.861 12.5332C376.064 12.834 376.166 13.1738 376.166 13.5527H374.754C374.754 13.3848 374.711 13.2285 374.625 13.084C374.543 12.9355 374.418 12.8164 374.25 12.7266C374.082 12.6328 373.871 12.5859 373.617 12.5859C373.375 12.5859 373.174 12.625 373.014 12.7031C372.857 12.7773 372.74 12.875 372.662 12.9961C372.588 13.1172 372.551 13.25 372.551 13.3945C372.551 13.5 372.57 13.5957 372.609 13.6816C372.652 13.7637 372.723 13.8398 372.82 13.9102C372.918 13.9766 373.051 14.0391 373.219 14.0977C373.391 14.1562 373.605 14.2129 373.863 14.2676C374.348 14.3691 374.764 14.5 375.111 14.6602C375.463 14.8164 375.732 15.0195 375.92 15.2695C376.107 15.5156 376.201 15.8281 376.201 16.207C376.201 16.4883 376.141 16.7461 376.02 16.9805C375.902 17.2109 375.73 17.4121 375.504 17.584C375.277 17.752 375.006 17.8828 374.689 17.9766C374.377 18.0703 374.025 18.1172 373.635 18.1172C373.061 18.1172 372.574 18.0156 372.176 17.8125C371.777 17.6055 371.475 17.3418 371.268 17.0215C371.064 16.6973 370.963 16.3613 370.963 16.0137H372.328C372.344 16.2754 372.416 16.4844 372.545 16.6406C372.678 16.793 372.842 16.9043 373.037 16.9746C373.236 17.041 373.441 17.0742 373.652 17.0742C373.906 17.0742 374.119 17.041 374.291 16.9746C374.463 16.9043 374.594 16.8105 374.684 16.6934C374.773 16.5723 374.818 16.4355 374.818 16.2832Z" fill="white"/>
<path d="M381.438 9.46875V18H379.967V9.46875H381.438ZM390.033 9.46875V18H388.562L384.736 11.8887V18H383.266V9.46875H384.736L388.574 15.5918V9.46875H390.033ZM396.273 15.8027C396.273 15.627 396.246 15.4707 396.191 15.334C396.141 15.1973 396.049 15.0723 395.916 14.959C395.783 14.8457 395.596 14.7363 395.354 14.6309C395.115 14.5215 394.811 14.4102 394.439 14.2969C394.033 14.1719 393.658 14.0332 393.314 13.8809C392.975 13.7246 392.678 13.5449 392.424 13.3418C392.17 13.1348 391.973 12.8984 391.832 12.6328C391.691 12.3633 391.621 12.0527 391.621 11.7012C391.621 11.3535 391.693 11.0371 391.838 10.752C391.986 10.4668 392.195 10.2207 392.465 10.0137C392.738 9.80273 393.061 9.64062 393.432 9.52734C393.803 9.41016 394.213 9.35156 394.662 9.35156C395.295 9.35156 395.84 9.46875 396.297 9.70312C396.758 9.9375 397.111 10.252 397.357 10.6465C397.607 11.041 397.732 11.4766 397.732 11.9531H396.273C396.273 11.6719 396.213 11.4238 396.092 11.209C395.975 10.9902 395.795 10.8184 395.553 10.6934C395.314 10.5684 395.012 10.5059 394.645 10.5059C394.297 10.5059 394.008 10.5586 393.777 10.6641C393.547 10.7695 393.375 10.9121 393.262 11.0918C393.148 11.2715 393.092 11.4746 393.092 11.7012C393.092 11.8613 393.129 12.0078 393.203 12.1406C393.277 12.2695 393.391 12.3906 393.543 12.5039C393.695 12.6133 393.887 12.7168 394.117 12.8145C394.348 12.9121 394.619 13.0059 394.932 13.0957C395.404 13.2363 395.816 13.3926 396.168 13.5645C396.52 13.7324 396.812 13.9238 397.047 14.1387C397.281 14.3535 397.457 14.5977 397.574 14.8711C397.691 15.1406 397.75 15.4473 397.75 15.791C397.75 16.1504 397.678 16.4746 397.533 16.7637C397.389 17.0488 397.182 17.293 396.912 17.4961C396.646 17.6953 396.326 17.8496 395.951 17.959C395.58 18.0645 395.166 18.1172 394.709 18.1172C394.299 18.1172 393.895 18.0625 393.496 17.9531C393.102 17.8438 392.742 17.6777 392.418 17.4551C392.094 17.2285 391.836 16.9473 391.645 16.6113C391.453 16.2715 391.357 15.875 391.357 15.4219H392.828C392.828 15.6992 392.875 15.9355 392.969 16.1309C393.066 16.3262 393.201 16.4863 393.373 16.6113C393.545 16.7324 393.744 16.8223 393.971 16.8809C394.201 16.9395 394.447 16.9688 394.709 16.9688C395.053 16.9688 395.34 16.9199 395.57 16.8223C395.805 16.7246 395.98 16.5879 396.098 16.4121C396.215 16.2363 396.273 16.0332 396.273 15.8027ZM402.561 9.46875V18H401.102V9.46875H402.561ZM405.238 9.46875V10.6406H398.447V9.46875H405.238ZM409.123 10.6055L406.574 18H405.033L408.244 9.46875H409.229L409.123 10.6055ZM411.256 18L408.701 10.6055L408.59 9.46875H409.58L412.803 18H411.256ZM411.133 14.8359V16.002H406.492V14.8359H411.133ZM420.525 9.46875V18H419.055L415.229 11.8887V18H413.758V9.46875H415.229L419.066 15.5918V9.46875H420.525ZM425.611 9.46875V18H424.152V9.46875H425.611ZM428.289 9.46875V10.6406H421.498V9.46875H428.289ZM434.758 16.834V18H430.475V16.834H434.758ZM430.885 9.46875V18H429.414V9.46875H430.885ZM435.221 9.46875L437.201 13.541L439.182 9.46875H440.811L437.939 14.8594V18H436.457V14.8594L433.586 9.46875H435.221ZM443.23 9.46875L443.09 15.4863H441.883L441.736 9.46875H443.23ZM441.695 17.332C441.695 17.1172 441.766 16.9375 441.906 16.793C442.051 16.6445 442.25 16.5703 442.504 16.5703C442.754 16.5703 442.951 16.6445 443.096 16.793C443.24 16.9375 443.312 17.1172 443.312 17.332C443.312 17.5391 443.24 17.7168 443.096 17.8652C442.951 18.0098 442.754 18.082 442.504 18.082C442.25 18.082 442.051 18.0098 441.906 17.8652C441.766 17.7168 441.695 17.5391 441.695 17.332Z" fill="url(#paint2_linear_26190_26681)"/>
<defs>
<linearGradient id="paint0_linear_26190_26681" x1="230" y1="0" x2="230" y2="28" gradientUnits="userSpaceOnUse">
<stop stop-color="#07051A"/>
<stop offset="1" stop-color="#020B34"/>
</linearGradient>
<linearGradient id="paint1_linear_26190_26681" x1="150" y1="14" x2="215.951" y2="21.4388" gradientUnits="userSpaceOnUse">
<stop stop-color="#F7FF01"/>
<stop offset="1" stop-color="#F89251"/>
</linearGradient>
<linearGradient id="paint2_linear_26190_26681" x1="379" y1="14" x2="444.951" y2="21.4388" gradientUnits="userSpaceOnUse">
<stop stop-color="#F7FF01"/>
<stop offset="1" stop-color="#F89251"/>
</linearGradient>
</defs>
</svg>
