<svg width="221" height="100" viewBox="0 0 221 100" fill="none" xmlns="http://www.w3.org/2000/svg">
<path d="M66.9368 2.08066C66.8577 1.89456 66.9159 1.79453 67.1953 1.68054C67.0653 1.8806 67.0056 1.97365 66.9368 2.08066ZM66.2123 2.50636C66.3497 2.52264 66.4692 1.84571 66.1435 1.88525C65.5893 1.95039 66.0853 2.49007 66.2123 2.50636ZM63.9489 2.32026C63.4963 1.55725 63.4499 1.83175 63.686 2.63895C63.7532 2.52031 63.9594 2.52729 63.9489 2.32026ZM68.7057 1.58052C68.5518 1.6503 68.489 1.75731 68.5682 1.95271C68.743 1.85734 68.7863 1.74103 68.7057 1.58052ZM78.9631 4.83259C79.3023 4.89307 79.4203 4.70697 79.359 4.36967C77.9099 4.32314 75.6107 4.69534 75.4016 4.30453C74.9175 4.96518 74.2736 4.31151 73.7268 4.49528C73.5625 4.55111 73.2891 4.80235 73.2279 4.36269C73.0157 4.74884 72.5959 4.52785 72.3151 4.68138C70.11 5.88637 77.4259 4.55577 78.9616 4.83259H78.9631ZM62.4311 2.4924C62.6552 2.46448 62.8105 2.44355 63.0047 2.42029C62.7926 2.15044 62.6298 2.16207 62.4311 2.4924ZM71.5218 5.26061C71.5666 5.3839 71.8639 5.04893 71.7533 4.84189C71.6861 4.71395 71.6174 4.9047 71.5591 4.88609C71.3515 4.82328 71.1513 4.73954 70.969 4.91866C70.7867 4.63951 70.7987 4.8163 70.8062 4.94657C70.8331 5.52348 71.3873 4.88144 71.5218 5.25829V5.26061ZM54.1292 2.87855C53.9932 2.99021 53.7019 2.89716 53.7422 3.21586C53.7721 3.44848 54.1172 3.4415 54.1292 2.87855ZM60.7922 2.52031C60.8146 1.94108 60.2215 2.76457 60.1842 2.2621C60.1737 2.40865 59.8779 2.35515 59.9646 2.49938C60.4068 3.23679 60.7698 3.06698 60.7907 2.52031H60.7922ZM72.1403 2.17371C72.2433 2.00389 72.6392 2.04111 72.4689 1.6852C72.4226 1.5875 72.3913 1.44094 72.2643 1.49445C71.9356 1.62937 72.1955 1.9341 72.1403 2.17371ZM55.0973 2.82505C54.8941 3.02976 54.9703 3.26006 55.0659 3.49268C55.3811 3.27401 55.2063 3.03906 55.0973 2.82505ZM58.375 3.1135C58.4781 3.08094 58.5543 2.89484 58.4108 2.86692C58.2659 2.84133 58.2435 3.15538 58.375 3.1135ZM62.1965 2.46914C62.2159 2.37144 62.0426 2.25047 62.0038 2.55055C61.9844 2.70176 62.1696 2.60871 62.1965 2.46914ZM61.0865 2.99487C61.5466 2.58312 61.3883 2.65058 61.2105 2.07135C60.8131 2.31095 61.2105 2.62267 61.0865 2.99487ZM62.4878 3.02976C62.5356 2.91345 62.5476 2.79946 62.4729 2.62965C62.4206 2.80644 62.3564 2.92275 62.4878 3.02976ZM74.3737 1.83873C74.3692 1.62472 74.1661 1.66659 74.1705 1.85036C74.175 2.05739 74.3782 2.03181 74.3737 1.83873ZM85.91 0.898931C85.6516 0.466252 85.308 0.789598 85.2288 0.796577C85.432 0.968718 85.6471 1.05014 85.91 0.898931ZM86.6301 0.824492C86.6301 0.824492 86.4015 1.01989 86.4897 1.20599C89.99 0.580237 86.8363 0.919867 86.6301 0.824492ZM88.7799 3.5299C88.7978 3.64854 88.8815 3.49966 88.9353 3.55316C88.9637 3.58108 89.0294 3.63691 89.0473 3.5392C89.0832 3.3531 88.7635 3.42057 88.7799 3.5299ZM90.2978 0.598847C90.0707 0.787272 90.1304 0.964065 90.1902 1.28741C90.3829 0.996633 90.3695 0.824492 90.2978 0.598847ZM89.0802 1.15016C88.8501 1.19436 88.5932 1.09433 88.2988 1.32928C88.632 1.27113 88.8905 1.43396 89.0802 1.15016ZM85.2288 0.794251C85.2288 0.794251 85.2168 0.784946 85.2108 0.780293C85.2108 0.791924 85.2183 0.794251 85.2288 0.794251ZM122.504 91.5778C122.485 91.6755 122.657 91.7964 122.697 91.4987C122.718 91.3475 122.533 91.4382 122.504 91.5778ZM77.2541 1.3223C77.3004 1.33859 77.3482 1.3665 77.3945 1.36883C77.6694 1.38511 77.4677 0.957087 77.2541 1.3223ZM76.3233 1.78988C76.3233 1.60145 76.4025 1.41535 76.2606 1.18273C76.0813 1.44947 76.1022 1.65185 76.3233 1.78988ZM84.0784 1.23856C84.3802 0.92452 84.3638 1.42001 84.5401 1.42001C84.6327 1.07107 84.7597 0.931498 84.9076 1.01524C85.2243 1.19436 85.8069 0.67096 83.9544 0.898931C83.5511 0.947782 83.7542 1.57354 84.0769 1.23623L84.0784 1.23856ZM80.738 4.28825C80.5363 4.41154 79.2634 3.79974 79.6399 4.71395C80.1583 4.25801 81.1309 5.45834 80.738 4.28825ZM81.4087 0.910562C81.3012 1.09201 81.3505 1.28509 81.349 1.47816C81.5711 1.29672 81.591 1.10752 81.4087 0.910562ZM80.859 0.987328C80.5706 1.03153 80.717 1.23158 80.7753 1.39442C80.8261 1.30602 81.5357 0.882647 80.859 0.987328ZM48.2684 4.31849C48.2774 4.26731 48.1788 4.26964 48.0921 4.25801C47.3227 4.15333 48.1429 4.91168 48.2684 4.31849ZM50.5721 91.3126C50.7962 91.3382 51.0218 91.3637 51.3833 91.4056C51.0457 91.1404 50.8111 91.2102 50.5721 91.3126ZM113.022 98.9217C111.312 98.8333 108.073 98.2098 106.667 98.2889C105.996 98.3261 106.367 97.9051 105.021 97.7655C104.308 97.6911 102.061 97.8702 101.81 97.0514C101.843 97.4701 101.58 97.4817 101.338 97.4561C100.584 97.3771 100.174 97.6353 99.0538 97.498C90.4472 96.4582 113.515 99.7545 113.382 99.4078C113.311 99.2194 113.375 98.938 113.021 98.9217H113.022ZM0.160156 32.3286C0.345406 32.3868 0.454465 32.4217 0.623281 32.4752C0.511235 32.2379 0.382755 32.2775 0.160156 32.3286ZM95.9359 96.9746C95.4639 97.4003 95.8164 97.4561 96.0032 97.3119C96.172 97.3375 96.5021 97.5818 96.529 97.2631C96.5574 96.9374 96.042 97.3119 95.9344 96.9769L95.9359 96.9746ZM32.8971 5.0466C32.7134 5.16524 32.3922 5.02334 32.3324 5.37693C32.4684 5.16757 32.7955 5.31877 32.8971 5.0466ZM114.416 99.2753C114.488 98.7542 113.807 99.5358 114.313 99.6474C114.48 99.566 114.398 99.4032 114.416 99.2753ZM115.157 99.6358C115.145 99.8405 115.229 99.7591 115.423 99.6521C115.23 99.5195 115.169 99.4451 115.157 99.6358ZM89.2968 96.3233C88.7515 96.1837 88.9159 96.6164 89.1922 96.6606C90.7071 96.9025 90.4785 96.8211 90.6339 96.6652C90.6727 96.3931 90.3919 96.6047 89.2968 96.3233ZM80.2465 95.6696C80.0418 95.6929 79.8998 95.7091 79.6832 95.7347C79.9223 95.9185 80.0687 95.8999 80.2465 95.6696ZM91.9441 96.8467C91.9321 96.9932 95.5012 97.5329 95.5117 97.0956C95.2741 97.0281 91.9635 96.628 91.9441 96.8467ZM81.3206 95.7952C81.2026 95.765 81.0786 95.7557 80.9576 95.7533C80.8156 95.7487 80.599 95.4556 80.5452 95.765C80.4765 96.1628 80.7783 95.8138 80.8978 95.8906C81.0263 95.9743 81.5656 96.0953 81.5701 95.8627C81.5746 95.5812 81.4058 95.8161 81.3221 95.7929L81.3206 95.7952ZM79.1439 95.7906C79.6399 95.7626 79.5607 95.7999 79.5428 95.6394C79.0812 95.7324 79.1305 95.6952 79.1439 95.7906ZM90.6608 96.642C90.743 96.5931 90.613 96.9676 91.593 96.742C91.2793 96.7583 90.991 96.3651 90.6608 96.642ZM33.9429 6.31672C33.8084 6.58889 33.5052 6.32835 33.3513 6.58657C33.1989 6.84013 34.0564 6.54004 33.9429 6.31672ZM48.6419 3.75089C48.6822 3.69739 48.73 3.66017 48.7315 3.62062C48.7375 3.47407 48.3311 3.49268 48.6419 3.75089ZM91.8081 0.661655C91.593 0.801229 91.6558 0.975697 91.6767 1.25484C91.7364 0.996633 91.8978 0.889626 91.8081 0.661655ZM81.83 95.8161C81.7882 96.1767 83.1283 96.0395 83.2583 96.0976C84.5132 96.6443 84.3698 95.8859 84.7851 96.2256C85.0092 96.4093 85.284 96.4326 85.538 96.3907C87.8716 96.0255 87.2157 97.1886 87.6355 96.4954C87.8761 96.735 88.1076 96.3535 88.3168 96.4768C88.4079 96.5303 88.4034 96.7885 88.5932 96.6257C89.0981 96.193 81.8629 95.523 81.8285 95.8138L81.83 95.8161ZM50.1209 4.23242C50.3794 4.20916 50.4077 3.36474 49.9984 3.83231C49.8729 3.97421 49.6697 4.01608 49.4651 4.00445C49.3291 3.99747 48.9407 4.3371 50.1209 4.23242ZM51.1248 2.404C51.0173 2.4389 50.8754 2.40168 50.8574 2.56684C51.0023 2.63895 51.0815 2.54823 51.1248 2.404ZM50.829 4.10448C51.0785 4.05563 50.8425 3.87418 50.9112 3.77183C51.2608 3.25308 51.0023 3.36241 50.7693 3.5834C50.5571 3.78578 50.7155 4.12541 50.829 4.10448ZM39.6991 5.76075C39.5572 5.69329 39.4242 5.71888 39.2972 5.79332C39.3465 5.86543 39.5856 5.8887 39.6991 5.76075ZM47.0717 4.50226C46.9761 4.3906 46.9074 4.56042 46.8088 4.61625C47.0508 4.66045 47.2226 4.67906 47.0717 4.50226ZM46.4607 4.75582C46.032 4.55344 45.6435 4.72093 45.2372 4.72791C45.2596 4.93959 45.0713 4.90703 46.4607 4.75582ZM44.2362 5.06986C44.2586 4.93494 43.909 4.89307 43.9225 5.07917C43.9315 5.19548 44.2093 5.22572 44.2362 5.06986ZM41.946 5.46067C41.6965 5.39786 41.5381 5.34668 41.3305 5.54209C41.6024 5.63049 41.7129 5.47928 41.946 5.46067ZM43.5161 5.13267C43.5714 5.00008 43.2517 5.0024 43.2696 5.14663C43.2935 5.33273 43.4773 5.2234 43.5161 5.13267ZM44.9877 4.95588C44.8114 4.84422 44.6247 4.74419 44.4529 5.04195C44.671 5.00706 44.8293 4.98147 44.9877 4.95588ZM44.3184 2.89251C44.3811 2.87623 44.4827 2.98789 44.4902 2.81807C44.5111 2.3598 43.921 2.99254 44.3184 2.89251ZM105.989 1.03153C105.679 0.998959 105.358 0.836123 105.079 1.13388C105.37 0.97337 105.691 1.12923 105.989 1.03153ZM129.623 1.61076C129.623 1.61076 129.625 1.61774 129.623 1.62239C129.665 2.2621 131.116 1.95969 131.456 1.72474C129.983 1.68287 129.66 1.61076 129.608 1.59447C129.611 1.59447 129.614 1.59913 129.617 1.60145C129.61 1.5968 129.598 1.60145 129.581 1.61308C129.595 1.61541 129.608 1.61774 129.623 1.62239C129.623 1.61774 129.623 1.61541 129.623 1.61076ZM129.583 1.61308C129.22 1.54097 129.22 1.55725 129.25 1.98528C129.318 1.92015 129.499 1.67822 129.583 1.61308ZM130.86 2.97626C131.02 3.32054 131.298 3.01115 130.992 2.93671C130.954 2.94834 130.906 2.9623 130.86 2.97626ZM132.275 1.6945C132.3 1.89456 132.248 2.08531 132.093 2.3947C132.457 2.1109 132.394 1.90619 132.275 1.6945ZM134.199 1.99226C134.199 1.99226 133.318 1.66891 133.253 1.83873C134.656 3.12281 134.665 1.34091 134.199 1.99226ZM132.569 2.17603C132.662 2.14579 132.787 1.969 132.605 1.92945C132.462 1.89688 132.436 2.2179 132.569 2.17603ZM129.393 4.69069C129.787 5.30016 131.084 4.73489 130.367 4.66045C130.274 4.65114 128.878 4.38363 128.867 4.53483C128.964 4.9047 129.318 4.5767 129.393 4.69069ZM133.141 1.55725C133.074 1.52934 133.038 1.50375 132.999 1.49677C132.778 1.45955 132.735 1.8713 133.141 1.55725ZM121.847 0.770988C121.765 0.8873 121.716 0.957087 121.669 1.0292C121.614 1.1176 121.984 1.08503 121.847 0.770988ZM124.566 1.55493C124.405 1.58284 124.278 1.4991 124.175 1.61308C124.086 1.71311 124.403 1.93178 124.566 1.55493ZM121.43 1.56889C121.447 1.39442 121.306 1.42466 121.16 1.45955C121.263 1.69683 121.338 1.62472 121.43 1.56889ZM128.869 4.53483C128.869 4.53483 128.866 4.53483 128.864 4.53483C128.864 4.53483 128.867 4.53483 128.869 4.53483ZM125.879 1.79918C125.613 1.51771 125.292 1.58982 124.904 1.61541C125.237 1.92247 125.571 1.76894 125.879 1.79918ZM128.864 4.5325C128.025 4.26731 128.171 4.9582 128.864 4.5325V4.5325ZM139.591 5.38158C139.598 5.37693 139.65 5.34436 139.703 5.31179C139.353 4.96984 139.328 5.43043 139.591 5.38158ZM142.341 6.00036C142.314 5.75378 142.419 5.60257 142.222 5.51185C142.193 5.49789 142.117 5.53976 142.095 5.57698C141.968 5.791 142.187 5.80495 142.341 6.00268V6.00036ZM92.1353 2.00854C92.0532 1.90386 91.962 1.92247 91.8649 1.98761C91.9501 2.076 92.0427 2.03878 92.1353 2.00854ZM142.78 5.84915C142.889 5.85148 143.031 5.82822 142.925 5.69097C142.852 5.59559 142.329 5.83519 142.78 5.84915ZM148.253 6.06316C148.142 5.93755 147.125 5.898 147.107 5.9864C147.057 6.23996 148.601 6.46328 148.253 6.06316ZM148.846 6.0748C148.617 5.98407 148.505 6.10038 148.393 6.22135C148.538 6.20739 148.708 6.27485 148.846 6.0748ZM141.265 3.14142C141.233 3.14142 141.201 3.13909 141.168 3.13677C141.2 3.14374 141.233 3.14374 141.265 3.14142ZM146.648 5.82822C146.638 5.81193 146.603 5.74214 146.596 5.7468C146.237 5.87241 146.657 6.20972 146.648 5.82822ZM137.232 2.32724C137.214 2.18999 137.055 2.23186 137.002 2.14346C136.67 2.42959 137.229 2.54125 137.232 2.32724ZM137.81 2.48309C137.949 2.5017 137.82 2.34585 137.752 2.25047C137.626 2.39005 137.72 2.46914 137.81 2.48309ZM139.205 5.52813C139.311 5.56535 139.386 5.15593 139.107 5.15593C138.742 5.15593 138.856 5.40949 139.205 5.52813ZM135.567 2.24349C135.662 2.08764 135.833 2.41331 135.833 2.12485C135.683 2.03646 135.542 1.81547 135.349 2.10159C135.055 1.7829 134.888 1.96202 134.961 2.15975C135.193 2.01552 135.348 2.60638 135.567 2.24349ZM121.58 4.41387C122.029 4.01608 120.86 4.07656 121.037 4.28127C121.512 4.17892 121.297 4.66277 121.58 4.41387ZM140.371 5.57233C140.403 5.24666 140.087 5.24433 140.06 5.45137C140.034 5.64444 140.351 5.76773 140.371 5.57233ZM141.085 2.60406C141.153 2.60871 141.234 2.60406 141.234 2.56451C141.204 2.18068 140.705 2.57382 141.085 2.60406ZM141.265 3.14142C141.44 3.15072 141.625 3.16003 141.875 3.17166C141.637 2.99719 141.445 3.12513 141.265 3.14142ZM104.622 0.482536C104.375 0.522081 104.114 0.396465 103.921 0.626762C103.727 0.857059 104.505 0.761683 104.622 0.482536ZM102.281 1.09201C102.46 0.994306 102.556 0.940803 102.675 0.875669C102.479 0.796577 102.378 0.838449 102.281 1.09201ZM103.5 1.06177C103.467 0.843101 103.957 0.833796 103.709 0.559301C103.576 0.412749 103.35 0.40577 103.255 0.54767C103.105 0.768662 103.465 0.836123 103.5 1.05944V1.06177ZM103.987 1.76196C104.094 1.84803 104.218 1.82244 104.365 1.78057C104.215 1.46653 103.887 1.68287 103.987 1.76196ZM107.787 0.6035C107.459 0.663982 107.014 0.352267 106.789 0.871016C107.196 1.05479 107.439 0.622109 107.787 0.6035ZM105.514 0.608152C105.49 0.454621 105.318 0.522081 105.148 0.533713C105.315 0.668634 105.555 0.864037 105.514 0.608152ZM123.576 91.4335C123.455 91.4777 123.461 91.6289 123.547 91.6382C123.717 91.6545 123.703 91.387 123.576 91.4335ZM94.8379 0.682591C94.7617 0.573259 94.693 0.475557 94.5271 0.238281C94.5824 0.552322 94.557 0.752378 94.8379 0.682591ZM102.469 1.73405C102.469 1.64565 102.542 1.66891 101.991 1.65263C101.991 1.74335 101.916 1.72009 102.469 1.73405ZM108.809 3.62527C108.92 3.59038 108.877 3.32752 108.321 3.42754C108.525 3.40428 108.588 3.69739 108.809 3.62527ZM94.1492 1.09899C94.0296 1.06177 93.9415 1.01989 93.8504 1.01059C92.9645 0.929172 93.9445 1.47351 94.1492 1.09899ZM96.3826 0.589542C96.2183 0.54767 96.0779 0.519755 95.927 0.58489C96.0988 0.891952 96.2258 0.696549 96.3826 0.589542ZM97.1505 1.11992C97.6017 1.0385 97.1505 0.782619 97.0803 1.03153C97.0982 1.05479 97.1311 1.12458 97.1505 1.11992ZM101.25 0.629088C100.657 0.356919 100.122 0.419727 99.6663 0.917541C100.165 0.668634 100.697 0.589542 101.25 0.629088ZM120.703 4.25103C120.901 4.50226 120.931 4.61392 121.039 4.28127C120.973 4.21148 120.734 3.98817 120.588 4.11611C120.619 4.151 120.646 4.18357 120.671 4.21381C120.507 4.06028 120.392 4.12774 120.389 4.22079C120.384 4.34408 120.504 4.50924 120.704 4.25336L120.703 4.25103ZM118.015 1.92247C118.094 1.93876 118.17 1.85269 118.042 1.69218C117.964 1.78057 117.83 1.88525 118.015 1.92247ZM119.05 4.37665C119.219 4.13705 119.382 4.50459 119.573 4.34873C119.324 3.90907 118.946 4.02306 118.904 4.29523C118.891 4.38595 119.029 4.40456 119.049 4.37665H119.05ZM118.256 1.2153C118.23 1.20367 118.148 1.29206 118.115 1.35022C117.937 1.65961 118.775 1.44094 118.256 1.2153ZM118.169 4.12076C118.09 4.38595 118.701 4.54414 118.614 3.91838C118.489 4.12309 118.233 3.90907 118.169 4.12076ZM121.04 4.28127C121.06 4.30221 121.061 4.30686 121.04 4.28127V4.28127ZM121.039 4.28127C121.039 4.28127 121.039 4.28127 121.04 4.28127C121.04 4.28127 121.04 4.28127 121.039 4.28127ZM111.8 0.605826C111.634 0.619783 111.469 0.633741 111.304 0.650024C111.475 0.780293 111.642 0.824492 111.8 0.605826ZM114.117 1.28509C114.165 1.30137 114.211 1.32928 114.259 1.33161C114.536 1.34557 114.329 0.917541 114.117 1.28509ZM114.908 3.7253C114.57 3.8579 114.728 3.50431 114.443 3.57642C114.588 3.69041 114.446 4.06028 114.908 3.7253ZM111.385 1.07805C111.221 1.20599 111.116 1.28509 110.985 1.38977C111.222 1.4456 111.33 1.37348 111.385 1.07805ZM117.973 3.60201C117.791 3.59038 117.84 3.45779 117.809 4.34641C118.033 4.06958 117.946 3.82533 117.973 3.60201ZM117.861 1.25717C117.671 1.11294 117.468 0.929172 117.476 1.15714C117.48 1.33394 117.659 1.25019 117.861 1.25717ZM117.87 0.76401C117.624 0.70818 117.425 0.668634 117.562 0.852406C117.664 0.987328 117.754 0.815187 117.87 0.76401ZM99.8426 1.70381C99.4661 1.75964 99.2137 1.79918 98.9418 1.83873C99.2655 1.89611 99.5657 1.85114 99.8426 1.70381ZM212.838 68.3852C213.216 68.5946 213.523 68.776 213.891 68.4108C213.532 68.4108 213.228 68.1712 212.838 68.3852ZM215.742 88.5025C216.437 88.5327 216.345 88.5583 216.372 88.4746C215.661 88.4443 215.743 88.4164 215.742 88.5025ZM215.129 76.9341C214.478 76.9272 213.921 76.8806 213.516 76.8341C213.874 76.9039 214.381 77.0132 215.059 77.1714C215.28 77.2226 215.267 76.9341 215.129 76.9341ZM213.516 76.8341C212.496 76.634 212.678 76.7364 213.516 76.8341V76.8341ZM211.784 77.5738C211.711 77.5087 211.668 77.4436 211.61 77.425C211.454 77.3738 211.368 77.7181 211.784 77.5738ZM211.241 77.2063C211.811 77.3482 212.233 77.3296 212.658 77.2807C212.236 77.2738 211.844 76.9527 211.241 77.2063ZM210.588 76.4061C211.173 76.5503 211.761 76.6782 212.372 76.6224C211.802 76.3153 211.191 76.3991 210.588 76.4061ZM217.473 67.0058C217.384 66.9825 217.191 67.264 217.442 67.3594C217.624 67.4291 217.662 67.0569 217.473 67.0058ZM87.3353 3.56944C87.3487 3.51594 87.3606 3.45546 87.3696 3.38567C87.3562 3.45081 87.3442 3.51361 87.3353 3.56944ZM78.5404 5.66538C78.5404 5.66538 78.5463 5.6584 78.5478 5.65607C78.5194 5.62351 78.5254 5.63281 78.5404 5.66538ZM97.4403 3.71832C97.4403 3.71832 97.4329 3.73228 97.4284 3.73926C97.4329 3.73926 97.4389 3.73926 97.4433 3.73926C97.4433 3.73228 97.4403 3.7253 97.4403 3.71832ZM186.704 89.3678C186.81 89.3888 186.91 89.4074 187.007 89.4283C186.925 89.3329 186.822 89.3283 186.704 89.3678ZM122.667 4.25103C121.662 4.04167 122.319 4.69534 122.667 4.25103V4.25103ZM217.662 88.7584C217.783 88.7584 217.902 89.0398 218.064 88.7863C217.934 88.6839 217.802 88.7258 217.662 88.7584ZM204.406 75.6896C206.738 76.1409 209.795 76.0246 204.406 75.6896V75.6896ZM202.96 92.7851C202.706 92.7758 202.87 93.0572 203.085 92.9246C203.096 92.806 203.028 92.7874 202.96 92.7851ZM207.658 77.0644C207.842 77.1784 208.02 77.1319 208.345 77.1412C208.056 77.0039 207.87 77.0086 207.658 77.0644ZM204.79 78.7788C204.59 78.5834 204.391 78.5811 204.177 78.7439C204.379 78.7067 204.555 78.9766 204.79 78.7788ZM203.973 78.7788C203.79 78.6648 203.613 78.7114 203.285 78.7021C203.574 78.8393 203.76 78.8347 203.973 78.7788ZM201.581 88.2629C201.522 88.3978 201.839 88.335 201.814 88.1721C201.8 88.0791 201.694 87.9977 201.581 88.2629ZM202.11 79.1627C202.271 79.1068 202.44 79.4232 202.659 79.1743C202.453 79.0533 202.283 79.0789 202.11 79.1627ZM204.032 87.9C203.874 87.9023 203.714 87.9046 203.469 87.9093C203.734 88.1466 203.874 87.9232 204.032 87.9ZM207.307 78.6904C207.428 78.7858 207.54 78.7788 207.69 78.709C207.543 78.6323 207.43 78.6276 207.307 78.6904ZM208.047 78.937C207.966 78.9137 207.921 78.8905 207.875 78.8882C207.707 78.8789 207.612 79.2208 208.047 78.937ZM206.717 78.8928C206.934 78.9673 207.117 78.9905 207.337 78.9068C207.12 78.8323 206.937 78.8091 206.717 78.8928ZM204.14 86.8485C204.37 86.9579 204.551 86.9509 204.864 86.909C204.557 86.8369 204.403 86.6019 204.14 86.8485ZM204.334 82.3822C204.602 82.6125 204.784 82.6543 204.974 82.4101C204.776 82.3333 204.59 82.3403 204.334 82.3822ZM206.349 82.5752C206.039 82.5613 205.803 82.552 205.441 82.5357C205.885 82.6365 206.188 82.6497 206.349 82.5752ZM111.455 82.6032C111.497 82.7474 111.715 82.6985 111.625 82.2961C111.442 82.3542 111.416 82.4706 111.455 82.6032ZM128.773 83.4476C128.51 83.5709 128.676 83.8058 128.619 84.0128C129.208 83.6383 128.869 83.4034 128.773 83.4476ZM130.255 83.8779C130.173 84.0198 129.71 83.6616 130.077 84.1361C130.375 84.1594 130.379 83.6616 130.255 83.8779ZM128.592 82.9474C128.627 83.0405 128.35 83.4476 128.648 83.2568C128.812 83.1498 128.643 83.0591 128.592 82.9474ZM125.437 82.8683C125.192 82.7706 125.353 83.0591 125.453 83.2336C125.582 83.0637 125.709 82.9753 125.437 82.8683ZM133.642 84.0733C133.787 83.9663 133.888 83.8756 133.782 83.7011C133.73 83.8081 133.6 83.8709 133.642 84.0733ZM122.667 4.25103C122.667 4.25103 122.678 4.25103 122.684 4.25336C122.681 4.2487 122.678 4.24405 122.675 4.24172C122.672 4.24405 122.67 4.24638 122.667 4.25103ZM139.329 83.2894C139.329 83.2894 139.331 83.2894 139.332 83.2894C139.332 83.2894 139.329 83.2871 139.328 83.2847V83.2894H139.329ZM201.645 87.793C201.681 87.772 201.796 87.7558 201.775 87.7488C201.587 87.6976 201.549 87.5627 201.534 87.4022C201.295 87.5976 201.475 87.8162 201.646 87.7906L201.645 87.793ZM124.99 82.8544C124.823 82.7869 124.819 83.2056 124.954 83.2405C125.186 83.2987 125.162 82.9242 124.99 82.8544ZM113.363 6.48189C113.302 6.31672 113.252 6.22135 113.13 6.226C112.983 6.23065 113.034 6.6075 113.363 6.48189ZM116.72 82.5752C116.638 82.5752 116.621 82.7288 116.736 82.7776C116.838 82.8195 116.916 82.5776 116.72 82.5752ZM122.307 83.0335C122.336 82.966 122.359 82.9288 122.365 82.8893C122.4 82.6636 121.992 82.6194 122.307 83.0335ZM121.726 82.7055C121.59 82.7311 121.586 82.9614 121.735 82.9102C121.853 82.8707 121.844 82.6846 121.726 82.7055ZM131.123 83.0358C130.875 82.9451 130.521 82.8963 130.51 83.1917C130.911 83.201 131.697 83.2475 131.123 83.0358ZM192.297 86.2251C191.973 86.2111 191.743 86.2018 191.513 86.1902C191.751 86.2367 191.975 86.4996 192.297 86.2251ZM191.092 86.3391C191.235 86.3228 191.335 86.1437 191.184 86.153C190.909 86.1693 190.975 86.353 191.092 86.3391ZM192.317 80.1071C192.199 80.0396 192.085 80.0443 191.964 80.1211C192.073 80.1187 192.196 80.2397 192.317 80.1071ZM212.321 68.1456C212.032 68.0758 211.916 68.4573 212.379 68.2992C212.499 68.2573 212.726 68.5504 212.751 68.2759C212.772 68.0479 212.473 68.1828 212.322 68.1456H212.321ZM26.2505 81.5424C26.1728 81.4773 26.1101 81.3889 26.0653 81.3958C25.6156 81.4773 25.5051 81.8937 26.2505 81.5424ZM199.213 76.969C199.229 76.9597 199.297 76.9248 199.294 76.9155C199.167 76.5526 198.836 76.976 199.213 76.969ZM15.0369 43.1503C14.9757 43.3294 14.8502 43.4527 15.0937 43.6016C15.0145 43.4736 15.279 43.3247 15.0369 43.1503ZM209.016 76.1641C208.563 75.9036 208.067 75.9478 207.574 76.0013C208.036 76.2293 208.532 76.1432 209.016 76.1641ZM209.547 73.2889C209.567 73.161 209.449 73.1726 209.387 73.1261C209.055 72.8818 209.412 73.6774 209.547 73.2889ZM199.739 76.5666C199.897 76.1223 200.221 76.4549 200.516 76.2735C199.81 76.0455 199.745 76.0664 199.739 76.5666ZM209.633 76.3084C210.407 76.3409 210.314 76.3712 210.32 76.2805C209.515 76.1735 209.639 76.1502 209.633 76.3084ZM208.859 73.1587C208.826 73.2494 208.943 73.2331 208.988 73.2703C209.281 73.5146 209.03 72.6748 208.859 73.1587ZM207.687 75.0918C207.787 75.3407 208.008 75.2476 208.166 75.3127C208.041 75.1662 207.929 74.9894 207.687 75.0918ZM187.046 90.2727C187.454 90.4565 187.872 90.5333 188.311 90.3891C187.902 90.2192 187.472 90.2611 187.046 90.2727ZM143.872 91.9174C143.854 92.0081 143.972 92.0639 144.228 91.9127C144.116 91.8197 143.923 91.6499 143.872 91.9174ZM145.961 91.8476C145.552 91.829 145.142 91.8127 144.733 91.7941C145.13 91.9127 145.544 91.9825 145.961 91.8476ZM147.616 91.2614C147.398 91.3265 147.291 91.3568 147.12 91.4079C147.307 91.4521 147.426 91.5126 147.616 91.2614ZM147.247 91.6824C147.047 91.5824 146.443 91.9965 148.165 91.8964C147.863 91.7848 147.54 91.8313 147.247 91.6824ZM139.529 90.7263C139.564 90.517 139.232 90.531 139.229 90.6659C139.226 90.7729 139.5 90.9101 139.529 90.7263ZM138.331 91.7685C138.322 91.9476 138.079 91.8918 140.07 91.9779C139.512 91.715 138.92 91.7732 138.331 91.7685ZM140.276 91.8732C140.786 92.0779 143.078 91.9779 143.566 91.6615C142.395 91.9662 141.339 91.5266 140.276 91.8732ZM149.62 91.3219C149.594 91.4079 149.661 91.4475 149.741 91.4475C150.159 91.4475 149.658 91.1893 149.62 91.3219ZM150.283 90.5077C150.407 90.4891 150.411 90.3565 150.352 90.2006C150.202 90.4309 150.098 90.5356 150.283 90.5077ZM152.116 90.1704C152.328 90.089 152.564 90.2681 152.906 90.1378C152.549 90.0308 152.33 89.9843 152.116 90.1704ZM147.764 91.3707C148.052 91.5033 148.223 91.5522 148.436 91.38C148.223 91.2451 148.055 91.2428 147.764 91.3707ZM148.094 93.6853C147.94 93.6225 147.919 93.7923 147.83 93.8551C148.25 93.9505 148.184 93.7202 148.094 93.6853ZM148.299 90.8659C148.392 90.8124 148.311 90.6612 147.945 90.7892C148.075 90.7775 148.156 90.9473 148.299 90.8659ZM133.699 91.9616C133.714 91.6917 133.915 91.6708 133.985 91.5033C133.703 91.4824 133.592 91.5847 133.699 91.9616ZM129.138 91.4731C129.109 91.6057 129.015 91.7452 129.179 91.8546C129.268 91.9127 129.442 91.615 129.138 91.4731ZM128.646 91.2753C128.507 91.6848 128.464 91.9174 128.997 91.7429C128.719 91.7429 128.827 91.4545 128.646 91.2753ZM129.632 91.8778C129.786 91.8685 129.674 91.7452 129.843 91.5871C129.895 91.0637 129.256 91.9034 129.632 91.8778ZM127.581 91.6452C127.561 91.8662 127.721 91.7987 128.016 91.7801C127.67 91.5452 127.597 91.4521 127.581 91.6452ZM201.815 86.7857C201.629 86.6903 201.439 86.6834 201.228 86.7276C201.427 86.9928 201.627 86.7462 201.815 86.7857ZM137.879 91.4614C137.994 91.501 138.107 91.5242 138.212 91.4242C138.101 91.4545 137.973 91.287 137.879 91.4614ZM129.955 91.8336C130.061 91.8313 130.228 91.7197 130.158 91.5754C130.056 91.3684 129.622 91.8429 129.955 91.8336ZM130.969 91.1427C130.953 91.4754 130.894 91.6615 131.048 91.8197C130.989 91.6545 131.087 91.4777 130.969 91.1427ZM153.922 90.6473C153.617 90.6333 153.313 90.6217 152.882 90.6031C153.301 90.8008 153.611 90.7263 153.922 90.6473ZM137.172 91.9453C137.438 92.0197 137.644 92.1035 137.844 91.936C138.021 91.7871 137.427 91.6685 137.172 91.9453ZM135.103 92.0174C135.164 91.9453 135.231 91.8988 135.251 91.8383C135.314 91.6475 134.824 91.6452 135.103 92.0174ZM132.862 91.6313C132.805 91.5871 132.823 91.387 132.68 91.5056C132.155 91.9383 133.467 92.3594 133.516 91.3335C133.276 91.401 133.259 91.9406 132.86 91.6313H132.862ZM132.006 91.8709C132.134 91.9011 132.128 91.7429 132.084 91.5987C131.851 91.715 131.915 91.8499 132.006 91.8709ZM127.391 91.7615C127.33 91.5661 127.273 91.387 127.209 91.1823C127.056 91.4475 126.794 91.7197 127.391 91.7615ZM192.093 90.724C192.218 90.7101 192.347 90.952 192.514 90.7403C192.369 90.6473 192.236 90.6798 192.093 90.724ZM189.961 90.5472C189.522 90.4053 189.041 90.4891 188.573 90.4007C189.023 90.5054 189.463 90.6775 189.961 90.5472ZM200.205 87.7534C200.067 87.7953 199.93 87.8348 199.697 87.9046C199.949 87.9395 200.102 88.0047 200.205 87.7534ZM183.271 89.861C183.192 89.8377 183.13 89.9099 183.16 89.982C183.343 90.4077 183.703 89.9936 183.271 89.861ZM126.141 89.3911C125.878 89.3748 125.615 89.3562 125.27 89.3329C125.595 89.5656 125.872 89.4399 126.141 89.3911ZM183.785 89.9982C184.42 90.2099 185.076 90.0797 185.719 90.189C185.096 89.8726 184.427 90.0866 183.785 89.9982ZM196.265 86.8602C196.265 86.8602 196.267 86.8602 196.268 86.8602C196.379 86.7578 196.279 86.7857 196.265 86.8602ZM186.165 90.2681C186.359 90.3216 186.532 90.3355 186.701 90.2495C186.528 90.2611 186.353 90.1192 186.165 90.2681ZM201.035 87.7488C200.973 87.665 200.908 87.5813 200.826 87.4696C200.773 87.7209 200.787 87.7906 201.035 87.7488ZM200.191 82.1682C200.164 82.0751 199.967 81.9634 199.928 82.1402C199.896 82.2914 200.233 82.3124 200.191 82.1682ZM200.375 82.2263C200.628 82.3798 200.81 82.203 201.128 82.11C200.793 82.103 200.559 81.9588 200.375 82.2263ZM197.063 81.8262C197.411 82.1263 197.676 82.0565 197.941 81.9634C197.698 81.782 197.435 81.8332 197.063 81.8262ZM154.3 90.7682C154.379 90.7729 154.45 90.7682 154.472 90.6798C154.524 90.4705 154.1 90.6403 154.3 90.7682ZM200.529 87.4091C200.214 87.6185 199.997 87.2556 199.698 87.2672C196.572 87.3719 196.24 87.016 196.265 86.8625C196.15 86.9579 194.473 87.5487 194.898 86.2693C194.616 86.6857 194.236 86.7113 194.002 86.6578C193.558 86.5577 193.464 87.2603 194.027 87.2393C195.692 87.1788 200.519 87.8348 200.572 87.4743C200.575 87.4557 200.529 87.4091 200.528 87.4115L200.529 87.4091ZM198.923 81.989C198.672 81.9262 198.448 81.7285 198.17 81.8355C197.985 81.9076 198.446 82.2472 198.923 81.989ZM196.391 86.5205C197.891 86.7555 199.398 86.8113 200.91 86.7764C199.418 86.4019 197.898 86.5717 196.391 86.5205ZM166.796 90.3681C167.005 90.2355 167.289 90.4844 167.462 90.1797C167.26 90.3169 166.976 90.1378 166.796 90.3681ZM156.971 90.0866C157.276 90.196 157.57 90.1355 157.983 90.0494C157.557 89.8331 157.272 90.0587 156.971 90.0866ZM170.781 94.3925C170.928 94.4693 171.041 94.4739 171.164 94.4111C171.043 94.3157 170.931 94.3227 170.781 94.3925ZM172.446 89.9657C171.639 89.9308 170.868 89.8982 170.096 89.8633C170.865 90.1169 171.637 90.1588 172.446 89.9657ZM154.971 90.6124C155.214 90.731 155.359 90.7263 155.546 90.6775C155.382 90.51 155.225 90.5379 154.971 90.6124ZM155.416 90.1588C155.633 90.0936 155.74 90.0611 155.911 90.0099C155.724 89.9657 155.604 89.9052 155.416 90.1588ZM160.016 90.0122C159.728 90.0169 159.438 90.0238 159.084 90.0285C159.45 90.2913 159.738 90.2076 160.016 90.0122ZM182.73 89.9424C182.742 90.082 183.033 90.075 183.018 89.9354C183.003 89.7959 182.717 89.7982 182.73 89.9424ZM173.799 89.9564C173.666 89.9517 173.533 89.9447 173.323 89.9354C173.523 90.1169 173.656 90.1006 173.799 89.9564ZM181.221 89.761C180.757 89.7656 181.185 90.3518 181.336 90.0983C181.53 89.7749 181.867 90.0866 182.086 89.9215C182.264 89.7889 182.496 90.3518 182.549 89.9354C182.57 89.7726 181.314 89.761 181.221 89.761ZM174.867 89.9052C174.631 90.1448 175.089 90.2099 174.979 89.7563C174.924 89.8308 174.9 89.8726 174.867 89.9052ZM159.834 2.72968C160.056 2.71804 160.227 2.70874 160.397 2.69943C160.225 2.64593 160.053 2.51799 159.834 2.72968ZM222.314 35.3667C222.221 35.2783 222.185 35.0806 222.005 35.041C222.084 35.2411 222.144 35.3411 222.188 35.3853C222.218 35.3923 222.248 35.4016 222.278 35.4086C222.294 35.3969 222.305 35.3783 222.312 35.3667H222.314ZM222.314 35.3667C222.314 35.3667 222.324 35.3783 222.33 35.383C222.327 35.3574 222.321 35.3574 222.314 35.3667ZM160.776 5.10708C160.914 5.22339 161.012 5.22339 161.138 5.16059C161.024 5.03032 160.923 5.08382 160.776 5.10708ZM219.714 37.8232C219.758 38.6886 219.578 39.4376 219.876 39.6772C220.739 40.3704 221.925 40.5146 222.058 40.51C220.532 41.3963 220.23 41.5475 220.097 42.0918C219.837 43.1619 213.507 42.5687 212.025 42.8618C211.176 43.0293 211.151 46.3302 211.717 46.7559C211.77 46.7955 211.628 46.9862 211.592 47.0514C211.256 47.6539 212.494 48.2005 208.952 48.7239C209.137 49.145 209.542 48.7518 209.521 49.131C209.5 49.4893 208.82 48.8821 208.543 49.4544C208.526 49.4893 208.501 49.4986 208.469 49.4939C208.563 49.5614 208.667 49.6056 208.783 49.6265L208.91 49.9382C209.5 49.9429 210.093 49.9312 210.68 50.0359C210.963 50.0848 211.114 50.8059 210.848 50.757C210.482 50.6919 210.104 50.757 209.748 50.8175C209.6 50.8431 209.448 50.8641 209.293 50.8827L215.587 66.4033C215.814 66.594 215.993 66.3265 216.13 66.508C215.965 66.7173 215.699 66.8755 215.746 67.1989C215.842 67.8386 209.632 67.0918 209.624 68.0642C209.623 68.2875 209.883 68.1038 209.923 68.2573C208.525 69.1878 210.35 71.4535 213.038 70.7975C213.186 70.7626 213.353 70.7859 213.452 70.9487C213.356 71.0837 213.177 71.1325 213.159 71.3465C213.139 71.5791 213.408 71.9211 212.984 72.0397C212.141 72.2747 209.255 72.4585 208.814 72.4143C207.918 72.3259 208.109 74.8498 207.4 74.9196C207.032 74.9545 206.706 74.9917 206.415 75.0266C206.417 75.0313 206.42 75.0336 206.421 75.0382C206.317 75.108 206.236 75.108 206.17 75.0569C204.551 75.2662 204.141 75.4546 203.865 75.5686C204.038 75.6128 204.219 75.6524 204.406 75.6873C204.17 75.6733 203.919 75.657 203.651 75.6431C203.572 75.6617 203.483 75.6756 203.356 75.6803C202.846 75.6966 201.824 75.7105 200.91 75.8036C202.809 75.878 207.894 76.0083 208.344 76.769C208.417 76.5689 208.335 76.2874 208.653 76.434C210.719 77.3854 211.268 76.7434 211.263 77.1063C211.256 77.6204 209.635 76.7248 209.754 77.311C209.784 77.4552 209.554 77.3342 209.549 77.2668C209.532 76.9062 209.361 77.0295 209.125 77.0458C208.617 77.0807 207.724 76.7085 207.288 76.9993C207.11 77.1179 207.005 76.7155 206.808 76.7806C206.414 76.9109 206.448 76.7736 206.624 76.5224C206.711 76.3991 206.453 76.4154 206.439 76.4805C206.216 77.5041 203.849 76.4154 202.503 76.4619C202.402 76.4642 202.259 76.4596 202.329 76.2874C202.585 75.664 201.763 76.0036 200.617 75.8362C199.958 75.9176 199.395 76.0455 199.187 76.2572C199.718 76.3944 199.567 76.4247 199.077 76.3944C198.013 77.5762 191.689 76.1292 192.999 77.7204C193.097 77.839 193.179 77.9251 193.255 77.9902C198.285 78.4508 202.319 78.7137 202.833 78.4741C202.994 78.3973 202.979 78.6811 203.196 78.7835C200.087 78.5927 197.499 78.4601 195.349 78.3671C195.491 78.5485 195.354 78.8463 195.453 79.0324C195.663 79.4278 193.504 79.4697 191.159 79.5558C190.944 79.5628 190.769 79.6279 190.632 79.7326C190.636 79.7326 190.641 79.7303 190.647 79.7326C190.753 79.7605 190.938 79.9861 190.757 79.9954C190.57 80.0047 190.542 79.8629 190.575 79.7838C190.261 80.0699 190.165 80.5886 190.234 81.1376C190.878 81.2097 192.021 81.4284 192.362 81.1888C192.397 81.1632 192.406 81.1144 192.468 81.1795C193.022 81.7843 196.725 81.5726 196.893 81.8122C196.694 81.9914 192.025 81.8378 190.279 81.3865C190.478 82.3194 191.125 83.2336 191.963 83.1196C193.863 82.859 195.439 84.071 193.51 84.1315C192.971 84.1478 192.332 83.8779 191.964 84.5316C191.812 84.8038 189.087 84.192 190.192 86.3042C190.278 86.467 190.375 86.5857 190.476 86.6787C190.623 86.5647 190.542 86.3368 190.699 86.3833C192.2 86.8206 194.027 86.0297 193.306 87.2207C193.122 87.0602 192.357 87.0346 191.434 87.0393C191.471 87.0625 191.491 87.0974 191.488 87.1533C191.474 87.3254 191.298 87.3719 191.163 87.3324C190.234 87.0463 188.06 87.6115 187.869 87.5813C187.842 88.1605 186.478 88.6072 184.181 88.9491C185.129 89.098 186.008 89.2445 186.705 89.3795C186.697 89.3818 186.686 89.3864 186.677 89.3888C186.753 89.5725 186.88 89.6051 187.066 89.5237C187.049 89.4888 187.03 89.4609 187.01 89.4376C188.594 89.7563 188.958 89.975 186.39 89.8749C182.605 89.7284 180.857 89.5818 180.153 89.4981C180.311 89.54 180.482 89.6028 180.601 89.6912C180.456 90.0099 180.089 89.6191 179.941 89.8866C179.944 89.8866 179.947 89.8866 179.95 89.8866C179.473 90.4635 177.494 89.961 175.737 89.6423C173.651 89.7377 171.385 89.8052 169.01 89.8517C169.002 89.8982 168.954 89.9633 168.918 90.0308C168.859 89.975 168.799 89.9168 168.736 89.8563C168.558 89.8587 168.381 89.8633 168.201 89.8656C168.197 90.0099 168.221 90.1471 168.384 90.2402C168.18 90.1425 168.048 90.0215 167.988 89.8703C167.641 89.875 167.293 89.8819 166.942 89.8866C166.921 89.8889 166.902 89.8889 166.884 89.8866C166.456 89.8936 166.026 89.8982 165.593 89.9029C165.783 89.975 166.001 90.0052 166.24 89.9075C165.835 90.1471 165.476 90.1332 165.181 89.9075C164.949 89.9075 164.716 89.9122 164.481 89.9145C164.446 89.9215 164.416 89.9215 164.392 89.9145C164.192 89.9145 163.991 89.9168 163.791 89.9192C163.749 89.9494 163.691 89.9796 163.61 90.0145C162.614 90.4309 159.774 90.1541 162.62 89.9261C159.638 89.9401 156.59 89.9308 153.602 89.9029C153.559 89.9494 153.505 89.9773 153.437 89.9029C134.072 89.7237 117.252 88.8398 136.304 89.419C145.82 89.7098 144.879 88.8026 138.679 88.335C138.632 88.3699 138.59 88.4187 138.557 88.4885C138.494 88.6281 138.119 88.007 137.559 88.4513C137.486 88.5095 137.235 88.3606 137.07 88.5699C136.999 88.6607 136.772 88.6955 136.586 88.6048C136.005 88.3257 135.748 88.8002 135.672 88.4071C135.651 88.3001 135.812 88.2326 136.049 88.1814C135.228 88.1442 134.353 88.1163 133.428 88.0977C133.434 88.1489 133.433 88.2024 133.415 88.2652C133.34 88.2117 133.297 88.1535 133.274 88.0931C133.017 88.0884 132.757 88.0838 132.493 88.0814C132.481 88.1652 132.444 88.221 132.341 88.2187C132.229 88.2163 132.217 88.1582 132.231 88.0768C131.948 88.0744 131.661 88.0721 131.369 88.0721C131.567 88.3582 130.978 88.535 130.957 88.1186C130.957 88.1024 130.953 88.0884 130.951 88.0721C130.82 88.0721 130.687 88.0721 130.554 88.0721C130.748 88.2024 130.415 88.3978 130.363 88.1326C130.36 88.1186 130.379 88.0954 130.401 88.0721C130.255 88.0721 130.106 88.0721 129.958 88.0744C129.911 88.1954 129.867 88.3001 129.825 88.335C129.765 88.2326 129.701 88.1419 129.629 88.0768C129.536 88.0768 129.377 88.0721 129.17 88.0675C129.146 88.0838 129.121 88.1024 129.096 88.1256C129.07 88.1047 129.055 88.0861 129.049 88.0651C128.975 88.0651 128.896 88.0605 128.813 88.0605C128.661 88.2233 128.337 88.2815 128.367 88.5816C128.316 88.1698 128.08 88.1652 127.823 88.235C127.584 88.3001 127.476 88.0489 127.261 88.0233C126.822 87.9698 126.413 88.0698 126.06 88.1861C126.792 88.3001 127.412 88.5723 127.582 89.3004C126.52 89.2748 126.159 89.6237 125.894 89.1538C125.476 88.4094 125.061 89.8331 124.566 89.3074C124.275 89.6772 123.036 89.4911 123.023 90.6822C123.012 91.6033 122.273 90.61 122.134 91.8034C122.016 92.8107 119.76 91.7964 119.95 93.8226C120.021 94.5995 119.348 93.7784 117.824 94.5925C117.662 94.6786 117.325 93.9714 117.075 94.5344C117.056 94.5763 116.959 94.6623 116.86 94.5739C116.07 93.8598 115.323 94.4972 115.221 94.4367C113.926 93.6737 111.531 93.8644 110.049 93.9156C109.556 93.9319 109.157 93.6086 108.679 93.5481C108.143 93.4806 106.908 94.0598 104.442 93.034C104.203 92.9339 104.589 93.7388 101.945 93.3387C95.5863 92.378 84.0187 91.5685 83.9276 91.6382C83.3344 92.0919 83.5899 91.1288 83.2254 91.3033C83.1357 91.3451 79.9073 91.0916 75.9603 90.831C75.9663 90.8403 75.9737 90.852 75.9827 90.8636C75.7556 90.8659 75.6764 90.838 75.6869 90.8124C69.3959 90.3984 61.4495 89.9843 61.4271 90.7031C61.4212 90.8729 61.3166 91.0427 61.1762 90.9822C60.6787 90.7729 60.2081 91.0985 59.6837 91.0055C59.3147 90.938 58.7784 90.7287 58.3302 91.0776C57.6519 91.6057 15.3103 88.5606 15.2192 88.556C14.7113 88.5304 15.2834 88.0047 15.4478 88.1559C15.8377 88.5141 16.1708 87.9465 16.5369 88.1256C16.6534 88.1815 16.8147 87.7813 16.4532 87.7767C14.2257 87.7511 13.5564 87.7023 12.7572 87.4813C12.1626 87.3184 13.2741 84.9317 13.41 84.9875C13.8941 85.1876 13.7073 84.7758 13.7342 84.5921C13.8328 83.9407 13.4518 84.2664 12.8199 83.65C12.5525 83.3894 12.2522 83.6127 11.9609 83.5011C11.3484 83.2661 11.9116 82.6916 11.7413 82.2798C11.7129 82.21 19.5337 82.4333 24.15 82.1519C23.6555 81.5354 23.8378 81.1958 24.156 81.4075C25.1226 82.0542 25.033 81.782 24.2979 81.8332C24.5549 82.224 24.9194 81.9448 25.2242 82.0262C25.2197 82.0425 25.2137 82.0588 25.2078 82.0728C26.0608 81.9937 26.7286 81.889 27.1066 81.7518C27.0722 81.6773 27.0319 81.5843 26.9766 81.4773C26.9348 81.4656 26.8899 81.454 26.8406 81.4424C26.8093 81.8471 26.5239 81.8983 26.1803 81.9146C26.2819 81.675 26.5897 81.6936 26.6748 81.4307C26.6748 81.4214 26.6748 81.4121 26.6733 81.4051C24.2905 80.9004 16.6295 80.4886 16.2291 80.7282C16.0917 80.021 20.4719 80.0908 20.6303 80.2769C20.7647 80.4351 20.9575 79.7419 20.4914 79.6768C20.4032 79.6651 18.7763 79.5977 18.8121 79.3301C18.9571 78.2345 16.38 79.493 16.628 78.181C14.3602 78.9719 13.9747 76.3014 15.4104 76.5736C15.8571 76.6573 18.6762 76.4363 18.9496 76.3642C19.8325 76.1316 19.0183 75.564 19.2095 75.4942C19.6054 75.3523 19.8729 73.7216 19.341 74.2822C18.4118 75.2639 19.0034 73.8914 17.6499 74.1264C17.1987 74.2055 17.0777 74.0077 16.879 73.6425C16.2948 72.5748 17.3585 72.2444 17.0582 71.5884C16.8103 71.0464 17.1927 71.1534 17.3989 71.2372C18.3057 71.6117 18.2609 70.3811 18.7882 70.5998C19.1214 70.7394 19.3843 70.1787 19.7294 70.5091C19.8176 70.3765 19.8997 70.2602 19.8699 70.0624C19.7608 69.3087 20.3838 70.202 20.6258 69.5879C20.8633 68.9877 20.2927 69.2366 20.2448 69.0877C19.9983 68.3294 19.8101 69.0063 19.5696 69.1482C19.2708 67.9967 14.4169 68.5504 13.2457 67.6362C12.5077 67.0593 6.71263 66.6266 6.18975 65.6845C6.05529 65.8031 5.95968 65.5612 5.82522 65.6426C5.47265 65.8543 5.16938 65.9008 5.13352 64.847C5.11111 64.198 5.15444 64.1678 5.76696 64.2794C6.74101 64.4585 7.40732 63.1721 6.47061 62.9837C6.23905 62.9372 5.90141 62.8814 5.78937 62.9325C5.15743 63.2233 5.48759 62.1556 4.37908 62.3952C4.21474 62.4301 2.62667 61.9206 2.54749 61.8788C2.57438 61.7485 2.68344 61.6694 2.77756 61.6973C3.34078 61.8671 5.02895 61.5345 5.1156 61.5601C5.88946 61.7764 5.29786 61.0483 5.84464 60.9366C6.00748 60.9041 8.65178 60.5505 8.73992 60.6342C9.23592 61.1088 9.67514 59.8317 8.46952 59.7386C8.28128 59.7247 8.1782 59.6828 8.19015 59.4502C8.22003 58.8547 8.5726 59.5037 8.92966 58.8896C8.58156 58.9221 8.33058 58.6058 7.97801 58.6988C7.84505 58.7337 7.83309 58.6104 7.80172 58.4941C7.29079 56.5936 5.79534 58.0335 6.2271 56.9006C6.251 56.8378 6.27789 56.675 6.26594 56.6633C5.68479 56.0957 6.70815 54.8279 5.98508 54.9047C5.91934 54.9117 5.91934 54.6325 5.99255 54.6395C6.90087 54.7093 6.07919 53.3764 6.87398 53.3973C7.733 53.4183 6.42878 52.0435 7.22655 51.7108C7.59257 51.5573 7.74196 51.1339 8.13487 51.0292C9.25384 50.7315 8.97896 51.3665 9.11789 50.9571C9.60492 49.5102 6.43326 50.5244 7.19518 49.5753C7.96755 48.6146 6.84111 48.7542 6.90983 48.3122C6.92776 48.1935 7.02038 48.0772 7.12048 48.1121C7.79575 48.3424 8.23347 47.6771 8.84301 47.6259C9.10146 47.6027 9.44806 47.5399 9.59297 47.2072C9.70352 46.9513 11.6875 46.8211 12.0864 46.8978C12.8214 47.0397 13.5146 46.2186 14.5887 46.3884C14.6724 46.4023 14.7277 46.3884 14.768 46.3628C14.6903 46.1534 14.3886 46.0371 14.4797 45.8557C14.6799 45.4532 18.0204 45.5486 17.868 44.7623C17.8381 44.7786 17.8097 44.7972 17.7843 44.8205C17.5871 44.9926 17.251 44.874 16.9223 44.7972C16.9641 44.7298 17.1225 44.6553 17.366 44.5786C17.0702 44.6018 16.755 44.5949 16.7759 44.0528C16.7908 43.676 16.1619 43.7877 16.1828 43.2805C16.0872 43.2387 15.9916 43.1666 15.8974 43.0549C15.8257 42.9665 15.3372 42.9595 14.7023 42.9898C14.8128 43.0293 14.8771 43.0875 14.7426 43.2526C14.6171 43.4038 14.5738 43.1642 14.5559 43.1642C14.3661 43.1782 14.2586 43.1154 14.1839 43.02C12.8617 43.1084 11.2587 43.2922 11.2513 43.2736C11.1512 43.0386 11.429 42.9828 11.6666 42.9223C11.8294 42.8804 11.8847 42.5803 11.5276 42.5664C10.6522 42.5315 9.36738 43.4038 9.22994 43.0712C9.14329 42.8618 9.42864 42.8851 9.4869 42.7502C9.78718 42.9363 9.97542 42.2686 10.2996 42.6338C10.6313 41.9267 12.4643 42.5013 10.9764 41.6033C11.1243 41.1869 11.057 41.6452 13.9598 41.2009C14.4752 41.1218 14.9802 40.7496 15.5434 40.9148C15.6644 40.9078 15.7824 40.9055 15.8885 40.9031C15.9467 40.8589 15.9901 40.7891 15.9811 40.6868C15.9034 39.8145 13.1889 41.1613 12.7945 40.389C12.4464 39.7098 13.171 39.9936 13.162 39.6865C13.1411 38.9491 6.78285 38.3071 5.36807 38.3699C4.28496 38.4187 2.25169 37.5347 3.20035 37.3789C3.85022 37.2719 3.49018 36.4228 3.08382 36.3623C2.52209 36.2809 2.63713 36.0134 3.17047 35.811C2.61173 35.4435 3.24965 35.2201 3.2616 34.9224C3.28999 34.2013 2.01863 34.3967 1.6317 33.1405C1.0625 33.3568 1.24028 32.4589 0.745785 32.5031C1.45989 32.3845 2.43545 32.7706 2.51164 31.5703C2.53405 31.2237 3.05394 30.6351 2.25766 30.3793C2.87915 30.356 2.91202 29.7186 3.17645 29.3673C3.63957 28.7532 1.64066 28.4904 1.61825 27.3621C1.61228 27.0551 2.42947 26.7364 2.83582 26.4851C3.0405 26.3572 3.17196 25.5477 2.96729 25.3941C2.3966 24.9661 2.7193 23.8937 1.93647 24.1333C2.00071 24.0426 3.50661 22.7376 2.32489 22.1304C1.61825 21.7676 2.38913 21.8211 2.63713 19.3994C2.74619 18.3271 1.82292 18.9389 1.68249 18.4829C1.52413 17.9688 6.2017 17.4105 6.26295 17.0104C6.48704 15.5519 8.31265 13.6281 6.92776 13.4047C6.2749 13.3001 6.50945 11.9718 7.14438 12.2067C7.43421 12.3137 7.69117 12.1835 7.84206 12.0765C8.80715 11.3879 11.3319 11.1041 11.3409 11.0111C11.4589 9.77583 9.35991 10.4062 8.75935 10.3504C5.39198 10.0364 21.0396 7.81016 36.2227 6.44467C36.2316 6.37255 36.3213 6.26322 36.4184 6.11667C36.4019 6.26089 36.39 6.35394 36.381 6.42838C44.1242 5.73517 51.7269 5.26992 56.6076 5.39786C56.6614 5.39786 59.6404 5.34669 62.0471 5.30249C62.0636 5.25596 62.0919 5.22339 62.1547 5.23968C62.201 5.25131 62.2488 5.27225 62.2951 5.29783C62.7284 5.29086 63.1392 5.28155 63.5052 5.27457C63.562 5.16291 63.68 5.08149 63.8757 5.09313C65.8433 5.20711 65.8492 5.04195 65.7835 5.22572C65.8492 5.22572 65.9194 5.22572 65.9927 5.22805C66.0255 5.19083 66.0718 5.1792 66.1645 5.22339C66.1689 5.22339 66.1719 5.22805 66.1764 5.23037C66.2601 5.23037 66.3467 5.23503 66.4379 5.23735C66.526 5.12337 66.6634 5.0373 66.7755 4.93727C66.8069 5.05591 66.8069 5.15593 66.7859 5.24666C66.8308 5.24666 66.8756 5.24898 66.9219 5.25131C66.9084 5.06986 67.0758 4.99542 67.1266 5.05823C67.1818 5.12802 67.1803 5.19083 67.1624 5.25829C67.273 5.26294 67.3865 5.26527 67.503 5.26992C67.5807 5.15826 67.7032 5.06521 67.8153 5.10476C68.0588 5.19083 68.1664 5.02567 68.2904 4.8605C68.4024 5.23968 68.1469 5.23503 67.9497 5.28853C68.1185 5.29551 68.2933 5.30249 68.4741 5.30947C68.5742 5.15593 68.7759 5.05591 68.7266 4.8512C68.8461 5.05125 68.7774 5.18618 68.6773 5.31644C68.8969 5.32575 69.121 5.33505 69.354 5.34668C69.2599 5.18385 69.3451 4.73023 69.5333 4.82561C69.7933 4.96053 70.2146 4.55577 70.3027 5.30714C70.5641 4.10913 70.8749 5.21642 70.5552 5.40251C72.2448 5.48626 74.1676 5.59327 76.1082 5.70725C76.2949 5.69097 76.4772 5.67236 76.6475 5.6491C76.776 5.63281 76.8298 5.42578 76.9956 5.42112C77.018 5.57 77.0195 5.67701 77.0046 5.75843C77.2182 5.77006 77.4318 5.78402 77.644 5.79565C77.6933 5.68864 77.7725 5.57466 77.7217 5.41647C77.9114 5.56535 77.9831 5.7026 77.9906 5.81658C78.128 5.82589 78.2655 5.83287 78.4029 5.84217C78.4343 5.77471 78.512 5.73284 78.5598 5.67236C78.5747 5.70958 78.6001 5.77936 78.5926 5.8538C78.9362 5.87474 79.2784 5.89568 79.616 5.91661C79.6339 5.89102 79.6533 5.86776 79.6713 5.8445C79.3112 5.82589 78.9602 5.78634 78.5926 5.7026C78.6061 5.68864 78.621 5.67701 78.6345 5.66305C78.5912 5.6584 78.5628 5.65607 78.5672 5.66073C78.7271 5.47928 78.9079 5.30249 78.987 5.41647C79.7146 5.01636 81.0875 4.7093 82.946 4.479C82.5994 4.41619 82.2304 4.3813 81.7748 4.48133C81.5551 4.53018 81.2623 4.59299 81.2026 4.39991C81.1174 4.12309 81.5312 4.16729 81.6612 3.97653C81.706 3.9114 81.9421 3.73926 81.9929 4.13007C82.0287 4.39526 82.3694 4.13007 82.5412 4.08587C83.0894 3.93466 84.2622 4.22544 84.9748 3.94862C85.2482 3.84161 85.1944 4.17892 85.2168 4.25568C85.2303 4.25568 85.2437 4.25568 85.2587 4.25336C86.1595 3.46476 87.1186 4.52087 87.3577 3.57642C87.2994 3.91373 87.3293 4.06726 87.7969 3.96258C88.1988 3.87185 88.502 3.95095 88.6962 4.0533C89.2027 4.03236 89.7226 4.01375 90.2529 3.99747C90.5726 3.96258 91.0597 3.97188 91.2614 3.8672C90.0423 3.72298 91.1941 3.823 91.5676 3.63923C91.6214 3.61132 91.7454 3.60434 91.7469 3.61364C91.9053 4.1417 94.2015 3.72763 95.1576 3.91605C95.3473 3.91605 95.5385 3.91605 95.7313 3.91373C95.6521 3.823 95.5669 3.7253 95.4325 3.56944C95.7835 3.6718 95.8 3.82533 95.7746 3.91373C95.8149 3.91373 95.8553 3.91373 95.8956 3.91373C96.2123 3.82533 96.9115 3.77881 97.4478 3.75322C97.4179 3.8137 97.3866 3.8672 97.3537 3.91373C97.4194 3.91373 97.4866 3.91373 97.5524 3.91373C97.5016 3.86488 97.4702 3.81137 97.4613 3.75322C97.8213 3.73693 98.1037 3.73228 98.1365 3.72995C101.898 3.63458 102.759 3.79276 102.358 3.96025C102.451 3.96025 102.544 3.96258 102.636 3.9649C102.735 3.69506 103.022 3.71832 103.246 3.64621C103.153 3.83696 102.972 3.88814 102.81 3.96723C103.038 3.97188 103.265 3.97653 103.495 3.97886C103.54 3.9114 103.621 3.88349 103.79 3.93699C104.053 4.02073 104.953 3.48803 105.668 3.90675C105.73 3.94397 105.809 3.99282 105.892 4.03004C106.005 4.03236 106.12 4.03469 106.234 4.03934C106.244 4.03004 106.255 4.02539 106.264 4.01375C106.858 3.30425 111.237 4.16031 111.309 4.08354C111.461 3.92071 111.103 3.94862 111.231 3.78113C111.663 3.97886 111.687 4.10913 111.475 4.1952C111.509 4.1952 111.543 4.19753 111.576 4.19985C111.6 4.1859 111.643 4.19055 111.693 4.20451C111.791 4.20683 111.888 4.21148 111.987 4.21381C111.997 4.16729 111.969 4.07656 111.873 3.9114C111.82 3.81835 112.505 3.64388 112.41 3.92071C112.354 4.07889 112.434 4.13472 112.564 4.07424C113.03 3.86255 113.629 4.17892 114.026 3.70204C114.111 3.78346 114.761 4.05097 114.528 4.30686C114.531 4.30686 114.534 4.30686 114.537 4.30686C114.666 4.21381 115.014 4.16496 115.181 3.94397C115.353 3.716 115.354 4.03004 115.478 4.03934C115.846 4.06958 115.744 3.65784 115.886 3.6276C116.173 3.56944 115.774 4.18822 116.145 4.02306C116.552 3.84161 116.974 4.1952 117.35 3.89744C117.594 3.70437 118.206 4.58833 115.898 4.26266C115.71 4.23707 115.502 4.16961 115.341 4.3371C117.89 4.44178 120.362 4.55577 122.679 4.67673C122.712 4.5325 122.812 4.39293 122.702 4.25801C122.702 4.25801 122.703 4.25801 122.705 4.25801L122.693 4.24405C122.416 3.96025 123.665 4.62555 123.694 3.86255C123.967 4.63951 124.508 4.03236 124.999 4.49296C124.98 4.4697 124.957 4.44178 124.929 4.41154C125.294 4.28592 128.897 4.29988 127.966 4.86981C127.817 4.52785 127.609 4.90935 127.421 4.82561C126.935 4.60927 127.039 4.76745 127.013 4.91168C128.305 4.98845 129.517 5.06288 130.628 5.135C130.636 5.12337 130.648 5.11174 130.661 5.10476C130.95 4.95588 130.576 4.63021 130.893 4.40921C130.879 4.77443 130.847 5.00473 130.808 5.14663C134.345 5.37925 136.839 5.58861 137.64 5.70725C137.68 5.71423 137.719 5.71888 137.759 5.72353C137.148 5.12569 132.453 5.69562 131.47 4.69301C132.199 4.96053 138.478 4.52553 137.846 5.73517C137.937 5.74912 138.03 5.76075 138.124 5.77471C138.278 4.46039 139.048 5.52348 138.445 5.35366C138.062 5.24666 138.345 5.68399 138.128 5.77471C138.93 5.88404 139.785 5.97244 140.675 6.04455C140.714 5.9864 140.754 5.92824 140.765 5.86311C140.78 5.92824 140.798 5.99338 140.805 6.05619C143.364 6.25857 146.228 6.32835 149.1 6.32603C149.021 6.30974 148.959 6.26555 148.955 6.1376C148.944 5.84683 149.309 6.20972 149.484 6.09108C149.705 5.9422 149.739 6.20274 149.618 6.32603C159.735 6.28881 169.727 5.42578 166.624 6.57261C166.434 6.6424 166.173 6.70986 165.85 6.77267C169.471 6.67031 173.357 6.52608 173.539 6.31672C173.469 5.63979 163.835 5.83752 162.227 5.58629C161.864 5.52813 161.186 4.79072 161.573 4.96053C161.631 4.98612 171.378 4.49761 159.495 4.16496C159.598 4.00445 162.583 4.05097 162.653 4.05563C171 4.54879 175.398 2.96462 166.948 2.96928C144.336 2.98323 200.118 1.75731 200.076 6.19111C200.2 6.16784 201.578 6.76801 202.187 6.52376C202.275 6.48886 202.387 6.53772 202.389 6.70288C202.392 7.0239 201.869 6.60983 201.522 7.47053C200.726 9.44551 202.506 8.94304 202.594 9.2059C202.804 9.83864 203.226 9.59904 203.574 9.6316C204.812 9.74326 203.75 10.8505 202.537 10.5481C201.49 10.2876 200.758 13.7979 201.88 13.9095C203.385 14.0607 204.773 14.1608 204.622 14.5306C204.522 14.7749 204.718 15.2471 204.3 15.2913C203.414 15.3844 203.391 15.0587 202.993 15.7077C202.066 17.2128 206.397 15.9334 206.89 17.2198C207.105 17.7804 208.952 17.8827 209.579 17.9432C210.092 17.9921 209.682 18.3131 212.153 18.783C212.608 18.8691 212.384 21.2628 212.965 21.2046C213.25 21.1767 215.103 21.4326 215.634 21.6815C215.903 21.8071 215.717 22.1235 215.72 22.3445C215.723 22.5492 215.836 22.6003 215.893 22.7306C215.823 22.8841 215.714 22.9004 215.619 22.8632C213.915 22.163 212.649 24.2636 213.513 25.1894C213.482 25.336 213.322 25.1522 213.313 25.3662C213.28 26.2921 217.308 25.7594 217.221 26.3642C217.178 26.6712 217.342 26.8271 217.441 27.0318C217.345 27.1993 217.24 26.9411 217.086 27.1156C217.699 27.5226 222.672 27.7971 221.703 28.5881C221.358 28.8672 220.875 30.042 221.479 30.4374C222.717 31.2469 222.705 30.4932 221.942 32.1821C221.825 32.4403 220.812 33.1405 221.217 33.7523C221.08 34.8735 221.601 35.2295 222.206 35.39C222.247 35.4318 222.276 35.4272 222.296 35.4132C222.97 35.5714 223.711 35.5272 223.745 36.039C223.824 37.2509 219.617 35.5714 219.732 37.8279L219.714 37.8232ZM172.21 3.24377C171.992 3.21353 171.778 3.00417 171.47 3.30193C171.781 3.32054 171.996 3.40661 172.21 3.24377ZM4.89001 29.5488C5.12456 29.3045 4.90495 29.3929 4.81979 29.2999C4.73464 29.2045 4.66293 29.4302 4.89001 29.5488ZM4.93035 29.928C4.60018 29.7279 4.93931 30.2397 4.97666 30.3351C5.00056 30.1652 5.0887 30.0233 4.93035 29.928ZM6.43177 30.7701C6.45119 30.7677 6.40338 31.0702 6.56921 31.0841C6.6962 31.0957 6.78733 30.7538 6.43177 30.7701ZM6.83962 30.2699C6.81422 30.5002 6.79928 30.8817 6.96063 30.7235C7.08164 30.6049 6.89639 30.5165 6.83962 30.2699ZM12.9544 27.9995C12.8886 28.2182 13.0111 28.3415 13.2068 28.4531C13.3518 27.9321 12.9902 27.8832 12.9544 27.9995ZM14.6276 39.4609C14.5813 39.2422 13.9538 38.9421 13.2995 39.3701C13.1501 39.4678 13.3682 39.9703 13.8567 39.6912C13.8791 39.6795 13.9224 39.7051 13.909 39.7028C14.2661 39.8842 14.3617 39.426 14.6276 39.4632V39.4609ZM18.5791 39.2096C18.5701 39.1934 18.5612 39.1771 18.5522 39.1585C18.5089 39.1654 18.467 39.1747 18.4267 39.191C18.4581 39.2096 18.5059 39.2166 18.5791 39.2096ZM18.8226 71.0162C18.6179 71.1372 18.73 71.3512 18.7195 71.5256C18.7539 71.3558 18.7882 71.186 18.8226 71.0162ZM19.9281 72.056C19.9207 72.2421 19.9162 72.3794 19.9102 72.5631C20.0417 72.3863 20.2404 72.2631 19.9281 72.056ZM21.8105 69.1133C21.7971 68.9342 21.5476 69.0226 21.3563 68.9435C21.2697 68.9086 21.1935 68.6179 21.1308 68.8202C21.0546 69.0575 20.7722 69.0668 20.7633 69.3064C21.3265 70.2416 21.1696 69.1738 21.7298 69.4483C21.7956 69.4809 21.821 69.239 21.812 69.1133H21.8105ZM22.6008 14.412C22.547 14.5981 22.5142 14.7121 22.4664 14.8726C22.7114 14.7609 22.6471 14.6237 22.6008 14.412ZM23.5569 74.5311C23.5181 74.6498 23.4972 74.7661 23.5943 74.8731C23.5644 74.7591 23.7258 74.6288 23.5569 74.5311ZM23.7497 73.7914C23.672 73.8984 23.6137 74.0519 23.7302 74.3078C23.7392 74.0682 23.7437 73.9286 23.7497 73.7914ZM24.1052 77.3459C24.035 77.5227 24.032 77.6576 24.2203 77.7716C24.286 77.5785 24.286 77.4389 24.1052 77.3459ZM24.5937 73.3029C24.3786 73.4494 24.3099 73.6169 24.4578 73.8426C24.5878 73.689 24.6834 73.5285 24.5937 73.3029ZM24.8836 72.5329C24.7118 72.8004 24.5758 72.9284 24.8328 72.9702C24.8447 72.8655 24.8567 72.7632 24.8836 72.5329ZM25.0763 71.6768C24.9657 71.9513 25.0449 72.0421 25.1555 72.1258C25.275 71.9444 25.0912 71.8978 25.0763 71.6768ZM25.4304 70.6277C25.3631 70.7673 25.3153 70.8673 25.266 70.9673C25.5051 71.0813 25.4871 70.8813 25.4304 70.6277ZM26.5643 75.5198C26.4821 75.443 26.2655 75.2034 26.258 75.4267C26.3342 75.4686 26.4089 75.5081 26.4851 75.5454C26.509 75.5361 26.5344 75.5291 26.5643 75.5174V75.5198ZM26.4836 72.6353C26.4522 72.9656 26.4298 73.1889 26.4059 73.4541C26.8078 73.2377 26.5941 72.9842 26.4836 72.6353ZM14.5469 86.7392C14.4274 87.016 14.5783 87.1509 14.7172 87.3533C14.8502 87.0718 14.7023 86.9416 14.5469 86.7392ZM20.705 84.1664C20.7573 83.9407 20.7767 83.7593 20.6572 83.5825C20.7154 83.7523 20.5825 83.9524 20.705 84.1664ZM19.3813 86.1855C19.4396 86.3786 19.4829 86.5205 19.5502 86.7369C19.598 86.4903 19.6503 86.3251 19.3813 86.1855ZM19.6488 86.132C19.6488 86.132 19.6966 86.0716 19.7085 86.0553C19.7444 85.6738 19.3126 85.9506 19.6488 86.132ZM20.3121 84.3571C20.2329 84.1408 20.1208 84.2199 20.1134 84.3129C20.1059 84.406 20.2239 84.5967 20.3121 84.3571ZM20.5182 86.0669C20.5138 86.146 20.5212 86.2949 20.7603 86.3554C21.0053 85.9204 20.5242 85.9669 20.5182 86.0669ZM22.1989 85.5226C21.9539 85.5737 22.0944 85.7668 22.0734 85.9064C22.2751 85.8855 22.438 85.4714 22.1989 85.5226ZM23.0938 84.3315C23.3448 84.2827 23.3179 84.1036 23.0923 84.2083C23.0834 84.2129 23.0087 84.0687 22.9788 84.2059C22.9609 84.2873 22.9997 84.3502 23.0953 84.3315H23.0938ZM23.6182 86.246C23.418 86.2716 23.2417 86.1483 23.0385 86.3996C23.2656 86.3205 23.43 86.5857 23.6182 86.246ZM25.6126 84.2199C25.5827 84.1641 25.5603 84.1059 25.5499 84.0454C25.4304 84.1408 25.3826 84.2943 25.4528 84.5991C25.4737 84.4269 25.5334 84.3153 25.6126 84.2199ZM26.0175 83.8686C25.9876 83.8779 25.9577 83.8849 25.9293 83.8919C25.9383 83.9012 25.9458 83.9105 25.9547 83.9198C25.9756 83.9035 25.9966 83.8872 26.0175 83.8663V83.8686ZM26.4074 87.2928C26.4029 87.2463 26.3551 87.2044 26.3163 87.1463C25.9876 87.6976 26.4223 87.4231 26.4074 87.2928ZM27.1693 83.4057C27.1589 83.4057 27.1484 83.401 27.1379 83.3987C26.7973 83.5755 26.4074 83.7104 26.7465 83.7872C26.9422 83.8314 27.0274 83.6593 27.1693 83.4057ZM27.9402 84.3641C27.7535 84.4688 27.6593 84.5223 27.5398 84.5921C27.731 84.6665 27.8386 84.6409 27.9402 84.3641ZM30.2274 80.6282C30.2633 80.6282 30.2962 80.6235 30.329 80.6212C30.3096 80.591 30.2842 80.5723 30.2603 80.5723C30.2498 80.591 30.2409 80.6096 30.2274 80.6282ZM30.4037 85.8948C30.338 85.9297 30.3036 86.0297 30.2215 86.1483C30.6726 86.2949 30.5322 85.825 30.4037 85.8948ZM31.2732 83.2103C31.1791 83.0754 31.0835 83.2336 30.9849 83.301C31.2344 83.3615 31.3987 83.3894 31.2732 83.2103ZM31.4331 78.7137C31.3285 78.5113 31.0282 78.7137 31.2329 78.83C31.3434 78.8951 31.3613 78.7625 31.4331 78.7137ZM32.4699 59.9177C32.4714 59.8805 32.4624 59.8433 32.4385 59.8038C32.434 59.8503 32.4445 59.8968 32.4699 59.9177ZM33.2198 87.5766C33.2079 87.558 33.1735 87.4906 33.166 87.4952C32.8209 87.6418 33.2228 87.9535 33.2198 87.5766ZM33.6217 80.8887C33.5156 80.8864 33.4843 80.9166 33.4887 80.9632C33.5545 80.9771 33.6292 80.9887 33.7143 80.9957C33.7726 80.9329 33.7711 80.8934 33.6232 80.8887H33.6217ZM34.1117 75.8362C34.0594 76.0362 34.0505 76.2153 34.0953 76.413C34.4075 76.227 34.2671 76.0432 34.1117 75.8362ZM34.908 75.8129C34.908 75.8129 34.908 75.8268 34.908 75.8338C34.9125 75.9432 34.8213 75.9618 34.6615 75.9199C34.651 75.9338 34.6421 75.9455 34.6331 75.9618C34.542 76.1223 34.8766 76.2711 34.9558 75.9478C35.0021 75.8757 34.9707 75.8268 34.9095 75.8106L34.908 75.8129ZM36.4423 11.9416C36.4348 12.1416 36.4288 12.3068 36.4229 12.4696C36.4766 12.3068 36.6709 12.1579 36.4423 11.9416ZM36.8695 12.9232C36.8651 12.9069 36.8606 12.8907 36.8546 12.872C36.8546 12.893 36.8486 12.9116 36.8412 12.9255C36.8501 12.9255 36.8606 12.9255 36.871 12.9232H36.8695ZM37.5702 9.33152C37.503 9.35478 37.4492 9.3478 37.494 9.21288C37.4358 9.20358 37.376 9.29895 37.376 9.36176C37.376 9.45248 37.5209 9.54786 37.5702 9.33152ZM39.8022 8.14514C39.7245 8.19399 39.469 8.33124 39.5841 8.41266C39.6842 8.39637 39.7872 8.37776 39.8903 8.35683C39.9546 8.26843 39.9575 8.15212 39.8022 8.14514ZM40.0696 7.29839C39.9023 7.22395 39.8291 7.33561 39.711 7.41238C39.9023 7.52171 39.9785 7.41703 40.0696 7.29839ZM41.1064 6.54702C40.8718 6.79128 41.0929 6.7052 41.1781 6.79825C41.2633 6.8913 41.335 6.67031 41.1064 6.54702ZM44.7994 8.36148C44.529 8.37776 44.5918 8.56619 44.7068 8.55223C44.8712 8.5313 44.9369 8.35218 44.7994 8.36148ZM45.1699 8.53827C45.1699 8.53827 45.2178 8.47779 45.2192 8.47547C45.3074 8.08466 44.8159 8.3452 45.1699 8.53827ZM49.9461 7.90089C49.8176 7.66361 49.6832 7.62639 49.4187 7.51706C49.601 7.79388 49.7116 7.87995 49.9461 7.90089ZM60.2962 8.51501C60.226 8.46616 60.1707 8.4429 60.1259 8.43592C60.0945 8.43825 60.0632 8.4429 60.0333 8.44522C59.984 8.47314 59.972 8.53827 59.984 8.58945C60.0258 8.76625 60.1767 8.60574 60.2977 8.51501H60.2962ZM69.5961 5.35599C69.5841 5.34669 69.5707 5.33505 69.5587 5.3211C69.5438 5.33505 69.5318 5.34203 69.5184 5.35366C69.5438 5.35366 69.5707 5.35599 69.5961 5.35832V5.35599ZM70.2848 5.38856C70.2325 5.36529 70.1757 5.3304 70.11 5.27922C70.0248 5.21176 69.9262 5.31179 69.8172 5.36762C69.971 5.3746 70.1264 5.38158 70.2848 5.39088V5.38856ZM83.9201 81.9425C83.8827 82.1914 83.8454 82.5148 84.0396 82.3566C84.1666 82.2519 83.9933 82.1472 83.9201 81.9425ZM83.9007 5.90498C83.2045 5.84217 82.6069 5.82356 82.075 5.82356C82.0168 5.86311 81.9481 5.86776 81.8958 5.82356C81.1592 5.82822 80.5497 5.86078 79.9775 5.8538C79.9551 5.88172 79.9312 5.90963 79.9058 5.93522C81.5447 6.03758 83.085 6.13528 84.3787 6.22367C84.3683 6.16087 84.3578 6.09806 84.3996 6.07247C84.443 6.1376 84.4982 6.19111 84.564 6.23763C85.1795 6.2795 85.7352 6.31672 86.2148 6.35162C87.0245 6.27485 86.6525 6.15156 83.9007 5.90731V5.90498ZM102.916 83.9477C102.869 83.8616 102.811 83.7895 102.771 83.7663C102.748 83.8268 102.72 83.8709 102.689 83.9058C102.754 83.9198 102.831 83.9338 102.914 83.9477H102.916ZM103.826 6.11899C103.718 6.11899 103.609 6.12132 103.491 6.12365C103.525 6.14226 103.637 6.16087 103.812 6.1818C103.814 6.16087 103.818 6.13993 103.824 6.11899H103.826ZM104.126 6.11899C104.135 6.14924 104.139 6.1818 104.138 6.2167C104.314 6.23065 104.523 6.24694 104.762 6.26322C104.577 6.21902 104.474 6.1725 104.48 6.12132C104.369 6.12132 104.251 6.12132 104.126 6.12132V6.11899ZM103.458 82.6264C103.425 82.6218 103.397 82.6311 103.383 82.6799C103.37 82.7264 103.355 82.766 103.338 82.8032C103.413 82.7823 103.44 82.7078 103.459 82.6287L103.458 82.6264ZM103.687 83.6988C103.628 83.8361 103.582 83.9477 103.539 84.0477C103.601 84.057 103.666 84.0664 103.731 84.0757C103.776 83.9896 103.77 83.8686 103.685 83.6988H103.687ZM103.979 83.8105C103.915 83.8989 103.89 83.9919 103.887 84.0989C103.961 84.1082 104.038 84.1199 104.117 84.1315C104.223 83.6965 104.029 83.7407 103.978 83.8128L103.979 83.8105ZM104.523 83.743C104.36 83.9012 104.313 84.0454 104.321 84.1571C104.425 84.171 104.532 84.185 104.641 84.1989C104.686 84.0454 104.68 83.8872 104.523 83.743ZM104.82 82.7125C104.589 82.6567 104.354 82.7613 104.121 82.8055C104.301 82.887 104.499 82.9032 104.747 82.7404C104.77 82.7264 104.795 82.7171 104.82 82.7125ZM203.569 76.3665C203.723 76.2805 204.827 76.4363 205.202 76.3107C202.55 75.7384 203.335 76.4991 203.569 76.3665ZM139.329 83.2987C139.67 83.1475 140.027 83.2871 140.372 83.2219C139.852 83.208 139.338 83.1894 138.832 83.1708C138.836 83.1754 138.838 83.1801 138.835 83.1847C138.742 83.3289 138.6 83.4383 138.854 83.5476C139.107 83.6569 139.159 83.3615 139.328 83.301C139.355 83.408 139.349 83.4964 139.325 83.5685C139.419 83.5662 139.513 83.5639 139.604 83.5616C139.516 83.5034 139.426 83.4173 139.331 83.301L139.329 83.2987ZM126.538 6.73079C126.393 6.58424 126.39 6.58424 126.006 6.70753C126.209 6.83082 126.366 6.90061 126.538 6.73079ZM136.337 83.0382C136.657 83.1405 136.996 83.2498 137.342 83.1568C137.38 83.1475 137.646 83.1312 137.943 83.1242C137.396 83.0986 136.861 83.0707 136.337 83.0405V83.0382ZM171.561 8.94304C171.567 9.06866 181.309 9.64323 182.649 9.6665C182.981 9.67348 182.885 9.17334 182.652 9.25941C182.51 9.31291 171.539 8.49873 171.561 8.94304ZM171.303 8.88256C171.316 8.6825 171.173 8.78951 171.15 8.77788C170.566 8.48477 171.264 9.43853 171.303 8.88256ZM167.671 8.53827C166.97 8.89186 166.17 9.04539 165.4 9.11751C166.458 9.10355 167.392 9.08727 168.172 9.06866C168.242 8.9221 168.252 8.93839 168.443 9.06168C171.418 8.98491 171.845 8.85929 167.671 8.53827ZM140.475 7.77992C141.128 8.65924 152.065 8.29867 160.097 8.04046C160.007 7.98463 159.929 7.90554 159.849 7.85901C160.049 7.90089 160.249 7.94043 160.548 8.00324C160.534 8.01255 160.522 8.01953 160.509 8.0265C164.806 7.88926 168.182 7.7869 168.538 7.93578C168.488 7.98231 168.437 8.02418 168.387 8.06838C168.682 8.07303 169.025 8.08001 169.419 8.08466C168.98 7.51473 167.992 8.16375 167.797 7.44262C167.655 6.91457 165.966 7.84971 165.503 7.37981C165.475 7.3519 164.095 7.24954 162.704 7.15417C159.569 7.41936 155.165 7.58219 151.093 7.67757C151.102 7.69385 151.093 7.71479 151.064 7.74736C150.906 7.93113 150.827 7.79388 150.674 7.68687C150.175 7.6985 149.681 7.70781 149.197 7.71712C149.168 7.72177 149.148 7.72409 149.133 7.71712C144.826 7.79853 141.233 7.80551 140.475 7.7776V7.77992ZM126.556 6.72614C126.637 6.77034 126.667 6.9262 126.779 6.86106C126.862 6.81221 127.05 6.99366 127.037 6.75406C127.024 6.52841 126.817 6.62379 126.556 6.72381V6.72614ZM122.841 4.67906C123.973 4.73721 125.068 4.79769 126.115 4.85818C126.272 4.7093 126.553 4.93494 126.823 4.75582C124.916 4.60229 125.231 4.82561 125.02 4.54414C124.393 4.58833 123.756 4.73489 123.159 4.40224C122.965 4.2929 122.948 4.51157 122.841 4.68138V4.67906ZM113.245 4.2487C113.647 4.26266 114.049 4.27894 114.447 4.29523C114.138 4.17426 113.696 4.19753 113.245 4.2487ZM108.527 6.14226C110.082 6.20972 111.528 6.3144 111.688 6.42838C111.678 6.47025 111.539 6.50282 111.304 6.52608C120.018 6.80058 131.662 6.95411 121.751 6.40745C117.09 6.15156 111.351 6.2167 108.527 6.14226ZM106.429 6.0748C106.806 6.08177 107.214 6.09341 107.629 6.10736C107.136 6.07945 106.839 6.0399 106.795 5.98407C106.766 5.94453 106.736 5.88172 106.677 5.92359C106.583 5.99338 106.507 6.04223 106.429 6.0748ZM105.315 84.2734C105.318 84.1571 105.267 84.0268 105.313 83.9268C105.08 83.9058 105.139 84.1222 105.083 84.2431C105.16 84.2524 105.237 84.2618 105.316 84.2734H105.315ZM106.597 84.4316C106.583 84.299 106.338 84.3036 106.261 84.2013C106.201 84.1245 106.193 83.9873 106.046 83.9896C105.948 84.0268 106.04 84.1059 106.016 84.1594C105.984 84.2338 105.968 84.2966 105.962 84.3502C106.17 84.3757 106.382 84.4013 106.597 84.4269V84.4316ZM106.816 84.0384C106.816 83.8616 106.677 83.9012 106.54 83.9338C106.652 84.178 106.724 84.0943 106.816 84.0384ZM113.96 85.3341C113.934 85.3132 113.91 85.3109 113.887 85.3248C113.913 85.3272 113.937 85.3318 113.96 85.3341ZM115.32 85.5319C115.296 85.4086 115.18 85.2667 115.212 85.1318C114.975 85.2527 114.812 85.3528 114.704 85.4388C114.933 85.4714 115.139 85.504 115.32 85.5319ZM116.204 85.1783C116.083 85.0713 115.974 85.1946 115.865 85.2295C115.983 85.2597 116.068 85.3923 116.188 85.3248C116.215 85.3086 116.227 85.1992 116.204 85.1783ZM117.344 85.0597C117.211 85.3248 117.162 85.3411 117.023 85.2551C116.99 85.2365 116.892 85.2551 116.892 85.2644C116.844 85.7505 116.448 85.1667 116.364 85.3435C116.261 85.5621 116.348 85.8901 116.508 85.7831C116.933 85.497 117.524 86.3554 117.344 85.0573V85.0597ZM118.197 85.1806C117.973 85.3109 117.577 85.0643 117.509 85.483C117.461 85.7668 117.585 85.932 117.896 85.9087C118.513 86.039 118.462 85.0294 118.197 85.1806ZM118.964 85.3062C118.768 85.3132 118.702 85.8413 118.977 85.8459C119.463 85.811 119.064 85.3039 118.964 85.3062ZM119.67 85.2504C119.763 85.4109 119.597 85.6087 119.799 85.832C119.96 85.5319 119.788 85.3993 119.67 85.2504ZM120.667 85.2783C120.364 85.055 120.393 85.6063 120.679 85.6831C120.523 85.504 120.861 85.4225 120.667 85.2783ZM123.25 85.4947C123.316 85.0573 121.028 85.2039 120.995 85.4761C120.931 86.0181 121.363 85.5109 121.756 85.8436C121.819 85.5086 121.89 85.7343 122.004 85.825C122.152 85.9413 122.382 85.7622 122.461 85.7994C122.938 86.0204 123.201 85.9413 123.248 85.4947H123.25ZM128.519 87.2347C128.388 87.5092 128.192 87.6348 128.307 87.8348C128.407 87.8348 128.504 87.8348 128.601 87.8348C128.601 87.8348 128.601 87.8348 128.603 87.8348C128.812 87.6511 128.579 87.5278 128.519 87.237V87.2347ZM129.069 87.6976C128.981 87.6348 128.797 87.579 128.84 87.679C128.866 87.7395 128.878 87.7883 128.881 87.8348C128.961 87.8348 129.04 87.8348 129.118 87.8348C129.135 87.7883 129.132 87.7418 129.069 87.6976ZM128.906 85.4505C128.843 85.4086 123.498 85.2551 123.481 85.4202C123.441 85.8227 124.249 86.2553 124.702 85.7854C124.781 85.704 124.962 85.4714 125.013 85.6435C125.092 85.9111 126.801 85.5249 126.941 85.7691C127.182 86.1925 127.688 85.7692 127.939 86.1204C128.092 86.3344 128.056 85.5226 128.64 86.0506C128.728 86.1297 129.611 85.918 128.906 85.4481V85.4505ZM130.788 87.8302C130.615 87.7325 130.348 87.7465 130.224 87.5627C130.173 87.4882 130.107 87.6441 130.037 87.8348C130.303 87.8348 130.552 87.8325 130.788 87.8302ZM131.632 87.8209C131.585 87.7837 131.535 87.7255 131.486 87.6348C131.426 87.5255 131.271 87.6697 131.251 87.8255C131.383 87.8255 131.51 87.8232 131.632 87.8209ZM132.275 87.8069C132.273 87.7395 132.249 87.6743 132.175 87.6278C132.1 87.686 132.019 87.7627 131.936 87.8162C132.055 87.8139 132.167 87.8116 132.275 87.8093V87.8069ZM133.711 87.7302C133.579 87.6441 133.433 87.6045 133.307 87.7255C133.313 87.7209 133.307 87.7325 133.297 87.7581C133.295 87.7534 133.292 87.7465 133.291 87.7418C133.295 87.7371 133.3 87.7325 133.303 87.7302C133.303 87.7302 133.301 87.7302 133.3 87.7302C133.019 87.8348 132.774 87.6953 132.526 87.6069C132.497 87.6604 132.49 87.7278 132.488 87.8C132.814 87.7906 133.079 87.779 133.291 87.7651C133.292 87.7627 133.294 87.7604 133.295 87.7558C133.295 87.7581 133.297 87.7604 133.298 87.7651C133.468 87.7534 133.604 87.7418 133.709 87.7302H133.711ZM134.824 85.7017C130.939 85.5342 130.896 85.7575 130.941 85.1783C130.929 85.1783 130.918 85.1783 130.906 85.1783C130.59 86.046 130.431 85.3318 129.614 85.5761C128.274 85.9785 134.855 86.0297 134.825 85.7017H134.824ZM130.863 84.0454C130.313 84.4106 131.023 84.4223 131.67 84.4688C131.963 84.4897 131.886 84.3083 131.837 83.8849C131.535 83.8733 131.229 83.843 130.918 83.8035C130.959 83.8896 130.957 83.9826 130.863 84.0454ZM135.6 85.7529C135.611 85.5016 135.101 85.6133 135.079 85.7575C135.039 86.0064 135.596 85.8762 135.6 85.7529ZM136.624 85.8785C136.276 85.5086 136.005 85.6528 135.736 85.8413C136.011 85.8343 136.279 86.0367 136.624 85.8785ZM138.533 84.1175C137.242 84.0919 136.657 84.0733 136.667 84.0059C136.743 83.5732 136.362 83.6895 136.122 83.6313C136.933 83.6174 137.661 83.6011 138.309 83.5848C137.771 83.1987 136.936 83.8709 136.129 83.3894C135.651 83.1056 135.562 84.0477 134.919 83.6081C135.064 83.2592 135.225 83.0707 135.402 82.9777C134.925 82.9451 134.46 82.9079 134.009 82.8683C127.007 82.5915 116.676 82.2263 106.722 81.7006C106.344 82.4333 105.125 81.1237 105.016 82.5241C105.01 82.6078 104.971 82.6799 104.934 82.7078C105.269 82.7892 105.735 83.3196 105.808 82.452C105.851 81.9379 106.167 82.4613 106.367 82.3891C106.588 82.3077 106.586 82.5915 106.51 82.6567C106.35 82.7916 106.211 82.9544 106.441 83.0428C107.037 83.2708 107.13 82.7544 107.26 82.873C107.631 83.2103 107.087 83.5523 107.611 83.636C107.997 83.6965 107.886 83.3475 107.967 83.1591C108.095 83.2033 107.943 84.0803 108.687 82.7195C108.705 82.9102 108.72 83.0568 108.735 83.2173C109.127 82.9769 109.352 82.6698 109.408 82.2961C109.822 82.6218 109.186 83.1824 109.809 83.1545C109.854 83.1545 110.007 83.1359 109.915 83.08C109.558 82.866 109.87 82.7939 109.966 82.659C110.081 82.4961 110.232 82.2379 110.396 82.3519C110.659 82.531 109.866 82.9451 110.332 83.1731C110.533 83.2708 110.935 83.0754 111.059 82.8032C111.186 82.9218 111.345 83.3103 111.418 83.1056C111.533 82.7846 112.189 82.9614 111.866 82.3775C112.274 82.6241 111.729 83.3522 112.501 83.2871C112.843 83.2568 112.734 82.9544 112.88 82.8102C113.01 82.6822 112.686 82.7451 112.62 82.5869C113.711 82.2798 112.798 83.1824 113.303 83.2126C114.126 83.2638 113.524 82.5264 114.132 82.4659C114.025 82.652 114.005 82.8218 114.029 82.9846C114.073 83.2847 114.259 82.773 114.35 83.0428C114.483 83.4359 114.576 82.994 114.673 83.0172C115.456 83.2057 115.762 82.9195 115.791 82.552C115.874 83.7197 117.219 83.1312 117.299 83.0428C117.426 82.9032 117.264 83.2801 117.522 83.2219C117.887 83.1382 118.366 83.4313 118.522 82.8079C118.548 82.6985 118.689 82.538 118.856 82.5985C119.17 82.7148 118.88 83.2126 119.061 83.4359C119.252 83.4383 119.321 83.2405 119.342 83.1568C119.524 82.4101 120.667 82.7288 120.626 82.887C120.556 83.1684 120.523 82.8428 120.443 82.866C120.225 82.9242 120.062 83.4778 120.259 83.5825C120.913 83.9268 120.897 83.0428 121.194 83.6732C121.311 83.9198 121.789 83.729 121.868 83.6011C122.129 83.1847 122.161 83.5476 122.252 83.6779C122.355 83.8244 122.923 83.743 123.048 83.8244C123.348 84.0198 123.562 83.9454 123.816 83.5429C123.868 83.7988 123.946 84.2245 124.157 84.0152C125.406 82.7753 124.444 84.8643 125.219 84.2524C125.458 84.064 125.407 84.6921 125.681 84.4409C125.689 84.4339 125.697 84.4269 125.704 84.4176C125.697 84.4176 125.689 84.4153 125.682 84.413C125.694 84.4106 125.704 84.4083 125.716 84.406C126.502 83.6825 125.99 84.2199 126.229 84.3548C126.259 84.3548 126.289 84.3571 126.32 84.3618C126.454 84.292 126.587 83.8919 126.245 83.857C126.306 83.6337 126.407 83.4173 126.371 83.1777C126.33 82.9009 126.732 82.7404 126.791 82.966C126.871 83.2754 125.818 83.0056 126.997 84.0245C127.186 83.8919 127.021 83.6267 127.312 83.5174C127.454 84.6153 128.271 84.506 129.048 84.4944C129.297 84.4897 129.215 84.2687 129.318 84.1454C130.167 85.0364 130.442 84.1385 130.564 83.7593C130.298 83.7221 130.026 83.6825 129.752 83.6453C130.464 83.4755 131.145 83.4592 131.809 83.4825C131.809 83.3243 131.816 83.1452 131.846 82.9428C132.046 83.187 132.081 83.3615 132.052 83.4918C132.635 83.5197 133.207 83.5662 133.778 83.5569C133.15 83.8337 132.52 83.9082 131.871 83.8872C132.057 84.0082 133.153 84.0943 137.384 84.6433C137.699 84.6851 137.498 84.1408 138.53 84.1175H138.533ZM140.486 84.1547C139.737 84.1385 139.108 84.1268 138.588 84.1175C138.503 84.2455 138.491 84.3339 138.517 84.4013C139.119 84.3292 139.987 84.5549 140.486 84.1547ZM140.808 83.5104C140.752 83.4848 140.708 83.429 140.687 83.3336C140.828 83.315 140.962 83.2405 141.131 83.2336C140.919 83.2289 140.707 83.2219 140.496 83.2173C140.368 83.3615 140.253 83.4662 140.145 83.536C140.384 83.529 140.605 83.5197 140.808 83.5127V83.5104ZM142.402 83.4104C142.331 83.3638 142.266 83.294 142.193 83.301C142.216 83.2964 142.236 83.2894 142.259 83.2847C142.154 83.2731 142.024 83.2591 141.872 83.2475C141.652 83.2429 141.434 83.2382 141.216 83.2336C141.267 83.2382 141.319 83.2475 141.376 83.2685C141.271 83.3708 141.147 83.4592 141.032 83.5011C141.727 83.4708 142.174 83.4429 142.402 83.4104ZM143.456 83.422C143.424 83.3917 143.391 83.3568 143.351 83.315C143.387 83.315 143.417 83.3173 143.445 83.322C143.438 83.301 143.427 83.2847 143.417 83.2685C143.312 83.2685 143.206 83.2661 143.101 83.2638C143.048 83.2917 142.995 83.3243 142.954 83.3615C142.948 83.4243 142.915 83.4801 142.87 83.536C142.904 83.5685 143.007 83.5685 143.217 83.5057C143.249 83.4941 143.451 83.6011 143.457 83.4197L143.456 83.422ZM144.5 89.3655C144.18 89.1864 143.84 89.2655 143.357 89.2701C143.814 89.5958 144.159 89.3864 144.5 89.3655ZM161.328 83.1661C160.883 83.1801 160.337 83.1847 160.212 83.1033C160.125 83.1033 160.034 83.1033 159.938 83.1033C159.849 83.1638 159.749 83.1452 159.644 83.1033C159.562 83.1033 159.478 83.1033 159.393 83.1033C159.338 83.3057 159.031 83.2057 158.773 83.1033C158.498 83.1033 158.207 83.1056 157.902 83.1079C157.893 83.1149 157.878 83.1149 157.86 83.1079C156.983 83.1126 155.993 83.1196 154.953 83.1312C151.947 83.2289 148.526 83.2917 145.121 83.2801C144.335 83.3034 143.865 83.3266 143.862 83.3499C143.841 83.5011 145.622 83.5662 148.043 83.5895C148.026 83.5895 148.008 83.5895 147.99 83.5871C148.136 83.4708 148.251 83.5011 148.354 83.5918C149.63 83.6011 151.063 83.6011 152.497 83.5918C152.655 83.5569 152.812 83.5127 152.882 83.4522C152.887 83.4987 152.89 83.543 152.894 83.5895C153.558 83.5848 154.216 83.5802 154.857 83.5755C154.857 83.5755 154.854 83.5709 154.853 83.5709C154.859 83.5709 154.865 83.5755 154.871 83.5755C158.19 83.5476 160.993 83.5081 161.08 83.5336C161.364 83.6151 161.535 83.2987 161.329 83.1638L161.328 83.1661ZM177.367 89.654C177.367 89.654 177.309 89.6051 177.292 89.5911C176.922 89.5516 177.191 89.9982 177.367 89.654ZM179.915 89.8843C179.261 89.5051 178.58 89.8401 177.915 89.7447C178.578 89.8703 179.243 90.0122 179.915 89.8843ZM160.449 7.45658C160.251 7.37051 160.113 7.35888 159.901 7.41936C160.106 7.49147 160.242 7.51706 160.449 7.45658Z" fill="black"/>
</svg>
