<svg xmlns="http://www.w3.org/2000/svg" width="24" height="24" fill="none" class="Icon" data-name="Cog8ToothMedium" viewBox="0 0 24 24"><path fill="currentColor" fill-rule="evenodd" d="M9.83546 2.05546C10.3512 1.53973 11.0507 1.25 11.78 1.25H12.22C12.9493 1.25 13.6488 1.53973 14.1645 2.05546C14.6803 2.57118 14.97 3.27065 14.97 4V4.17923C14.9702 4.39843 15.0281 4.61372 15.1378 4.8035C15.2475 4.99328 15.4052 5.15088 15.595 5.26048L15.597 5.26162L16.025 5.51048C16.0253 5.51064 16.0256 5.5108 16.0258 5.51096C16.2157 5.62036 16.4309 5.67795 16.65 5.67795C16.8694 5.67795 17.085 5.62019 17.275 5.51048C17.2823 5.50628 17.2896 5.50219 17.2971 5.49824L17.4369 5.42364C18.0655 5.06512 18.8103 4.96874 19.5097 5.15576C20.2135 5.34395 20.8139 5.8037 21.179 6.43409L21.3997 6.81524C21.7637 7.44628 21.8624 8.19597 21.6742 8.89974C21.4866 9.60151 21.0289 10.2004 20.4013 10.5659L20.2559 10.6531L20.245 10.6595C20.0542 10.7697 19.896 10.9282 19.7862 11.1192C19.6765 11.3102 19.6191 11.5268 19.62 11.747L19.62 11.75L19.62 12.25L19.62 12.253C19.6191 12.4732 19.6765 12.6898 19.7862 12.8808C19.8941 13.0686 20.0489 13.225 20.2354 13.3349L20.3729 13.4082C20.3807 13.4124 20.3883 13.4166 20.3959 13.421C21.0263 13.7861 21.4861 14.3865 21.6742 15.0903C21.8621 15.7928 21.764 16.5411 21.4016 17.1715L21.1832 17.5585L21.179 17.5659C20.8139 18.1963 20.2135 18.656 19.5097 18.8442C18.8103 19.0313 18.0655 18.9349 17.4369 18.5763L17.2971 18.5018C17.2896 18.4978 17.2823 18.4937 17.275 18.4895C17.085 18.3798 16.8694 18.3221 16.65 18.3221C16.4309 18.3221 16.2157 18.3796 16.0259 18.489C16.0256 18.4892 16.0253 18.4893 16.025 18.4895L15.597 18.7384L15.595 18.7395C15.4052 18.8491 15.2475 19.0067 15.1378 19.1965C15.0281 19.3863 14.9702 19.6016 14.97 19.8208V20C14.97 20.7293 14.6803 21.4288 14.1645 21.9445C13.6488 22.4603 12.9494 22.75 12.22 22.75H11.78C11.0507 22.75 10.3512 22.4603 9.83546 21.9445C9.31974 21.4288 9.03 20.7293 9.03 20L9.03 19.8208C9.03 19.8206 9.03 19.8209 9.03 19.8208C9.02971 19.6017 8.97185 19.3862 8.86222 19.1965C8.75252 19.0067 8.59484 18.8491 8.405 18.7395L8.40304 18.7384L7.975 18.4895C7.97469 18.4893 7.97438 18.4892 7.97407 18.489C7.78427 18.3796 7.56906 18.3221 7.35 18.3221C7.13058 18.3221 6.91503 18.3798 6.725 18.4895C6.71772 18.4937 6.71037 18.4978 6.70294 18.5018L6.56312 18.5763C5.93452 18.9349 5.18971 19.0313 4.49026 18.8442C3.78649 18.656 3.18614 18.1963 2.82101 17.5659L2.60034 17.1848C2.23633 16.5537 2.13758 15.804 2.32577 15.1003C2.51342 14.3985 2.97108 13.7996 3.5987 13.4341L3.74413 13.3469L3.75501 13.3405C3.94577 13.2303 4.10403 13.0718 4.21379 12.8808C4.32354 12.6898 4.38088 12.4732 4.38001 12.253L4.38 12.25V11.7425C4.37834 11.5251 4.31998 11.3118 4.21067 11.1238C4.10103 10.9352 3.94394 10.7786 3.75502 10.6695C3.74107 10.6615 3.72738 10.653 3.71398 10.644L3.58209 10.5561C2.96301 10.1898 2.51176 9.5953 2.32577 8.89974C2.13758 8.19597 2.23633 7.44628 2.60034 6.81524L2.82093 6.43422C3.18607 5.80383 3.78649 5.34395 4.49026 5.15576C5.1897 4.96874 5.93449 5.06512 6.56308 5.42364L6.70294 5.49823C6.71037 5.50219 6.71772 5.50628 6.725 5.51048C6.91503 5.62019 7.13058 5.67795 7.35 5.67795C7.56908 5.67795 7.78431 5.62037 7.97411 5.511C7.97441 5.51082 7.97471 5.51065 7.975 5.51048L8.405 5.26048C8.59484 5.15088 8.75252 4.99328 8.86222 4.8035C8.97185 4.61384 9.02971 4.3987 9.03 4.17963C9.03 4.1795 9.03 4.17977 9.03 4.17963V4C9.03 3.27065 9.31974 2.57118 9.83546 2.05546ZM11.78 2.75C11.4485 2.75 11.1305 2.8817 10.8961 3.11612C10.6617 3.35054 10.53 3.66848 10.53 4L10.53 4.18077C10.5295 4.66302 10.4022 5.13666 10.1609 5.55417C9.91974 5.97132 9.57326 6.31778 9.15611 6.55888C9.15574 6.55909 9.15537 6.55931 9.155 6.55952L8.72697 6.80838L8.725 6.80952C8.30695 7.05088 7.83273 7.17795 7.35 7.17795C6.87182 7.17795 6.40198 7.05326 5.98682 6.8163L5.84706 6.74177C5.83972 6.73785 5.83245 6.73382 5.82525 6.72966C5.53841 6.5642 5.19765 6.51931 4.87775 6.60485C4.5579 6.69038 4.28505 6.8993 4.11907 7.18578C4.11905 7.18582 4.1191 7.18573 4.11907 7.18578L3.89966 7.56476C3.89957 7.56491 3.89948 7.56507 3.8994 7.56522C3.73415 7.85196 3.68936 8.19253 3.77486 8.51226C3.8604 8.83215 4.06937 9.10504 4.35591 9.27101C4.36954 9.2789 4.38292 9.28723 4.39603 9.29596L4.52752 9.38362C4.93311 9.62294 5.27059 9.96249 5.50743 10.3699C5.74865 10.7848 5.87709 11.2556 5.87999 11.7355L5.88002 11.74L5.88 12.2486C5.88164 12.7327 5.7555 13.2086 5.51431 13.6282C5.27398 14.0464 4.92792 14.394 4.51089 14.6361L4.36588 14.7231L4.35591 14.729C4.06937 14.895 3.8604 15.1678 3.77486 15.4877C3.68936 15.8075 3.73416 16.1481 3.89942 16.4348C3.89935 16.4347 3.8995 16.435 3.89942 16.4348L4.119 16.8141C4.28497 17.1006 4.55785 17.3096 4.87775 17.3951C5.19765 17.4807 5.53841 17.4358 5.82525 17.2703C5.83245 17.2662 5.83972 17.2621 5.84706 17.2582L5.98682 17.1837C6.40198 16.9467 6.87182 16.8221 7.35 16.8221C7.83273 16.8221 8.30695 16.9491 8.725 17.1905L8.72697 17.1916L9.155 17.4405C9.15542 17.4407 9.15583 17.441 9.15625 17.4412C9.57333 17.6823 9.91977 18.0287 10.1609 18.4458C10.4022 18.8633 10.5295 19.337 10.53 19.8192L10.53 19.82V20C10.53 20.3315 10.6617 20.6495 10.8961 20.8839C11.1305 21.1183 11.4485 21.25 11.78 21.25H12.22C12.5515 21.25 12.8695 21.1183 13.1039 20.8839C13.3383 20.6495 13.47 20.3315 13.47 20V19.8192C13.4705 19.337 13.5978 18.8633 13.8391 18.4458C14.0803 18.0287 14.4268 17.6822 14.8439 17.4411C14.8443 17.4409 14.8446 17.4407 14.845 17.4405L15.273 17.1916L15.275 17.1905C15.6931 16.9491 16.1673 16.8221 16.65 16.8221C17.1282 16.8221 17.598 16.9467 18.0132 17.1837L18.1529 17.2582C18.1603 17.2621 18.1676 17.2662 18.1748 17.2703C18.4616 17.4358 18.8024 17.4807 19.1223 17.3951C19.4409 17.3099 19.713 17.1022 19.8791 16.8174L20.0968 16.4315L20.1003 16.4252C20.2658 16.1384 20.3107 15.7976 20.2252 15.4777C20.1406 15.1616 19.9355 14.8913 19.6541 14.7248L19.5171 14.6518C19.5096 14.6478 19.5023 14.6437 19.495 14.6395C19.0753 14.3972 18.7272 14.0484 18.4857 13.6282C18.2445 13.2085 18.1184 12.7326 18.12 12.2486V11.7514C18.1184 11.2674 18.2445 10.7915 18.4857 10.3718C18.726 9.95362 19.0721 9.60605 19.4891 9.3639L19.6341 9.27688L19.6441 9.27101C19.9306 9.10504 20.1396 8.83215 20.2252 8.51226C20.3107 8.1925 20.2658 7.85188 20.1006 7.56512C20.1005 7.565 20.1006 7.56525 20.1006 7.56512L19.881 7.18591C19.881 7.18586 19.881 7.18595 19.881 7.18591C19.715 6.89944 19.4421 6.69038 19.1223 6.60485C18.8024 6.51931 18.4616 6.5642 18.1748 6.72966C18.1676 6.73382 18.1603 6.73785 18.1529 6.74176L18.0132 6.8163C17.598 7.05326 17.1282 7.17795 16.65 7.17795C16.1673 7.17795 15.6931 7.05088 15.275 6.80952L15.273 6.80838L14.845 6.55952C14.8447 6.55934 14.8444 6.55915 14.8441 6.55897C14.4268 6.31787 14.0803 5.97137 13.8391 5.55417C13.5978 5.13666 13.4705 4.66302 13.47 4.18077V4C13.47 3.66848 13.3383 3.35054 13.1039 3.11612C12.8695 2.8817 12.5515 2.75 12.22 2.75H11.78ZM12 9.75C10.7574 9.75 9.75 10.7574 9.75 12C9.75 13.2426 10.7574 14.25 12 14.25C13.2426 14.25 14.25 13.2426 14.25 12C14.25 10.7574 13.2426 9.75 12 9.75ZM8.25 12C8.25 9.92893 9.92894 8.25 12 8.25C14.0711 8.25 15.75 9.92893 15.75 12C15.75 14.0711 14.0711 15.75 12 15.75C9.92894 15.75 8.25 14.0711 8.25 12Z" clip-rule="evenodd" vector-effect="non-scaling-stroke"/></svg>