<svg xmlns="http://www.w3.org/2000/svg" width="20" height="20" fill="none" class="Icon" data-name="Cog8ToothSmall" viewBox="0 0 20 20"><path fill="currentColor" fill-rule="evenodd" d="M8.10783 1.62433C8.56104 1.17112 9.17573 0.916504 9.81667 0.916504H10.1833C10.8243 0.916504 11.439 1.17112 11.8922 1.62433C12.3454 2.07754 12.6 2.69223 12.6 3.33317V3.4824C12.6002 3.64315 12.6426 3.80103 12.723 3.9402C12.8035 4.07937 12.9191 4.19494 13.0583 4.27532L13.0603 4.27645L13.4167 4.48365C13.417 4.48382 13.4173 4.48399 13.4176 4.48416C13.5567 4.56429 13.7144 4.60646 13.875 4.60646C14.0359 4.60646 14.194 4.56411 14.3333 4.48365C14.3406 4.47945 14.348 4.47536 14.3554 4.47141L14.4704 4.41007C15.0225 4.09573 15.6763 4.01135 16.2904 4.17555C16.9089 4.34093 17.4365 4.74495 17.7573 5.29893L17.9413 5.61675C18.2612 6.17129 18.348 6.83011 18.1826 7.44858C18.0178 8.06501 17.6159 8.59116 17.0647 8.91233L16.9442 8.98462L16.9333 8.99103C16.7934 9.07179 16.6774 9.18808 16.5969 9.32813C16.5164 9.46817 16.4744 9.627 16.475 9.78853L16.475 9.7915L16.475 10.2082L16.475 10.2111C16.4744 10.3727 16.5164 10.5315 16.5969 10.6715C16.6756 10.8085 16.7883 10.9227 16.9241 11.0032L17.0363 11.0631C17.044 11.0672 17.0517 11.0715 17.0592 11.0758C17.6132 11.3967 18.0172 11.9243 18.1826 12.5428C18.3477 13.1599 18.2616 13.8173 17.9434 14.3711L17.7616 14.6933L17.7573 14.7007C17.4365 15.2547 16.9089 15.6587 16.2904 15.8241C15.6763 15.9883 15.0225 15.9039 14.4704 15.5896L14.3554 15.5283C14.348 15.5243 14.3406 15.5202 14.3333 15.516C14.194 15.4356 14.0359 15.3932 13.875 15.3932C13.7145 15.3932 13.5568 15.4354 13.4177 15.5154C13.4174 15.5156 13.417 15.5158 13.4167 15.516L13.0603 15.7232L13.0583 15.7244C12.9191 15.8047 12.8035 15.9203 12.723 16.0595C12.6426 16.1986 12.6002 16.3565 12.6 16.5173V16.6665C12.6 17.3074 12.3454 17.9221 11.8922 18.3753C11.439 18.8286 10.8243 19.0832 10.1833 19.0832H9.81667C9.17573 19.0832 8.56104 18.8286 8.10783 18.3753C7.65462 17.9221 7.4 17.3074 7.4 16.6665L7.4 16.5173C7.4 16.5172 7.4 16.5174 7.4 16.5173C7.39978 16.3566 7.35735 16.1985 7.27696 16.0595C7.19651 15.9203 7.08088 15.8047 6.94167 15.7244L6.9397 15.7232L6.58334 15.516C6.58301 15.5158 6.58268 15.5156 6.58235 15.5155C6.44324 15.4354 6.28553 15.3932 6.125 15.3932C5.9641 15.3932 5.80602 15.4356 5.66667 15.516C5.65939 15.5202 5.65203 15.5243 5.64461 15.5283L5.52961 15.5896C4.97753 15.9039 4.32368 15.9883 3.7096 15.8241C3.09113 15.6587 2.56355 15.2547 2.24268 14.7007L2.05868 14.3829C1.73879 13.8284 1.65201 13.1696 1.81738 12.5511C1.98221 11.9347 2.38411 11.4085 2.93526 11.0874L3.0558 11.015L3.06668 11.0086C3.20656 10.9279 3.32263 10.8116 3.40311 10.6715C3.4836 10.5315 3.52565 10.3727 3.52501 10.2111L3.525 10.2082V9.78576C3.52371 9.62646 3.48091 9.47024 3.40083 9.33249C3.32043 9.1942 3.20523 9.07935 3.06668 8.99936C3.05273 8.99131 3.03905 8.98281 3.02564 8.97387L2.91849 8.90244C2.37596 8.58041 1.98054 8.05873 1.81738 7.44858C1.65201 6.83011 1.73879 6.17129 2.05868 5.61675L2.2426 5.29906C2.56348 4.74508 3.09113 4.34093 3.7096 4.17555C4.32367 4.01135 4.97753 4.09573 5.5296 4.41007L5.64461 4.47141C5.65203 4.47536 5.65939 4.47945 5.66667 4.48365C5.80602 4.56411 5.9641 4.60646 6.125 4.60646C6.28559 4.60646 6.44334 4.56428 6.58249 4.48414C6.58277 4.48398 6.58305 4.48381 6.58334 4.48365L6.94167 4.27532C7.08088 4.19494 7.19651 4.07937 7.27696 3.9402C7.35735 3.80113 7.39978 3.64337 7.4 3.48273C7.4 3.48262 7.4 3.48284 7.4 3.48273V3.33317C7.4 2.69223 7.65462 2.07754 8.10783 1.62433ZM9.81667 2.4165C9.57355 2.4165 9.3404 2.51308 9.16849 2.68499C8.99658 2.8569 8.9 3.09006 8.9 3.33317V3.48394C8.89957 3.90773 8.7877 4.32396 8.57561 4.69087C8.36373 5.05743 8.05926 5.36188 7.69271 5.57375C7.69236 5.57396 7.69202 5.57416 7.69167 5.57436L7.33334 5.78269C6.96596 5.9948 6.54922 6.10646 6.125 6.10646C5.70539 6.10646 5.29308 5.9972 4.92863 5.78955L4.81373 5.72827C4.80639 5.72435 4.79912 5.72032 4.79191 5.71616C4.58157 5.59483 4.33167 5.56191 4.09708 5.62464C3.86254 5.68735 3.66246 5.84055 3.54074 6.05061C3.54071 6.05066 3.54077 6.05057 3.54074 6.05061L3.358 6.36626C3.3579 6.36642 3.35781 6.36658 3.35772 6.36674C3.23661 6.57698 3.20379 6.82668 3.26647 7.06109C3.3292 7.29568 3.48245 7.4958 3.69258 7.61751C3.70621 7.62541 3.71959 7.63373 3.7327 7.64247L3.83945 7.71364C4.19455 7.92385 4.49004 8.22157 4.69759 8.57856C4.90957 8.94317 5.02244 9.3569 5.02499 9.77864L5.02502 9.78317L5.025 10.2068C5.0264 10.6321 4.91555 11.0502 4.70363 11.419C4.49259 11.7862 4.18878 12.0914 3.82266 12.3042L3.70254 12.3763L3.69258 12.3822C3.48245 12.5039 3.3292 12.704 3.26647 12.9386C3.20379 13.173 3.23661 13.4227 3.35773 13.633C3.35782 13.6331 3.35791 13.6333 3.358 13.6334L3.54066 13.9489C3.54064 13.9489 3.54069 13.949 3.54066 13.9489C3.66238 14.159 3.86254 14.3123 4.09708 14.375C4.33167 14.4378 4.58157 14.4048 4.79191 14.2835C4.79912 14.2794 4.80639 14.2753 4.81373 14.2714L4.92863 14.2101C5.29308 14.0025 5.70539 13.8932 6.125 13.8932C6.54922 13.8932 6.96596 14.0049 7.33334 14.217L7.33531 14.2181L7.69167 14.4253C7.69206 14.4255 7.69244 14.4258 7.69283 14.426C8.05933 14.6379 8.36375 14.9423 8.57561 15.3088C8.7877 15.6757 8.89957 16.0919 8.9 16.5157L8.9 16.5165L8.9 16.6665C8.9 16.9096 8.99658 17.1428 9.16849 17.3147C9.3404 17.4866 9.57356 17.5832 9.81667 17.5832H10.1833C10.4265 17.5832 10.6596 17.4866 10.8315 17.3147C11.0034 17.1428 11.1 16.9096 11.1 16.6665V16.5157C11.1004 16.0919 11.2123 15.6757 11.4244 15.3088C11.6363 14.9423 11.9407 14.6379 12.3072 14.426C12.3076 14.4258 12.308 14.4255 12.3083 14.4253L12.6647 14.2181L12.6667 14.217C13.034 14.0049 13.4508 13.8932 13.875 13.8932C14.2946 13.8932 14.7069 14.0025 15.0714 14.2101L15.1863 14.2714C15.1936 14.2753 15.2009 14.2794 15.2081 14.2835C15.4184 14.4048 15.6683 14.4378 15.9029 14.375C16.1363 14.3126 16.3356 14.1606 16.4575 13.9521L16.6384 13.6313L16.642 13.6251C16.7633 13.4147 16.7963 13.1648 16.7335 12.9302C16.6718 12.6993 16.5222 12.5017 16.3171 12.3795L16.2054 12.3199C16.198 12.316 16.1906 12.3119 16.1833 12.3077C15.8146 12.0948 15.5086 11.7882 15.2964 11.419C15.0844 11.0502 14.9736 10.632 14.975 10.2067V9.79296C14.9736 9.36764 15.0844 8.94948 15.2964 8.5807C15.5074 8.21347 15.8113 7.9082 16.1774 7.69542L16.2975 7.62338L16.3074 7.61751C16.5176 7.4958 16.6708 7.29568 16.7335 7.06109C16.7962 6.8268 16.7634 6.57724 16.6425 6.36706C16.6423 6.36679 16.6422 6.36653 16.642 6.36626L16.4593 6.05075C16.4593 6.0507 16.4594 6.05079 16.4593 6.05075C16.3376 5.84069 16.1375 5.68735 15.9029 5.62464C15.6683 5.56191 15.4184 5.59483 15.2081 5.71616C15.2009 5.72032 15.1936 5.72435 15.1863 5.72827L15.0714 5.78955C14.7069 5.9972 14.2946 6.10646 13.875 6.10646C13.4508 6.10646 13.034 5.9948 12.6667 5.78269L12.6647 5.78155L12.3083 5.57436C12.308 5.57416 12.3076 5.57395 12.3073 5.57375C11.9407 5.36188 11.6363 5.05743 11.4244 4.69087C11.2123 4.32396 11.1004 3.90773 11.1 3.48394V3.33317C11.1 3.09006 11.0034 2.8569 10.8315 2.68499C10.6596 2.51308 10.4265 2.4165 10.1833 2.4165H9.81667ZM10 8.24984C9.03351 8.24984 8.25 9.03334 8.25 9.99984C8.25 10.9663 9.03351 11.7498 10 11.7498C10.9665 11.7498 11.75 10.9663 11.75 9.99984C11.75 9.03334 10.9665 8.24984 10 8.24984ZM6.75 9.99984C6.75 8.20491 8.20508 6.74984 10 6.74984C11.7949 6.74984 13.25 8.20491 13.25 9.99984C13.25 11.7948 11.7949 13.2498 10 13.2498C8.20508 13.2498 6.75 11.7948 6.75 9.99984Z" clip-rule="evenodd" vector-effect="non-scaling-stroke"/></svg>