<svg
  width="24"
  height="24"
  viewBox="0 0 24 24"
  fill="none"
  xmlns="http://www.w3.org/2000/svg"
>
  <path
    fill-rule="evenodd"
    clip-rule="evenodd"
    d="M6.25 2C6.25 1.58579 6.58579 1.25 7 1.25H8C8.41421 1.25 8.75 1.58579 8.75 2C8.75 2.41421 8.41421 2.75 8 2.75H7C6.58579 2.75 6.25 2.41421 6.25 2ZM11.9897 4.25H2C1.58579 4.25 1.25 4.58579 1.25 5C1.25 5.41421 1.58579 5.75 2 5.75H10.5986L9.41716 7.52218L7.5 9.43934L5.53033 7.46967C5.23744 7.17678 4.76256 7.17678 4.46967 7.46967C4.17678 7.76256 4.17678 8.23744 4.46967 8.53033L6.43934 10.5L3.46967 13.4697C3.17678 13.7626 3.17678 14.2374 3.46967 14.5303C3.76256 14.8232 4.23744 14.8232 4.53033 14.5303L7.5 11.5607L10.4697 14.5303C10.7626 14.8232 11.2374 14.8232 11.5303 14.5303C11.8232 14.2374 11.8232 13.7626 11.5303 13.4697L8.56066 10.5L10.5303 8.53033C10.5653 8.49541 10.5966 8.45712 10.624 8.41603L12.4014 5.75H14C14.4142 5.75 14.75 5.41421 14.75 5C14.75 4.58579 14.4142 4.25 14 4.25H12.0116C12.0043 4.24989 11.997 4.24989 11.9897 4.25ZM17 11.25C17.2841 11.25 17.5438 11.4105 17.6708 11.6646L20.6641 17.6511C20.6689 17.6603 20.6736 17.6697 20.6781 17.6791L22.6708 21.6646C22.8561 22.0351 22.7059 22.4856 22.3354 22.6708C21.9649 22.8561 21.5144 22.7059 21.3292 22.3354L19.5365 18.75H14.4635L12.6708 22.3354C12.4856 22.7059 12.0351 22.8561 11.6646 22.6708C11.2941 22.4856 11.1439 22.0351 11.3292 21.6646L13.3219 17.6791C13.3264 17.6697 13.3311 17.6603 13.3359 17.6511L16.3292 11.6646C16.4562 11.4105 16.7159 11.25 17 11.25ZM15.2135 17.25H18.7865L17 13.6771L15.2135 17.25Z"
    fill="#191919"
  />
</svg>
