<svg
  width="24"
  height="24"
  viewBox="0 0 24 24"
  fill="none"
  xmlns="http://www.w3.org/2000/svg"
>
  <path
    fill-rule="evenodd"
    clip-rule="evenodd"
    d="M10.75 2C10.75 1.58579 10.4142 1.25 10 1.25C9.58579 1.25 9.25 1.58579 9.25 2V2.25H9C8.58579 2.25 8.25 2.58579 8.25 3C8.25 3.41421 8.58579 3.75 9 3.75H9.25V4C9.25 4.41421 9.58579 4.75 10 4.75C10.4142 4.75 10.75 4.41421 10.75 4V3.75H11C11.4142 3.75 11.75 3.41421 11.75 3C11.75 2.58579 11.4142 2.25 11 2.25H10.75V2ZM5 5.25C5.41421 5.25 5.75 5.58579 5.75 6V7.25H7C7.41421 7.25 7.75 7.58579 7.75 8C7.75 8.41421 7.41421 8.75 7 8.75H5.75V10C5.75 10.4142 5.41421 10.75 5 10.75C4.58579 10.75 4.25 10.4142 4.25 10V8.75H3C2.58579 8.75 2.25 8.41421 2.25 8C2.25 7.58579 2.58579 7.25 3 7.25H4.25V6C4.25 5.58579 4.58579 5.25 5 5.25ZM19 13.25C19.4142 13.25 19.75 13.5858 19.75 14V15.25H21C21.4142 15.25 21.75 15.5858 21.75 16C21.75 16.4142 21.4142 16.75 21 16.75H19.75V18C19.75 18.4142 19.4142 18.75 19 18.75C18.5858 18.75 18.25 18.4142 18.25 18V16.75H17C16.5858 16.75 16.25 16.4142 16.25 16C16.25 15.5858 16.5858 15.25 17 15.25H18.25V14C18.25 13.5858 18.5858 13.25 19 13.25ZM13 19.2529C13.4142 19.2529 13.75 19.5887 13.75 20.0029V20.2529H14C14.4142 20.2529 14.75 20.5887 14.75 21.0029C14.75 21.4171 14.4142 21.7529 14 21.7529H13.75V22.0029C13.75 22.4171 13.4142 22.7529 13 22.7529C12.5858 22.7529 12.25 22.4171 12.25 22.0029V21.7529H12C11.5858 21.7529 11.25 21.4171 11.25 21.0029C11.25 20.5887 11.5858 20.2529 12 20.2529H12.25V20.0029C12.25 19.5887 12.5858 19.2529 13 19.2529ZM18.4053 3.65206C18.6628 3.39463 19.0119 3.25 19.376 3.25C19.7401 3.25 20.0892 3.39463 20.3467 3.65206C20.6041 3.9095 20.7487 4.25866 20.7487 4.62273C20.7487 4.98681 20.6041 5.33599 20.3467 5.59342L18.5003 7.43992L16.5589 5.49851L18.4053 3.65206ZM15.4982 6.55917L17.4397 8.50062L7.33666 18.6044C7.18797 18.7531 7.0038 18.862 6.80192 18.9208L4.36772 19.631L5.07798 17.1968C5.13688 16.9952 5.24577 16.8115 5.39433 16.6631L15.4982 6.55917ZM19.376 1.75C18.6141 1.75 17.8834 2.05266 17.3447 2.5914L4.33382 15.6023C4.00691 15.929 3.76758 16.333 3.63802 16.7767L2.8 19.6487C2.73726 19.8639 2.73349 20.0919 2.78911 20.309C2.84472 20.526 2.95766 20.7242 3.11612 20.8826C3.27457 21.0411 3.47271 21.154 3.68977 21.2096C3.90684 21.2652 4.13495 21.2615 4.35008 21.1987L7.22208 20.3607C7.66609 20.2313 8.07033 19.9921 8.39735 19.665L21.4073 6.65406C21.9461 6.11532 22.2487 5.38463 22.2487 4.62273C22.2487 3.86084 21.9461 3.13015 21.4073 2.5914C20.8686 2.05266 20.1379 1.75 19.376 1.75Z"
    fill="#191919"
  />
</svg>
