<svg
  width="24"
  height="24"
  viewBox="0 0 24 24"
  fill="none"
  xmlns="http://www.w3.org/2000/svg"
>
  <path
    d="M15.5602 5.50039L18.5602 8.50039M5.06055 6V10M19.0605 14V18M10.0605 2V4M13.0605 20.0032V22.0032M7.06055 8H3.06055M21.0605 16H17.0605M11.0605 3H9.06055M14.0605 21.0032H12.0605M18.1835 2.91995C18.5816 2.52186 19.1216 2.29822 19.6845 2.29822C20.2475 2.29822 20.7875 2.52186 21.1855 2.91995C21.5836 3.31804 21.8073 3.85797 21.8073 4.42095C21.8073 4.98394 21.5836 5.52386 21.1855 5.92195L7.42755 19.6349C7.18964 19.8728 6.89557 20.0469 6.57255 20.1409L3.70055 20.9789C3.6145 21.004 3.52329 21.0055 3.43646 20.9833C3.34963 20.961 3.27037 20.9159 3.20699 20.8525C3.14361 20.7891 3.09844 20.7099 3.07619 20.623C3.05394 20.5362 3.05545 20.445 3.08055 20.3589L3.91855 17.4869C4.01277 17.1642 4.18679 16.8705 4.42455 16.6329L18.1835 2.91995Z"
    stroke="#8E8E8E"
    stroke-width="1.5"
    stroke-linecap="round"
    stroke-linejoin="round"
  />
</svg>
